<svg xmlns="http://www.w3.org/2000/svg" xmlns:xlink="http://www.w3.org/1999/xlink" width="2088" height="1407.301" viewBox="0 0 2088 1407.301">
  <defs>
    <clipPath id="clip-path">
      <rect id="Rectangle_3132" data-name="Rectangle 3132" width="2088" height="1407.301" transform="translate(690.66 54.298)" fill="none"/>
    </clipPath>
  </defs>
  <g id="Group_11085" data-name="Group 11085" transform="translate(-690.66 -54.298)" opacity="0.15">
    <g id="Group_11084" data-name="Group 11084" clip-path="url(#clip-path)">
      <path id="Path_60172" data-name="Path 60172" d="M3298.127,431.153c-15.589-12.543-31.426-24.178-46.836-35.076C3201.7,361,3156.607,333.351,3113.446,311.54c-105.232-52.927-201.792-73.809-287-62.06-10.461,1.447-21.012,3.421-31.214,5.33-22.877,4.283-46.533,8.712-71.1,7.6-4.493-.2-9.1-.6-13.7-1.17-28.828-3.618-56.8-13.734-89.921-27.812-9.168-3.879-18.361-7.9-27.251-11.787-10.344-4.524-21.042-9.2-31.416-13.532-74.146-30.879-150.362-50.461-226.546-58.22-8.918-.883-16.855-1.468-24.267-1.786a301,301,0,0,0-65.418,3.935c-35.409,6.053-70.529,19.909-104.494,33.308-21.1,8.326-42.92,16.934-64.271,23.414-60.258,18.254-110.374,17.807-157.717-1.4-32.318-13.116-61.041-35.116-88.82-56.391-33.513-25.668-68.166-52.216-109.087-62.933-83.941-22.083-161.739,29.617-230.378,75.242-6.386,4.243-12.72,8.453-19.006,12.574-23.749,15.562-48.737,30.393-74.276,44.08-61.064,32.751-112.631,51.459-162.287,58.874-15.712,2.348-31.822,3.634-47.4,4.874-4.649.37-9.307.741-13.98,1.141-10.042.856-20.193,1.864-30.01,2.842-10.613,1.056-21.588,2.147-32.326,3.032q-5.141.424-10.269.793c-24.449,1.731-49.4,2.47-73.534,3.184-44.977,1.328-91.485,2.707-136.51,10.575C810.568,319.239,731.757,355.74,663.33,410.8c-64.893,52.213-119.777,120.242-158.714,196.726-80.4,157.117-96.2,340.119-100.99,481.992q-.456,13.6-.847,27.3c-2.684,89.815-5.455,182.686-42.02,261.993-15.419,33.408-36.663,63.831-57.21,93.252-13.659,19.56-27.781,39.782-40.138,60.783-76.666,130.428-90.052,286.021-103,436.488-6.328,73.586-12.876,149.673-26.8,221.317-1.986,10.309-3.735,18.767-5.5,26.621-6.359,28.234-22.313,62.751-39.2,99.293-30.508,65.989-62.055,134.229-46.882,182.521l.9-.281-.9.281c7.871,25.051,27.006,41.879,45.512,58.151l2.792,2.45c20.518,18.015,39.9,35.028,51.732,57.749,21.315,40.923,25.013,91.01,28.586,139.444.589,7.981,1.172,15.883,1.832,23.649q.612,7.4,1.247,14.49c2.309,26.373,4.966,54.822,8.735,84.172,1.5,11.689,2.738,23.5,3.935,34.92,4.393,41.952,8.547,81.576,25,120.45a224.659,224.659,0,0,0,12.133,24.376c37.319,64.393,110.326,101.931,169.762,127.446,18.706,8.027,38.173,15.712,57,23.142,52.914,20.884,107.632,42.478,153.58,74.8,58.965,41.458,104.88,100.049,149.284,156.7C805.633,3507.972,859.9,3577.2,935.409,3616.95c29.14,15.312,60.294,26.019,95.239,32.724,66.105,12.732,136.8,8.788,205.168,4.976,71.129-3.969,144.68-8.071,215.477,5.93,36.005,7.119,71.621,19.306,106.064,31.092,42.962,14.7,87.387,29.906,132.748,35.282,80.743,9.576,164.426-9.559,248.723-56.869,37.521-21.078,73.745-47.138,108.775-72.342,13.9-10,27.031-19.447,40.276-28.63l3.565-2.488c23.537-16.425,45.769-31.937,66.869-49.23q4.883-4.016,9.74-8.191c35.687-30.543,72.616-71.5,116.221-128.9q11.273-14.835,22.448-29.823c27.626-36.871,56.194-75,86.948-108.6,6.825-7.469,13.905-14.883,20.751-22.054,6.324-6.625,12.868-13.478,19.279-20.441,10.269-11.147,20.443-22.939,30.279-34.345,6.324-7.332,12.864-14.913,19.381-22.267,5.172-5.836,10.426-11.633,15.616-17.232,57.868-62.433,122.774-116.548,185.543-168.878,63.323-52.8,115.468-95.479,164.1-134.331,25.442-20.326,52.388-42.248,77.532-67.092,34.835-34.386,64.525-73.83,86.5-104.351,52.365-72.735,103.018-153.555,164.24-262.063,96.122-170.353,174.891-330.371,240.815-489.193,12-28.89,25.777-63.086,36.977-97.656,7.7-23.7,14.328-47.48,20.739-70.48q2.377-8.526,4.777-17.079,2.439-8.677,4.958-17.428c5.789-20.213,12.185-41.065,18.371-61.236,27.108-88.384,55.14-179.776,52.333-274.76-2.77-86.117-30.881-171.159-58.066-253.4-23.459-70.974-47.719-144.365-55.436-217.87-3.794-36.753-3.582-74.557-3.378-111.116.426-75.9.863-154.391-35.022-225.472-24.744-48.929-64.378-88.635-105.831-121.979M43.813,2498.523c-14.956-47.6,16.433-115.509,46.787-181.177,16.934-36.638,32.93-71.24,39.332-99.667,1.77-7.873,3.525-16.352,5.516-26.677,13.944-71.74,20.495-147.879,26.829-221.511,12.928-150.261,26.3-305.638,102.747-435.7,12.32-20.938,26.423-41.131,40.057-60.66,20.6-29.49,41.889-59.984,57.377-93.542,36.726-79.652,39.505-172.719,42.193-262.721q.406-13.68.85-27.287c9.093-269.722,58.636-398.846,100.784-481.2C545.1,532.129,599.814,464.312,664.5,412.262,732.681,357.4,811.2,321.037,891.57,307.1c44.892-7.843,91.331-9.218,136.241-10.546,24.151-.716,49.125-1.455,73.611-3.188q5.141-.366,10.29-.8c10.754-.887,21.738-1.978,32.359-3.036,9.811-.974,19.956-1.984,29.983-2.84q7.005-.6,13.971-1.139c15.61-1.245,31.753-2.53,47.53-4.891,49.872-7.446,101.633-26.216,162.893-59.074,25.586-13.713,50.624-28.572,74.415-44.165,6.29-4.12,12.628-8.333,19.016-12.578,68.312-45.4,145.74-96.863,228.867-74.99,40.559,10.625,75.058,37.053,108.426,62.607,27.878,21.351,56.7,43.428,89.257,56.64,47.759,19.379,98.273,19.841,158.964,1.457,21.424-6.5,43.278-15.123,64.417-23.462,33.873-13.366,68.9-27.185,104.124-33.207a299,299,0,0,1,65.016-3.91c7.379.319,15.283.9,24.163,1.78,76,7.738,152.042,27.279,226.013,58.081,10.356,4.321,21.047,9,31.385,13.517,8.9,3.892,18.093,7.914,27.269,11.8,33.267,14.138,61.378,24.3,90.423,27.943,4.643.581,9.3.981,13.84,1.185,24.784,1.125,48.548-3.323,71.53-7.627,10.182-1.906,20.709-3.875,31.127-5.318,84.828-11.693,181.018,9.124,285.9,61.878,43.078,21.769,88.091,49.373,137.6,84.391,56.2,39.745,118.214,89.4,152.08,156.374,35.68,70.676,35.243,148.934,34.82,224.615-.2,36.609-.416,74.465,3.388,111.319,7.739,73.709,32.03,147.2,55.519,218.263,27.144,82.117,55.211,167.033,57.975,252.873,2.8,94.674-25.191,185.916-52.253,274.154-6.19,20.177-12.588,41.042-18.384,61.266q-2.526,8.76-4.959,17.438-2.407,8.561-4.777,17.084c-6.4,22.979-13.028,46.741-20.718,70.4-11.177,34.506-24.938,68.66-36.923,97.517-65.9,158.754-144.634,318.7-240.717,488.99-61.187,108.446-111.807,189.214-164.13,261.892-21.927,30.458-51.553,69.82-86.292,104.111-25.077,24.78-51.98,46.666-77.386,66.961-48.642,38.858-100.8,81.55-164.128,134.353-62.816,52.371-127.769,106.524-185.72,169.046-5.2,5.609-10.461,11.417-15.641,17.263-6.526,7.363-13.07,14.948-19.4,22.286-9.828,11.394-19.991,23.175-30.239,34.3-6.4,6.953-12.939,13.8-19.258,20.418-6.853,7.177-13.936,14.6-20.776,22.083-30.816,33.667-59.411,71.831-87.066,108.74q-11.2,14.943-22.442,29.81c-43.519,57.292-80.364,98.16-115.946,128.614q-4.846,4.169-9.709,8.167c-21.045,17.244-43.247,32.738-66.753,49.139l-3.561,2.488c-13.257,9.191-26.394,18.642-40.3,28.647-34.989,25.174-71.169,51.2-108.6,72.229-83.945,47.112-167.245,66.167-247.586,56.646-45.163-5.358-89.492-20.526-132.362-35.2-34.5-11.808-70.178-24.016-106.308-31.158-71.027-14.046-144.7-9.936-215.945-5.964-68.252,3.806-138.829,7.744-204.71-4.945-34.76-6.671-65.743-17.315-94.719-32.54-75.16-39.572-129.3-108.635-181.651-175.425-44.49-56.753-90.492-115.431-149.684-157.075-46.131-32.447-100.953-54.085-153.967-75.011-18.813-7.423-38.266-15.1-56.948-23.121-59.167-25.4-131.835-62.746-168.877-126.661a222.865,222.865,0,0,1-12.033-24.169c-16.343-38.614-20.482-78.1-24.865-119.911-1.2-11.431-2.436-23.254-3.939-34.964-3.763-29.317-6.417-57.746-8.722-84.1q-.641-7.089-1.251-14.48c-.658-7.763-1.241-15.658-1.828-23.632-3.588-48.623-7.3-98.905-28.792-140.172-12-23.029-31.506-40.157-52.161-58.288l-2.792-2.453c-18.311-16.1-37.246-32.753-44.958-57.306" fill="#fff"/>
      <path id="Path_60173" data-name="Path 60173" d="M3205.079,508.915q-12.347-9.932-25.946-19.86c-16.9-12.337-33.808-25.4-50.164-38.027-25.711-19.853-52.3-40.384-79.462-58.6-100.882-67.1-185.262-104.155-265.551-116.606-13.361-2.059-27.006-3.471-40.2-4.833-19.044-1.967-38.733-4-59.026-8.058-4.358-.869-8.86-1.864-13.383-2.953-14.787-3.585-29.92-8.156-44.556-12.572-15.3-4.625-31.118-9.4-46.637-13.084a405.05,405.05,0,0,0-61.173-9.49c-27.343-2.061-55.3-1.487-82.348-.925-47.124.97-95.854,1.976-144.039-10.748-7.825-2.066-15.252-4.314-22.808-6.626l-.718-.223c-20.23-6.228-39.341-12.108-61-12.909-39.686-1.468-78.384,16.928-115.8,34.714-16.968,8.068-34.512,16.408-51.79,22.694-52.665,19.1-106,19.974-158.533,2.577-32.655-10.815-63.6-28.459-93.521-45.529-36.711-20.93-74.671-42.581-116.1-51.79-40.829-9.168-83.629-5.665-130.84,10.711-43.69,15.16-85.1,39.311-119.855,60.941-25.126,15.644-49.152,31.1-71.409,45.954l-3.429,2.29c-46.2,30.893-93.965,62.834-149.475,65.572-9.836.487-19.8.014-29.432-.439a300.928,300.928,0,0,0-30.748-.4c-21.544,1.173-42.806,7.148-59.888,11.95l-9.541,2.686c-20.066,5.584-40.544,10.806-60.348,15.858-43.994,11.214-89.484,22.815-133.324,39.145-155.7,57.523-286.451,176.726-358.722,327.039-30.235,62.886-51.863,132.548-66.12,212.966-11.623,65.572-18.277,137.332-20.945,225.84q-.508,16.915-.9,33.94c-1.936,77.859-3.94,158.372-25.79,230.539-10.246,33.7-24.734,65.516-38.745,96.284-7.8,17.13-15.868,34.846-23.177,52.8-43.3,106.759-63.044,225.125-82.136,339.6-14.234,85.338-28.953,173.585-53.318,255.979l-.123.415c-2.213,7.571-4.5,15.4-6.961,23.1-6.355,19.889-15.843,42.124-25.89,65.663-27.891,65.353-59.5,139.427-34.618,191.025,7.789,16.154,20.518,28.863,32.828,41.153,5.722,5.713,11.637,11.618,16.982,17.794,19.552,22.589,30.142,45.612,33.332,72.464,2.674,22.54,1.074,46.328-.62,71.515-2.209,32.857-4.493,66.832,3.327,98.618,1.139,4.71,2.494,9.422,4.141,14.392,6.5,19.627,15.013,36.85,24.026,55.088,3.452,6.986,7.021,14.207,10.434,21.516,15.477,33.154,19.027,65.8,22.458,97.358,2.2,20.216,4.473,41.121,9.847,62.016a205.038,205.038,0,0,0,8.849,26.722c23.189,55.83,81.971,100.107,174.714,131.6,21.546,7.319,44,13.759,65.728,19.993,55.263,15.845,112.406,32.234,160.076,64.585,50.412,34.222,89.528,83.25,127.35,130.665,39.372,49.363,80.083,100.4,133.286,134.022a306.519,306.519,0,0,0,71.263,32.838c58.359,18.7,119.713,21.186,184.669,23.822,46.553,1.889,94.689,3.842,141.663,12.327,24.174,4.36,48.332,10.875,71.692,17.178,38.641,10.424,78.594,21.2,118.892,22.161,82.452,1.961,168.415-28.678,255.5-91.058,11.8-8.462,23.847-17.651,35.5-26.533,39.941-30.452,81.239-61.943,124.91-74.688,17.73-5.174,34.408-7.435,50.536-9.621,11.31-1.535,21.994-2.98,33.042-5.356,3.881-.835,7.941-1.843,12.068-2.994,44.532-12.447,93.883-47.086,146.677-102.958,8.995-9.511,18.044-19.385,26.8-28.932,33.323-36.353,67.781-73.942,107.336-100.615,5.834-3.943,11.879-7.725,17.724-11.379,11.006-6.884,22.385-14,33.011-22.611,19.212-15.538,35.254-35.7,50.766-55.2l3.356-4.216c5.2-6.525,10.451-13.026,15.6-19.321,57.6-70.405,119.319-135.467,179-198.386,53.985-56.921,107.622-110.986,170.185-146.966,9.341-5.37,18.883-10.476,28.109-15.408,20.374-10.892,41.44-22.156,60.664-36.588,36.711-27.512,65.008-66.419,90.848-103.917,56.389-81.833,112.718-172.061,167.422-268.17,106.272-186.718,179.78-347.493,231.333-505.974,10.8-33.155,21.153-68.556,23.737-102.8,1.7-22.017.451-43.307-.758-63.9-.475-8.075-.966-16.427-1.273-24.722-.237-6.344-.346-12.116-.334-17.644-.063-52.221,12.03-105.321,24.83-161.536,13.641-59.9,27.745-121.837,26.427-184.015-1.7-80.235-28.867-158.44-55.138-234.067-16.049-46.2-32.643-93.964-42.92-141.093-5.647-25.889-9.492-52.337-13.211-77.909-8.774-60.341-17.849-122.734-51.324-179.457-21.642-36.49-53.483-71.494-96.872-106.4M137.431,2465.115l.843-.4c-24.516-50.84,6.921-124.5,34.656-189.488,10.063-23.579,19.568-45.854,25.95-65.824,2.467-7.725,4.76-15.56,6.975-23.139l.121-.412c24.4-82.5,39.126-170.808,53.37-256.2,19.075-114.368,38.8-232.632,82.023-339.2,7.294-17.919,15.352-35.618,23.145-52.731,14.036-30.823,28.551-62.695,38.833-96.518,21.925-72.408,23.93-153.049,25.871-231.037q.422-17.006.9-33.927C437.454,932.887,480.4,814.3,517,738.188c72.062-149.88,202.434-268.739,357.685-326.1,43.749-16.3,89.192-27.885,133.137-39.087,19.816-5.054,40.3-10.277,60.39-15.868l9.543-2.688c16.995-4.776,38.146-10.723,59.484-11.881a299.771,299.771,0,0,1,30.556.4c9.678.458,19.689.933,29.615.439,56.027-2.759,104.015-34.85,150.425-65.882l3.427-2.292c22.24-14.842,46.25-30.289,71.359-45.92,132.189-82.28,197.938-82.948,249.293-71.413,41.154,9.147,78.987,30.723,115.58,51.588,30,17.112,61.029,34.806,93.859,45.681,52.941,17.532,106.693,16.657,159.764-2.6,17.363-6.32,34.947-14.68,51.957-22.762,37.217-17.69,75.7-35.984,114.928-34.535,21.411.791,40.407,6.64,60.517,12.828l.719.223c7.575,2.32,15.023,4.57,22.881,6.649,48.438,12.788,97.3,11.783,144.555,10.8,27-.556,54.916-1.131,82.165.924a403.065,403.065,0,0,1,60.887,9.442c15.46,3.673,31.249,8.443,46.522,13.053,14.661,4.428,29.821,9,44.66,12.6,4.548,1.1,9.074,2.093,13.453,2.969,20.383,4.07,40.115,6.109,59.2,8.083,13.78,1.425,26.793,2.771,40.107,4.822,80.01,12.408,164.153,49.369,264.8,116.313,27.107,18.18,53.67,38.691,79.358,58.526,16.364,12.637,33.288,25.706,50.206,38.058,56.67,41.393,96.692,82.509,122.307,125.7,33.286,56.4,41.931,115.838,51.085,178.77,3.722,25.606,7.573,52.085,13.234,78.042,10.3,47.234,26.914,95.057,42.978,141.3,26.225,75.492,53.341,153.552,55.036,233.49,1.314,61.953-12.766,123.773-26.378,183.561-12.827,56.321-24.941,109.518-24.878,161.95-.013,5.551.1,11.348.335,17.717.308,8.318.8,16.676,1.274,24.761,1.206,20.526,2.453,41.752.762,63.646-2.572,34.048-12.887,69.32-23.652,102.362-51.513,158.358-124.97,319.026-231.178,505.626-54.676,96.065-110.977,186.245-167.336,268.035-25.753,37.369-53.945,76.141-90.429,103.483-19.11,14.346-39.178,25.073-60.421,36.436-9.241,4.943-18.8,10.05-28.164,15.437-62.782,36.1-116.527,90.275-170.61,147.3-59.71,62.945-121.453,128.034-179.094,198.491-5.156,6.3-10.409,12.807-15.617,19.337l-3.356,4.218c-15.452,19.423-31.426,39.507-50.478,54.916-10.538,8.535-21.867,15.621-32.823,22.475-5.861,3.665-11.923,7.456-17.78,11.418-39.738,26.794-74.273,64.469-107.671,100.9-8.747,9.542-17.794,19.41-26.775,28.911-52.561,55.619-101.621,90.083-145.822,102.437-4.091,1.147-8.114,2.144-11.96,2.971-10.975,2.357-21.624,3.8-32.9,5.328-16.2,2.2-32.946,4.467-50.812,9.68-44.007,12.842-85.444,44.439-125.52,74.993-11.646,8.878-23.685,18.061-35.457,26.5-86.746,62.138-172.328,92.659-254.361,90.708-40.074-.951-79.918-11.7-118.449-22.1-23.4-6.313-47.6-12.841-71.846-17.213-47.1-8.508-95.306-10.461-141.921-12.354-64.825-2.629-126.057-5.116-184.177-23.735a304.645,304.645,0,0,1-70.83-32.638c-52.935-33.456-93.546-84.368-132.822-133.605-37.91-47.524-77.105-96.667-127.765-131.043-47.917-32.522-105.206-48.95-160.611-64.844-21.7-6.221-44.14-12.658-65.643-19.96C385.3,3142.655,326.9,3098.732,303.93,3043.425a202.3,202.3,0,0,1-8.768-26.473c-5.343-20.763-7.606-41.6-9.8-61.751-3.448-31.718-7.015-64.515-22.625-97.948-3.421-7.327-6.994-14.561-10.45-21.552-8.985-18.182-17.469-35.349-23.928-54.847-1.63-4.924-2.971-9.586-4.1-14.248-7.75-31.508-5.476-65.333-3.275-98.048,1.7-25.276,3.3-49.15.608-71.865-3.234-27.237-13.965-50.584-33.773-73.463-5.391-6.23-11.331-12.16-17.076-17.9-12.2-12.181-24.811-24.776-32.465-40.638Z" fill="#fff"/>
      <path id="Path_60174" data-name="Path 60174" d="M2964.437,437.012c-64.194-51.64-137.989-104.8-216.912-138.557-27.156-11.594-54.671-20.893-83.8-30.739q-6.341-2.139-12.772-4.323-6.528-2.22-13.106-4.489l-.36-.122c-29.869-10.326-60.756-21-91.926-23.678-19.759-1.662-40.471-.31-63.319,4.133-21.95,4.293-43.967,10.984-65.263,17.453-55.449,16.849-107.82,32.765-160.989,10.711a191.929,191.929,0,0,1-21.571-10.748c-3.511-1.991-6.976-4.033-10.431-6.066-15.6-9.19-30.329-17.869-48.1-21.7-41.152-9.024-80.732,12.791-119.013,33.892-15.565,8.577-31.656,17.446-47.576,24.072-48.03,19.952-100.113,21.91-159.232,5.99-32.88-8.858-65.622-22.8-97.294-36.292-39.545-16.843-80.441-34.26-122.361-42.169-77.67-14.784-162.391,4.662-251.813,57.8a609.9,609.9,0,0,0-68.956,47.565c-4.847,3.877-9.715,7.856-14.619,11.864-39.466,32.259-80.274,65.616-130.24,63.7-8.854-.337-17.759-1.857-26.373-3.328-10.646-1.817-21.663-3.7-32.778-3.392-21.274.583-40.984,9.177-57.789,17.187-2.871,1.368-5.713,2.755-8.533,4.125l-.379.187q-19.9,9.667-39.878,19.181c-46.2,22.113-93.984,44.98-139.766,71.167-109.1,62.116-255.744,172.954-334.811,348.249-60.34,132.425-71.839,277.415-75.125,401.78-.448,16.8-.75,33.975-1.045,50.58-1.141,64.079-2.32,130.34-11.779,192.66-6.109,40-15.6,79.009-24.77,116.74q-3.408,14-6.786,28.111c-11.423,48.259-22.007,98.289-32.245,146.669-28.1,132.8-57.156,270.121-108.053,395.521l-2.032,5.053c-2.1,5.226-4.216,10.5-6.407,15.8-3.438,8.31-7.077,16.784-10.929,25.759-28.957,67.458-65,151.407-27.653,209.392,7.6,11.808,17.871,21.74,27.8,31.347,9.078,8.779,18.465,17.859,25.7,28.288,16.156,23.285,20.853,48.877,15.235,82.983-2.763,16.76-7.5,33.656-12.52,51.546-11.677,41.634-23.756,84.687-8.6,124.6a108.735,108.735,0,0,0,6.638,14.3c9.291,16.874,22.336,31.216,34.949,45.088,7.277,8,14.8,16.276,21.571,24.986,30.627,39.414,31.468,76.716,32.359,116.211.346,15.117.7,30.746,2.807,46.664a188.639,188.639,0,0,0,6.032,28.735c10.017,33.548,34.148,63.273,71.7,88.323,37.388,24.943,78.956,39.235,107.241,46.835,23.127,6.209,47.224,11.179,70.524,15.987,58.153,11.994,118.282,24.4,168.336,57.141,44.063,28.807,78.05,70.74,110.932,111.288,27.083,33.4,55.086,67.935,88.493,94.809.14.111.275.219.406.326a306.67,306.67,0,0,0,50.687,32.927c60.294,31.407,127.992,40.972,199.669,51.1,15.035,2.126,30.587,4.321,45.893,6.717,10.636,1.666,21.411,3.542,31.832,5.355,38.483,6.7,78.276,13.632,117.414,10.806,86.969-6.273,174.876-46.767,261.281-120.354,6.578-5.611,13.347-11.535,19.9-17.265,46.189-40.429,93.952-82.237,150.265-84.243,21.544-.845,41.627,4.2,61.049,9.083,10.985,2.763,22.344,5.618,33.8,7.354,4.951.739,9.553,1.22,14.065,1.478,51.632,3.1,109.765-24.016,172.785-80.595,10.334-9.274,20.708-19.017,30.745-28.441,38.135-35.818,77.574-72.855,124.587-93.529,6.473-2.855,13.2-5.445,19.7-7.948,13.537-5.214,27.538-10.607,40.214-18.727,23.668-15.144,40.969-38.7,57.7-61.487l.238-.323q7.767-10.575,15.589-21.107C2492,2959.8,2551,2885.336,2608.052,2813.324c54.43-68.7,105.2-128,175.417-157.813,12.381-5.258,25.272-9.6,37.736-13.8,20.42-6.88,41.536-13.992,60.667-25.253,39.141-23.006,65.995-60.5,94.585-103.534,65.9-99.2,121.556-188.629,170.149-273.4,111.247-194.074,182.168-359.42,223.2-520.35,8.327-32.615,16.834-70.486,12.355-107.214-2.7-22.367-9.99-43.351-17.04-63.644-2.93-8.437-5.961-17.163-8.628-25.877-1.966-6.436-3.557-12.268-4.858-17.832-15.177-64.2-1.166-130.455,13.663-200.6,10.6-50.1,21.553-101.91,20.978-153.147-.953-85.015-33.558-165.473-65.089-243.28-6.594-16.27-13.413-33.1-19.755-49.541-4.75-12.31-9.347-24.792-13.791-36.863-19.759-53.643-38.42-104.309-73.141-152.574-26.428-36.547-61.038-68.058-97.154-99.789q-16.69-14.667-33.327-29.448c-29.1-25.779-59.184-52.438-89.317-77.588-9.824-8.149-19.921-16.435-30.258-24.753m-2746,1999.225.785-.508c-36.8-57.146-.981-140.587,27.8-207.635,3.856-8.983,7.5-17.463,10.938-25.786,2.188-5.3,4.312-10.583,6.417-15.816l2.028-5.049C317.374,2055.9,346.45,1918.5,374.568,1785.622c10.234-48.371,20.818-98.387,32.23-146.625q3.358-14.119,6.786-28.1c9.18-37.767,18.679-76.822,24.8-116.9,9.48-62.443,10.661-128.768,11.8-192.908.3-16.6.6-33.767,1.045-50.562,3.284-124.177,14.754-268.935,74.963-401.057,78.858-174.839,225.171-285.419,334.03-347.4,45.727-26.154,93.471-49,139.648-71.1q19.967-9.56,39.886-19.187l.379-.185c2.819-1.372,5.655-2.753,8.518-4.119,16.635-7.929,36.128-16.434,57.037-17,10.931-.3,21.852,1.56,32.411,3.363,8.674,1.481,17.642,3.011,26.617,3.353,50.672,1.938,91.764-31.645,131.5-64.125,4.9-4,9.761-7.979,14.6-11.852a607.956,607.956,0,0,1,68.741-47.418c89.018-52.894,173.3-72.262,250.512-57.566,41.718,7.871,82.517,25.249,121.976,42.052,31.726,13.513,64.535,27.488,97.537,36.379,59.532,16.031,112.013,14.045,160.441-6.072,16.014-6.667,32.151-15.562,47.759-24.162,37.979-20.932,77.247-42.574,117.71-33.7,17.478,3.773,32.084,12.378,47.55,21.486,3.461,2.04,6.934,4.087,10.457,6.086a194.556,194.556,0,0,0,21.777,10.848c53.787,22.308,106.472,6.3,162.252-10.649,21.247-6.459,43.222-13.134,65.078-17.409,22.673-4.408,43.214-5.753,62.8-4.1,30.936,2.659,61.712,13.3,91.474,23.583l.358.123q6.583,2.266,13.118,4.493,6.431,2.183,12.772,4.323c29.092,9.834,56.577,19.121,83.664,30.687,91.412,39.105,176.011,104.351,246.705,163.026,30.113,25.13,60.188,51.78,89.272,77.551q16.656,14.754,33.337,29.45c36.034,31.66,70.556,63.092,96.871,99.478,34.57,48.057,53.188,98.608,72.9,152.126,4.448,12.078,9.047,24.565,13.8,36.89,6.351,16.458,13.17,33.292,19.769,49.573,31.466,77.644,64,157.933,64.952,242.595.573,51.03-10.364,102.735-20.937,152.739-14.88,70.355-28.928,136.81-13.653,201.418,1.31,5.6,2.909,11.475,4.891,17.949,2.674,8.749,5.711,17.493,8.647,25.946,7.019,20.2,14.276,41.088,16.949,63.255,4.441,36.4-4.023,74.076-12.308,106.526C3327,1879.485,3256.143,2044.681,3144.981,2238.6c-48.571,84.742-104.207,174.141-170.085,273.3-28.461,42.837-55.177,80.154-93.973,102.956-18.965,11.163-39.986,18.244-60.314,25.094-12.5,4.212-25.422,8.566-37.871,13.851-70.623,29.988-121.561,89.465-176.152,158.373-57.06,72.024-116.067,146.5-173.421,223.73q-7.83,10.531-15.6,21.115l-.24.323c-16.627,22.648-33.823,46.062-57.2,61.018-12.521,8.019-26.425,13.376-39.878,18.557-6.524,2.511-13.268,5.11-19.781,7.981-47.309,20.8-86.865,57.953-125.12,93.879-10.024,9.416-20.392,19.152-30.713,28.412-62.627,56.231-120.3,83.185-171.421,80.118-4.456-.252-9-.73-13.9-1.459-11.361-1.724-22.677-4.568-33.621-7.317-19.548-4.916-39.766-10-61.574-9.139-56.975,2.029-104.994,44.059-151.431,84.706-6.542,5.726-13.307,11.648-19.876,17.246-86.09,73.326-173.631,113.671-260.2,119.915-38.911,2.807-78.588-4.1-116.958-10.784-10.428-1.818-21.209-3.694-31.864-5.358-15.318-2.4-30.876-4.6-45.922-6.726-71.511-10.1-139.057-19.645-199.065-50.907a304.567,304.567,0,0,1-50.381-32.727l-.4-.32c-33.25-26.75-61.191-61.2-88.217-94.531-32.968-40.656-67.068-82.7-111.359-111.678-50.354-32.938-110.66-45.377-168.984-57.408-23.273-4.8-47.342-9.766-70.412-15.961-28.151-7.561-69.512-21.78-106.692-46.583-37.2-24.824-61.056-54.185-70.946-87.3a186.711,186.711,0,0,1-5.967-28.447c-2.1-15.815-2.451-31.393-2.792-46.458-.9-39.813-1.745-77.419-32.757-117.319-6.813-8.768-14.362-17.07-21.665-25.1-12.539-13.79-25.507-28.049-34.693-44.733a106.884,106.884,0,0,1-6.525-14.055c-14.938-39.336-2.944-82.086,8.654-123.429,4.81-17.15,9.782-34.885,12.564-51.75,5.7-34.62.91-60.636-15.543-84.355-7.34-10.576-16.793-19.722-25.936-28.564-9.855-9.532-20.041-19.389-27.531-31.017Z" fill="#fff"/>
      <path id="Path_60175" data-name="Path 60175" d="M2725.076,431.056c-31.135-25.047-68.285-44.958-108.35-46.021-30.025-.772-56.123,8.431-83.756,18.178-15.033,5.3-30.575,10.784-46.705,14.444a257.9,257.9,0,0,1-47.79,6.04c-24.128.924-48.536-.718-74.376-2.455-6.072-.408-12.162-.816-18.269-1.191-57.185-3.525-118.3-4.924-177.756,8.56-28.974,6.667-56.452,16.36-83.027,25.736-10.89,3.842-21.18,7.471-31.608,10.921l-4.747,1.572c-24.661,8.154-47.951,15.858-73.078,25.5-8.583,3.292-17.474,6.977-27.179,11.258q-5.909,2.627-11.929,5.326c-38.268,17.134-81.642,36.555-123.833,42.622-34.65,5.018-67.178,1.023-96.68-11.88-36.072-15.894-66.572-44.755-96.07-72.658-40.259-38.094-81.892-77.482-137.274-82.3-30.658-2.663-62.924,4.654-101.542,23.027-39.376,18.71-79.01,44.927-124.727,82.506q-5.1,4.194-10.22,8.445c-28.54,23.654-58.053,48.115-90.8,61.208-8.023,3.24-15.9,5.753-24.247,8.419-5.1,1.624-10.361,3.3-15.643,5.16-10.045,3.508-20.214,7.8-30.048,11.962q-4.077,1.723-8.168,3.438-5.069,2.118-10.128,4.143c-39.133,15.579-80.479,25.944-120.463,35.97-39.066,9.8-79.464,19.925-117.514,34.876-43.051,16.953-82.519,42.445-111.134,71.787-33.363,34.208-51.88,73.391-53.549,113.308-1.022,24.488,4.962,50.06,10.75,74.79,9.7,41.429,18.858,80.564-3.479,112.875-14.534,21-37.565,30.725-59.838,40.13-21.1,8.912-42.916,18.125-57.912,36.871-29.869,37.236-17.863,93.071-7.273,142.334,1.268,5.885,2.515,11.7,3.683,17.416,15.4,75.369,11.531,153.713,8.112,222.837-2.018,40.923-4.331,84.9-7.546,129.145-13.047,179.473-38.273,312.046-81.79,429.862-12.77,34.585-27.368,67.575-41.485,99.478-8.439,19.075-16.41,37.088-24,55.375-33.2,80.089-63.486,174.438-2.207,280.8,5.2,9.032,11.24,17.684,17.076,26.05,5.081,7.279,10.332,14.8,15.031,22.573,18.848,31.158,29.059,63.442,38.937,94.66,8.583,27.127,17.457,55.176,31.987,82.835,6.18,11.758,13.134,23.01,19.858,33.891,7.054,11.413,14.348,23.219,20.574,35.366a200.044,200.044,0,0,1,12.283,29.466c5.838,18,8.52,36.692,11.115,54.772,2.7,18.817,5.493,38.275,11.835,57.179a139.408,139.408,0,0,0,12.22,26.608c20.639,34.656,56.762,61.772,110.441,82.894,19.541,7.692,40.321,14.317,60.419,20.724,37.638,12,76.553,24.405,110.156,44.556,56.025,33.419,97.479,86.009,137.57,136.868,13.605,17.261,27.672,35.108,42.112,51.959,5.178,6.042,10.351,11.887,15.367,17.369,34.854,38.1,73.842,68.772,112.74,88.722,46.031,23.6,91.445,32.4,134.99,26.127,77.934-11.257,136.56-67.725,193.254-122.335,12.714-12.243,25.859-24.907,38.989-36.825,28.765-26.107,63.952-54.562,106.833-67.65,23.044-7.1,48.211-9.511,69.993-11.208l2.209-.181c22.317-1.8,43.4-3.508,62.778-10.35,14.6-5.151,28.973-13.222,42.87-21.028l.57-.319c23.277-13.074,47.345-26.592,74.332-21.215,8.079,1.586,15.648,4.839,22.969,7.987,10.688,4.6,21.742,9.345,34.112,8.62,17.009-.954,31.6-12.312,45.077-23.862q15.152-12.975,30.246-26.1c37.525-32.513,76.327-66.132,116.469-95.323,5.506-4.022,11.04-7.97,16.57-11.92,11.752-8.385,23.9-17.055,35.558-26.312,21.54-17.095,41.61-36.515,61.018-55.3l59.256-57.343c51.276-49.625,104.3-100.938,155.085-152.829q20.442-20.886,40.89-42.011c39.859-41.072,81.074-83.54,122.1-122.654,27.4-26.121,56.427-54.187,83.716-84.825,33.051-37.049,63.1-78.952,92.153-119.479l4.858-6.772c88.117-122.787,176.731-240.625,291.68-332.7,62.9-50.39,86.514-92.761,72.206-129.541-8-20.546-25.022-32.165-41.5-43.41-7.623-5.2-15.506-10.586-22.46-16.8-29.9-26.714-47.365-74.981-46.718-129.116.47-42.326,10.658-84.647,20.512-125.578q2.385-9.894,4.722-19.77c9.888-42.256,15.973-77.018,19.149-109.394,3.665-37.294,4.308-73.074,4.989-110.953q.17-9.531.36-19.123c.727-37.894,2.284-76.824,3.792-114.472,3.778-94.4,7.681-192.011-.606-287.872-3.252-37.6-10.326-85.8-36.38-125.025-29.333-44.067-76.67-70.428-122.444-95.922-24.474-13.628-49.779-27.722-72.4-44.463-37.219-27.574-66.85-64.633-95.478-100.488q-6.364-7.969-12.758-15.914c-7.65-9.476-14-17.117-19.993-24.057a388.563,388.563,0,0,0-49.693-48.61m-1061.17,77.928c16.051,12.914,32.956,24.311,51.334,32.407,29.832,13.045,62.7,17.088,97.7,12.018,42.451-6.1,85.952-25.58,124.333-42.762q6.015-2.7,11.92-5.324c9.676-4.271,18.54-7.942,27.091-11.225,25.086-9.628,48.356-17.324,73-25.471l4.747-1.57c10.444-3.456,20.743-7.09,31.641-10.936,26.527-9.357,53.954-19.034,82.823-25.675,59.225-13.432,120.177-12.031,177.221-8.516,6.1.375,12.194.785,18.259,1.193,25.892,1.739,50.347,3.383,74.575,2.455a259.954,259.954,0,0,0,48.133-6.084c16.233-3.686,31.831-9.187,46.914-14.5,27.462-9.688,53.4-18.835,83.081-18.071,63.9,1.693,120.469,52.044,156.676,93.981,5.976,6.921,12.316,14.552,19.954,24.009q6.4,7.928,12.749,15.908c28.7,35.949,58.378,73.139,95.83,100.825,22.719,16.812,48.082,30.935,72.6,44.592,47.674,26.552,92.709,51.636,121.8,95.32,25.817,38.878,32.84,86.768,36.072,124.152,8.28,95.743,4.375,193.3.6,287.635-1.506,37.656-3.065,76.6-3.794,114.511q-.193,9.6-.358,19.123c-.68,37.842-1.321,73.585-4.979,110.8-3.167,32.294-9.241,66.979-19.109,109.15q-2.322,9.873-4.721,19.762c-9.876,41.029-20.091,83.458-20.566,125.995-.651,54.666,17.048,103.466,47.348,130.532,7.033,6.3,14.975,11.719,22.652,16.955,16.986,11.585,33.019,22.533,40.8,42.539,13.974,35.916-9.455,77.588-71.629,127.4-115.136,92.224-203.835,210.173-292.03,333.068l-4.862,6.773c-29.029,40.486-59.042,82.348-92.029,119.324-27.243,30.589-56.241,58.621-83.61,84.717-41.055,39.139-82.284,81.621-122.154,122.7q-20.45,21.073-40.885,42.006c-50.77,51.874-103.781,103.177-155.045,152.793l-59.258,57.345c-19.378,18.748-39.415,38.137-60.878,55.173-11.623,9.226-23.753,17.884-35.484,26.256-5.539,3.952-11.076,7.9-16.584,11.929-40.2,29.238-79.04,62.882-116.593,95.42q-15.109,13.086-30.24,26.094c-13.238,11.341-27.537,22.494-43.965,23.416-11.931.7-22.292-3.756-33.265-8.47-7.411-3.187-15.075-6.479-23.343-8.106-27.664-5.511-52.04,8.179-75.614,21.417l-.569.323c-14.465,8.123-28.126,15.8-42.581,20.9-19.15,6.759-40.111,8.454-62.3,10.25l-2.207.177c-21.88,1.708-47.168,4.126-70.394,11.287-43.234,13.2-78.625,41.806-107.543,68.052-13.151,11.939-26.306,24.611-39.028,36.867-56.481,54.4-114.885,110.656-192.223,121.829-43.151,6.211-88.189-2.517-133.866-25.942-38.7-19.846-77.507-50.387-112.213-88.32-5.006-5.466-10.159-11.3-15.325-17.322-14.415-16.824-28.472-34.656-42.062-51.9-40.2-50.99-81.75-103.72-138.08-137.315-33.79-20.262-72.812-32.7-110.549-44.737-20.068-6.4-40.817-13.011-60.3-20.679-53.279-20.967-89.1-47.826-109.516-82.109a137.611,137.611,0,0,1-12.058-26.25c-6.288-18.74-9.066-38.11-11.754-56.848-2.607-18.154-5.3-36.929-11.185-55.082a202.177,202.177,0,0,0-12.4-29.736c-6.261-12.216-13.576-24.053-20.649-35.5-6.707-10.857-13.645-22.08-19.793-33.78-14.452-27.512-23.3-55.479-31.86-82.529-9.909-31.324-20.158-63.715-39.12-95.062-4.731-7.821-10-15.375-15.1-22.677-5.818-8.333-11.831-16.951-16.993-25.911l-.812.467.812-.467c-60.852-105.627-30.712-199.475,2.315-279.152,7.581-18.267,15.55-36.27,23.983-55.333,14.13-31.933,28.74-64.951,41.531-99.593,43.58-117.986,68.839-250.718,81.9-430.371,3.219-44.271,5.53-88.255,7.55-129.192,3.423-69.234,7.3-147.7-8.148-223.3-1.168-5.719-2.419-11.543-3.687-17.433-10.5-48.854-22.409-104.228,6.9-140.768,14.7-18.377,36.292-27.5,57.177-36.315,22.521-9.511,45.806-19.345,60.65-40.79,22.81-33,13.559-72.524,3.762-114.373-5.759-24.606-11.714-50.049-10.7-74.283,1.649-39.451,19.983-78.2,53.019-112.078,28.432-29.154,67.667-54.5,110.476-71.35,37.939-14.911,78.275-25.021,117.285-34.8,40.042-10.041,81.449-20.422,120.7-36.045q5.076-2.025,10.159-4.156,4.095-1.71,8.177-3.443c9.8-4.142,19.947-8.43,29.938-11.918,5.258-1.848,10.513-3.524,15.591-5.146,8.379-2.671,16.291-5.2,24.376-8.462,33.015-13.2,62.644-37.757,91.3-61.5q5.114-4.242,10.211-8.442c45.6-37.479,85.109-63.617,124.344-82.26,38.3-18.224,70.261-25.483,100.574-22.849,54.734,4.755,94.286,42.173,136.15,81.785,14.648,13.863,29.551,27.963,45.269,40.607" fill="#fff"/>
      <path id="Path_60176" data-name="Path 60176" d="M2760.077,590.627c-12.356-9.94-24.84-19.681-37.448-29-5.174-3.817-10.4-7.558-15.526-11.123-56.721-39.551-106.86-60.55-153.28-64.2-33.444-2.619-63.687,3.057-95.705,9.066-13.132,2.465-26.71,5.016-40.461,6.921-37.331,5.058-76.865,5.628-115.1,6.182-62.571.9-127.277,1.839-184.411,22.432-3.983,1.434-8.014,3.007-12.32,4.81-27.408,11.4-53.3,27.42-78.33,42.91-20.6,12.749-41.906,25.931-64.329,36.784a411.543,411.543,0,0,1-69.978,26.156c-9.622,2.669-19.723,5.1-30.019,7.207-78.294,16.247-146.663,10.665-203.211-16.595a268.894,268.894,0,0,1-25.371-14.034c-22.311-13.913-43.582-31.149-64.175-47.819-48.032-38.887-93.39-75.638-151.814-74.915-29.942.366-60.2,11.046-92.518,32.647-38.646,25.742-72.587,60.93-105.406,94.958-20.53,21.282-41.756,43.289-63.8,62.6a451.858,451.858,0,0,1-84.7,58.953c-40.9,21.811-85.617,37-128.86,51.7-32.534,11.057-66.178,22.488-98.006,36.667-41.633,18.675-77.807,42.308-104.615,68.344-32.417,31.478-51.524,66.313-56.792,103.536-2.984,21.1.042,43.247,2.967,64.662,4.354,31.843,8.466,61.92-5.749,88.28-9.57,17.607-24.218,28.241-38.385,38.524-13.713,9.955-27.891,20.249-37.419,36.817-18.631,32.4-10.034,75.454-1.72,117.085.926,4.643,1.847,9.247,2.717,13.786,10.436,54.512,11.042,110.689,10.259,158.452q-.183,11.351-.471,22.673c-3.4,140.816-13.628,305.087-63.646,455.79-7.073,21.246-14.311,41.868-21.309,61.811-34.443,98.154-64.189,182.917-58.907,290.071,3.077,62.457,19.133,112.038,57.256,176.84q3.988,6.729,8.029,13.476c29.569,49.512,60.146,100.7,67.731,156.83.385,2.844.718,5.776.987,8.716,1.243,13.576,1.108,27.326.974,40.625-.189,19.421-.387,39.5,3.729,59.2a139.964,139.964,0,0,0,12.427,35.1c19.312,37.52,56.1,69.416,109.329,94.8,20.2,9.645,41.614,18.156,62.324,26.385,36.128,14.354,73.484,29.2,105.883,50.627,43.886,29.128,78.234,70.333,111.451,110.176,19.875,23.834,40.422,48.483,62.89,70.446a431.24,431.24,0,0,0,68.62,54.641c92.693,59.144,209.357,74.786,312.077,41.84,69.378-22.25,125.239-73.522,179.261-123.1,38.722-35.541,78.76-72.287,122.851-97.1,11.377-6.453,23.122-12.178,34.479-17.713,4.343-2.116,8.676-4.225,12.984-6.374,18.825-9.3,38.68-20.026,56.35-35.455,9.178-8.017,18.19-17.428,26.9-26.533,19.787-20.672,40.25-42.048,63-47.006,6.5-1.418,12.724-1.612,18.746-1.8,8.21-.258,16.7-.522,26.156-3.823,10.682-3.729,20.337-11.469,27.554-17.793,2.8-2.459,5.578-5,8.329-7.528l1.511-1.385c26.14-23.928,48.246-39.076,69.57-47.674,23.218-9.359,45.212-12.755,66.48-16.039,16.5-2.547,33.554-5.18,51.351-10.557,48.377-14.611,93.225-53.774,122.751-81.961,6.232-5.941,12.97-12.541,20.6-20.168,91.749-91.886,180.823-182.3,261.971-278.043,71.494-84.207,135.811-174.275,210.384-283.6l6.963-10.188c44.3-64.864,86.14-126.133,134.171-181.562,31.208-35.855,58.538-74.373,47.3-113.085-5.1-17.553-15.959-29.369-26.464-40.8a203.251,203.251,0,0,1-14.225-16.655c-16.4-22.213-26.03-54.5-27.132-90.9-.185-6.25-.106-12.609.233-18.9,1.989-37.2,11.831-74.235,21.347-110.056l2.374-8.945c46.335-175.328,69.969-350.979,70.252-522.069.084-48.519-1.247-104.519-18.14-155.15-12.847-38.077-32.811-74.079-62.83-113.306-31.387-41.217-66.5-77.613-104.365-108.177-17.961-14.5-35.718-29.438-52.89-43.886-17.563-14.776-35.489-29.857-53.7-44.508M1579.509,580.083c17.424,14.015,35.376,27.983,54.087,39.647a270.068,270.068,0,0,0,25.546,14.132c56.929,27.443,125.7,33.077,204.406,16.745,10.338-2.12,20.479-4.556,30.14-7.238a413.292,413.292,0,0,0,70.3-26.275c22.508-10.893,43.855-24.1,64.5-36.875,24.974-15.454,50.8-31.432,78.065-42.774,4.279-1.791,8.281-3.352,12.235-4.777,56.839-20.487,121.383-21.419,183.8-22.321,38.287-.554,77.88-1.126,115.324-6.2,13.8-1.911,27.4-4.466,40.554-6.934,31.893-5.986,62.018-11.642,95.214-9.041,46.079,3.623,95.914,24.514,152.355,63.869,5.114,3.556,10.324,7.285,15.485,11.09,31.139,23.038,61.6,48.656,91.053,73.436,17.18,14.455,34.945,29.4,52.919,43.911,37.75,30.471,72.757,66.761,104.053,107.857,29.894,39.062,49.766,74.892,62.544,112.765,16.8,50.36,18.124,106.181,18.042,154.548-.281,170.933-23.9,346.423-70.19,521.6l-2.374,8.943c-9.541,35.911-19.408,73.045-21.4,110.435-.344,6.342-.423,12.753-.233,19.054,1.107,36.784,10.873,69.443,27.493,91.962a204.613,204.613,0,0,0,14.352,16.81c10.838,11.787,21.072,22.92,26.046,40.051,10.988,37.847-16.054,75.877-46.912,111.334-48.1,55.513-89.977,116.823-134.307,181.733l-6.961,10.19c-74.544,109.277-138.825,199.3-210.269,283.443-81.1,95.7-170.148,186.074-261.865,277.934-7.621,7.617-14.35,14.2-20.572,20.139-61.356,58.574-99.014,74.579-122,81.521-17.671,5.339-34.664,7.96-51.095,10.5-21.374,3.3-43.474,6.711-66.894,16.152-21.538,8.686-43.826,23.946-70.134,48.03l-1.514,1.387c-2.742,2.515-5.505,5.05-8.3,7.5-7.09,6.216-16.56,13.813-26.935,17.436-9.185,3.208-17.528,3.468-25.6,3.719-6.1.189-12.42.387-19.087,1.838-23.312,5.083-43.974,26.669-63.956,47.542-8.687,9.072-17.667,18.456-26.785,26.417-17.505,15.287-37.236,25.946-55.95,35.189-4.3,2.145-8.631,4.254-12.97,6.37-11.385,5.548-23.154,11.281-34.579,17.765-44.275,24.915-84.4,61.739-123.2,97.353-53.872,49.441-109.577,100.571-178.566,122.7-102.193,32.778-218.269,17.211-310.5-41.633a429.2,429.2,0,0,1-68.319-54.4c-22.4-21.894-42.916-46.506-62.761-70.307-33.3-39.947-67.738-81.254-111.855-110.533-32.563-21.539-70.009-36.419-106.225-50.811-20.682-8.216-42.068-16.716-62.211-26.331-52.852-25.2-89.344-56.826-108.467-93.965a138.047,138.047,0,0,1-12.262-34.633c-4.073-19.5-3.877-39.479-3.685-58.8.129-13.345.266-27.146-.985-40.815-.271-2.965-.606-5.926-1-8.8-7.635-56.5-38.312-107.863-67.979-157.536q-4.032-6.752-8.025-13.471c-37.956-64.51-53.937-113.849-57-175.982l-.935.051.935-.051c-5.264-106.78,24.428-191.387,58.807-289.352,7-19.951,14.238-40.58,21.32-61.843,50.093-150.935,60.331-315.382,63.738-456.335q.277-11.331.473-22.687c.785-47.859.175-104.157-10.294-158.837-.868-4.543-1.789-9.151-2.719-13.8-8.248-41.292-16.774-83.991,1.507-115.784,9.328-16.222,23.343-26.4,36.9-36.236,14.334-10.407,29.159-21.168,38.931-39.149,14.507-26.9,10.355-57.268,5.961-89.425-2.911-21.288-5.92-43.3-2.969-64.146,5.557-39.284,33.777-113.668,160.313-170.433,31.749-14.142,65.352-25.559,97.844-36.6,43.313-14.719,88.1-29.937,129.139-51.819a453.592,453.592,0,0,0,85.057-59.2c22.1-19.36,43.355-41.4,63.91-62.707,32.753-33.956,66.619-69.07,105.1-94.7,32-21.392,61.934-31.968,91.5-32.334,57.749-.712,102.845,35.793,150.61,74.5q5.11,4.135,10.278,8.3" fill="#fff"/>
      <path id="Path_60177" data-name="Path 60177" d="M2863.789,764.861q-3.4-2.73-6.855-5.3a392.514,392.514,0,0,0-67.8-39.841c-36.371-16.97-75.668-30.219-110.339-41.906l-.732-.248c-35.506-11.977-72.22-24.359-108.609-35.083-68.064-20.024-125.241-31.553-179.947-36.275-108.234-9.5-207.552,11.11-279.654,58.039-16.562,10.79-32.295,23.291-47.509,35.38l-.545.437c-28.18,22.4-57.318,45.568-92.757,58.095-27.3,9.637-59.633,13.482-101.756,12.1-74.8-2.426-151.437-19.41-221.631-49.119-16.82-7.127-33.983-15.185-50.58-22.979-57.958-27.216-117.889-55.363-179.565-52.213-89.434,4.566-143.375,64.889-200.483,128.752-13.563,15.168-27.587,30.852-42.054,45.641-3.49,3.567-7.615,7.754-11.748,11.758-58.7,56.785-135.127,98.76-209.041,139.352-35.149,19.3-71.494,39.266-105.254,60.475-55.143,34.716-122.53,84.37-154.423,160.844-13.638,32.7-21.442,70.269-23.86,114.847-3.2,59.8,3.275,123.007,9.532,184.131,2.9,28.3,5.895,57.562,7.869,85.969A1175.659,1175.659,0,0,1,670.8,1865.7c-16.97,94.706-46.741,185.156-88.489,268.835l.839.418-.839-.418c-38.408,76.984-29.3,132.1,4.048,219.458,3.506,9.189,7.217,18.612,10.8,27.726,14.123,35.88,28.728,72.983,37.51,111.457a440.548,440.548,0,0,1,8.391,50.624c1.024,9.137,1.682,17.166,2.009,24.549.933,21.53-.82,41.964-2.676,63.6-.493,5.749-.989,11.523-1.435,17.34-.866,11.733-1.67,24.237-1.168,36.771a169.886,169.886,0,0,0,15.808,65.749c15.246,32.492,41.456,60.856,71.925,77.817a205.793,205.793,0,0,0,34.175,15.027c8.32,2.851,16.855,5.4,25.107,7.871,18.3,5.47,37.215,11.127,54.614,20.312,5.961,3.121,11.65,6.5,17.153,9.776,2.438,1.451,4.881,2.9,7.363,4.348,9.724,5.628,20.1,11.044,30.135,16.282,19.849,10.361,40.376,21.074,58.595,34.692,41.056,30.718,71.5,72.57,100.927,113.058,24.434,33.611,49.7,68.37,80.8,96.267,39.114,34.9,85.875,58.218,138.959,69.322,91.316,19.161,205.709-1,306-53.935,50.583-26.592,100.73-62,153.311-108.244a1139.745,1139.745,0,0,0,144.607-153.009c19.1-24.4,37.494-50,55.284-74.754,32.2-44.8,65.493-91.127,104.061-131.884,18.894-19.962,44.559-43.091,75.594-44.788a73.9,73.9,0,0,1,8.356-.008c19.656,1.021,37.162,9.284,55.7,18.034,16.272,7.683,33.1,15.627,51.551,18.23,27.481,3.873,55.623-4.381,86.042-25.228,21.332-14.6,40.692-33.173,55.174-47.721q8.573-8.656,17.146-17.3,17.621-17.765,35.2-35.614c64.039-65.139,126.438-132.406,186.78-197.459,57.651-62.18,117.266-126.474,155.36-204.493,1.826-3.738,3.64-7.583,5.387-11.433,31.572-69.524,45.608-148.274,57.991-217.751l1.183-6.636c9.688-54.426,19.706-110.7,33.25-164.755,15.481-61.8,36.22-123.157,56.277-182.493,31.563-93.378,64.2-189.937,77.02-290.319,15.075-118.259,2.583-244.677-36.122-365.585-2.926-9.139-5.947-18.042-8.981-26.458-18.827-52.448-49.812-97.6-87.743-128.114M706.016,2812.822a176.755,176.755,0,0,1-48.713-61.814,168.032,168.032,0,0,1-15.631-65.029c-.5-12.433.3-24.876,1.166-36.555.444-5.809.937-11.577,1.43-17.32,1.863-21.7,3.623-42.189,2.682-63.842-.329-7.425-.991-15.5-2.018-24.672a442.28,442.28,0,0,0-8.429-50.836c-8.814-38.61-23.443-75.779-37.592-111.724-3.586-9.109-7.294-18.529-10.8-27.712-33.146-86.831-42.218-141.592-4.123-217.95,41.829-83.839,71.656-174.458,88.655-269.343a1177.425,1177.425,0,0,0,15.271-288.434c-1.978-28.44-4.974-57.716-7.873-86.029-6.251-61.054-12.714-124.187-9.528-183.842,2.407-44.359,10.165-81.721,23.72-114.222,31.687-76,98.781-125.418,153.7-159.982,33.71-21.182,70.032-41.129,105.156-60.421,74.021-40.651,150.565-82.687,209.442-139.645,4.15-4.021,8.285-8.218,11.783-11.791,14.5-14.823,28.534-30.523,42.112-45.706,56.841-63.565,110.528-123.6,199.181-128.129,61.21-3.126,120.925,24.917,178.672,52.038,16.614,7.8,33.792,15.868,50.647,23.008,70.4,29.8,147.277,46.833,222.3,49.265,42.362,1.391,74.913-2.49,102.441-12.208,35.734-12.63,65-35.9,93.3-58.4l.55-.435c15.179-12.06,30.874-24.537,47.363-35.279,71.752-46.7,170.649-67.2,278.469-57.741,54.578,4.716,111.641,16.22,179.582,36.207,36.351,10.715,73.047,23.091,108.536,35.061l.735.248c34.622,11.67,73.865,24.9,110.143,41.829a390.817,390.817,0,0,1,67.473,39.644c40.744,30.246,74.124,77.313,93.95,132.544,3.027,8.4,6.04,17.278,8.96,26.4,38.623,120.646,51.086,246.784,36.046,364.775-12.8,100.2-45.4,196.664-76.934,289.956-20.068,59.372-40.821,120.765-56.321,182.638-13.561,54.112-23.583,110.423-33.277,164.88l-1.181,6.636c-12.365,69.37-26.379,148-57.853,217.3-1.743,3.833-3.546,7.665-5.366,11.385-37.971,77.769-97.492,141.961-155.052,204.041-60.331,65.043-122.717,132.3-186.74,197.419q-17.562,17.894-35.2,35.608-8.574,8.644-17.145,17.3c-14.423,14.486-33.7,32.98-54.905,47.495-30.015,20.57-57.726,28.721-84.722,24.915-18.167-2.561-34.866-10.444-51.011-18.067-17.884-8.441-36.376-17.172-56.4-18.211a75.645,75.645,0,0,0-8.558.009c-31.693,1.734-57.718,25.157-76.851,45.373-38.656,40.848-71.987,87.225-104.219,132.077-17.78,24.739-36.165,50.32-55.24,74.69a1138.059,1138.059,0,0,1-144.368,152.759c-52.467,46.147-102.5,81.469-152.947,107.992-99.92,52.737-213.84,72.833-304.742,53.76-52.758-11.036-99.214-34.2-138.094-68.885-30.95-27.762-56.157-62.44-80.533-95.974-29.515-40.6-60.062-82.606-101.315-113.445-18.342-13.709-38.935-24.459-58.851-34.854-10.017-5.229-20.372-10.636-30.06-16.241-2.476-1.439-4.914-2.888-7.346-4.335-5.522-3.287-11.233-6.684-17.238-9.825-17.559-9.27-36.567-14.955-54.949-20.452-8.235-2.463-16.751-5.007-25.038-7.845a204.106,204.106,0,0,1-33.869-14.892,160.263,160.263,0,0,1-22.429-15.164" fill="#fff"/>
      <path id="Path_60178" data-name="Path 60178" d="M2798.267,901.331a100.129,100.129,0,0,0-20.2-12.587c-23.68-11.119-49.618-12.537-73.032-3.988a320.656,320.656,0,0,1-56.484,14.617c-33.473,5.678-68.131,7.475-101.65,9.209-21.806,1.129-44.356,2.3-66.536,4.523a669.412,669.412,0,0,0-161.423,36.771c-32.582,11.633-64.877,26-96.107,39.892-35.788,15.92-72.8,32.384-110.48,44.846-119.911,39.818-260.279,46.527-429.125,20.505-22.969-3.519-41.827-6.838-59.355-10.44-62.168-12.779-110.787-21.574-161-25.936-41.119-3.567-77.674-3.3-115.043.85-26.841,2.98-54.2,5.3-80.657,7.535l-13.736,1.154c-65.218,5.372-132.658,10.927-197.358,25.138-14.64,3.232-29.263,6.923-43.4,10.494l-3.941.993c-8.414,2.134-17.522,4.512-27.073,7.067-58.829,15.629-117.8,35.275-136.153,87.755-9.449,27.012-5.518,57.127-.431,83.021,15,76.3,38.327,156.609,60.885,234.274,14.142,48.7,27.5,94.7,38.691,138.982q1.215,4.8,2.446,9.59c1.133,4.422,2.266,8.841,3.367,13.264,16.481,66.026,31.208,136.912,27.4,207.894-5,95.226-43.351,183.459-80.437,268.788-25.7,59.147-52.288,120.306-67.446,183.153-4.787,19.931-8.768,41.425-5.507,63.538a135.5,135.5,0,0,0,6.184,24.441c4.152,12.091,9.586,23.935,14.842,35.385,9.682,21.1,18.829,41.034,21.072,63.044,1.441,14.134.006,28.665-4.514,45.729-3.465,13.086-8.383,26.362-13.137,39.2-4.993,13.476-10.153,27.41-13.719,41.306-5.976,23.423-4.6,50.045,3.673,71.219,8.443,21.784,23.81,37.315,43.282,43.718,16.308,5.364,33.123,4.2,47.422,2.349,5.591-.725,11.1-1.61,16.433-2.468,10.607-1.705,20.628-3.317,30.973-3.713,15.3-.586,31.16.654,43.68,13.6,4.962,5.122,8.071,11.016,11.358,17.259,1.884,3.576,3.835,7.274,6.159,10.8a78.508,78.508,0,0,0,9.724,11.845c11.829,11.956,27.087,21.836,41.841,31.385,15.864,10.267,32.263,20.882,44.746,34.219,28.722,30.7,33.419,72.037,38.391,115.806.8,7.028,1.624,14.3,2.551,21.442,4.772,36.818,12.741,74.813,38.527,103.274a109.143,109.143,0,0,0,30.594,23.5c41.167,21.384,97.286,19.818,142.967-3.991,52.742-27.735,90.471-75.6,126.955-121.891l4.887-6.194c95.089-120.358,185.768-218.856,277.215-301.123,36.357-32.882,74.307-64.593,110.062-94.258,29.79-24.582,56.808-46.668,85.784-67.977,32.636-23.974,58.94-40.578,85.29-53.835,29.006-14.579,60.019-25.8,90.011-36.659,14.469-5.239,29.436-10.657,44.03-16.4,11.668-4.589,23.639-9.586,36.592-15.275a1269.333,1269.333,0,0,0,200.4-110.1c27.758-18.771,55.786-40.226,88.211-67.521,38.439-32.178,77.57-68.383,103.372-114.98,21.255-38.152,33.711-82.807,39.2-140.531,1.352-14.192,2.237-28.613,3.09-42.558.693-11.31,1.409-23,2.37-34.385.425-4.985.891-9.857,1.386-14.484,12.191-115.455,56.189-225.353,98.737-331.629,36.822-91.972,74.9-187.074,92.73-286.152,7.506-41.719,8.654-81.576,3.231-112.236-5.757-48-23.5-102.656-41.169-154.519-4.493-13.276-9.229-26.635-13.673-39.1-5.26-14.742-15.058-28.06-27.972-38.452m-1935,1812.543c-9.724-7.823-17.494-18.712-22.638-32-8.139-20.824-9.486-47.018-3.606-70.072,3.544-13.8,8.689-27.691,13.663-41.123,4.768-12.88,9.7-26.2,13.191-39.37,4.581-17.29,6.032-32.034,4.568-46.4-2.276-22.319-11.914-43.32-21.236-63.633-5.235-11.411-10.648-23.21-14.769-35.214a133.828,133.828,0,0,1-6.1-24.1c-3.213-21.8.733-43.076,5.476-62.824,15.121-62.688,41.669-123.771,67.342-182.845,37.15-85.482,75.566-173.875,80.591-269.437,3.823-71.227-10.936-142.277-27.451-208.447-1.1-4.427-2.234-8.849-3.369-13.272q-1.227-4.8-2.444-9.589c-11.2-44.317-24.559-90.329-38.708-139.042-22.548-77.628-45.862-157.9-60.843-234.116-5.043-25.648-8.943-55.45.356-82.04,18.055-51.613,76.524-71.063,134.861-86.56,9.545-2.555,18.644-4.931,27.05-7.063l3.942-.993c14.125-3.567,28.732-7.254,43.345-10.48,64.579-14.184,131.954-19.734,197.11-25.1l13.738-1.154c26.471-2.24,53.843-4.558,80.709-7.539,37.242-4.133,73.68-4.4,114.674-.845,50.124,4.352,98.683,13.139,160.786,25.9,17.559,3.609,36.449,6.932,59.446,10.457,169.146,26.065,309.8,19.333,430-20.578,37.769-12.493,74.821-28.976,110.653-44.915,31.2-13.878,63.461-28.23,95.976-39.841a667.638,667.638,0,0,1,160.98-36.673c22.136-2.218,44.661-3.384,66.444-4.512,33.571-1.739,68.285-3.536,101.866-9.234a322.614,322.614,0,0,0,56.813-14.7c22.944-8.376,48.369-6.982,71.6,3.925,22.427,10.531,39.632,28.744,47.2,49.972,4.443,12.45,9.174,25.8,13.665,39.068,17.642,51.767,35.345,106.316,41.09,154.19,5.393,30.5,4.244,70.124-3.225,111.628-17.8,98.893-55.838,193.905-92.624,285.79-42.6,106.4-86.642,216.414-98.86,332.127-.5,4.637-.964,9.526-1.391,14.523-.96,11.406-1.678,23.11-2.372,34.427-.852,13.93-1.737,28.336-3.086,42.5-5.461,57.458-17.846,101.879-38.972,139.8-25.654,46.33-64.635,82.388-102.937,114.453-32.378,27.254-60.358,48.671-88.055,67.4a1267.192,1267.192,0,0,1-200.108,109.939c-12.932,5.68-24.88,10.667-36.526,15.25-14.571,5.726-29.521,11.14-43.982,16.374-30.042,10.875-61.108,22.121-90.213,36.748-26.448,13.3-52.836,29.958-85.559,54-29.018,21.336-56.055,43.438-85.869,68.041-35.772,29.68-73.738,61.406-110.12,94.308-91.526,82.338-182.276,180.913-277.434,301.354l-4.885,6.2c-36.365,46.135-73.967,93.846-126.355,121.391-45.152,23.531-100.588,25.1-141.23,3.987a107.129,107.129,0,0,1-30.073-23.091c-25.436-28.08-33.321-65.739-38.054-102.256-.925-7.131-1.751-14.392-2.549-21.411-5.008-44.088-9.738-85.732-38.885-116.875l-.685.639.685-.639c-12.637-13.505-29.138-24.187-45.094-34.512-14.677-9.5-29.848-19.314-41.529-31.131a76.58,76.58,0,0,1-9.493-11.56c-2.276-3.45-4.2-7.108-6.063-10.644-3.207-6.084-6.521-12.372-11.671-17.686-13.014-13.484-29.367-14.775-45.1-14.173-10.461.4-20.534,2.022-31.2,3.736-5.316.855-10.813,1.738-16.376,2.461-14.088,1.822-30.642,2.975-46.6-2.27a61.8,61.8,0,0,1-19.483-10.624" fill="#fff"/>
      <path id="Path_60179" data-name="Path 60179" d="M2636.49,1108.182a38.745,38.745,0,0,0-16.345-7.6l-.625-.133-.354.529c-31.335,47.007-93.8,73.243-185.666,77.981-14.14.729-28.688,1.127-42.754,1.507-56.808,1.543-115.548,3.138-166.267,26.875-17.519,8.2-34.115,19.092-50.167,29.621-28.022,18.383-57,37.4-90.974,41.806-18.328,2.38-37.4.335-55.842-1.641-19.064-2.043-38.781-4.156-57.8-1.42-27.358,3.931-51.674,17.586-75.192,30.789-22.76,12.778-46.3,25.992-72.487,30.294-49.068,8.058-97.24-15.716-143.824-38.706-44.377-21.9-90.262-44.546-137.714-40.607-21.867,1.818-42.982,9.334-63.4,16.6-27.237,9.7-55.4,19.723-84.709,15.581-37.157-5.247-67.273-31.539-96.4-56.956-6.992-6.1-14.225-12.416-21.394-18.288-20.266-16.6-43.224-28.961-64.46-34.664-25.53-6.854-47.857-3.858-64.566,8.666-6.19,4.639-11.414,10.517-16.468,16.2-6.494,7.306-13.207,14.86-21.884,19.57-17.653,9.578-38.225,5.911-60.007,2.032-18.554-3.3-37.739-6.723-54.99-1.176-22.966,7.381-37.767,20.582-43.988,39.23-21.138,63.368,58.778,176.322,111.662,251.068,18.979,26.829,33.971,48.017,39.268,59.857l.856-.383-.856.383c46.185,103.207,17.492,209.182-12.887,321.378-25.448,93.988-51.761,191.174-29.319,285.932,1.722,7.267,3.76,14.619,5.732,21.732,4.914,17.728,10,36.059,10.517,54.407,1.058,37.208-16.289,71.094-33.064,103.865-3.77,7.371-7.67,14.988-11.278,22.49-17.944,37.325-33.571,90.5-6.107,131.885,7.244,10.917,17.192,20.366,26.812,29.5,15.188,14.423,29.532,28.049,34.2,46.955a109.056,109.056,0,0,1,2.262,15.7c1.02,10.686,2.074,21.736,9.368,30.079,12.308,14.073,30.331,10.725,49.42,7.177,12.25-2.278,24.92-4.633,36.39-2.259,21.855,4.516,44.584,30.8,42.822,77.8-.242,6.444-.748,13.124-1.239,19.583-1.978,26.027-4.023,52.938,9.851,75.621,8.421,13.763,22.036,24.18,39.384,30.129a98.673,98.673,0,0,0,50.445,3.378c33.4-6.624,61.389-27.751,85-47.032,25.263-20.634,50.591-43.018,75.088-64.664,96.372-85.163,196.027-173.225,325.149-187.148,22.6-2.44,46.235-2.549,69.1-2.653,47.169-.216,95.949-.437,137.47-21.292,43.384-21.79,71.546-62.374,98.781-101.623,16.811-24.226,34.189-49.275,55.085-69.961,15.112-14.967,32.719-28.311,49.747-41.219,32.108-24.339,65.314-49.506,82.425-86.25,8.245-17.707,12.275-37.31,16.17-56.267,3.465-16.872,7.051-34.314,13.593-50.318,16.075-39.322,49.482-69.957,81.788-99.586,43.2-39.62,84.014-77.045,86.589-133.316,1.045-22.81-5.061-45.681-10.961-67.8-1.72-6.442-3.5-13.1-5.064-19.645-40.144-167.5,35.588-327.4,108.831-482.044,17.424-36.792,35.445-74.838,51.4-112.049,10.688-24.932,16.586-62.624,4.284-86.46a40.033,40.033,0,0,0-10.433-13.043m-16.122-5.632c11.156,2.582,19.531,9.149,24.889,19.535,12.025,23.3,6.177,60.323-4.344,84.862-15.937,37.179-33.948,75.208-51.366,111.986-73.38,154.935-149.258,315.144-108.961,483.285,1.577,6.563,3.357,13.236,5.078,19.689,5.863,21.981,11.93,44.708,10.9,67.229-2.54,55.5-43.072,92.667-85.985,132.021-32.456,29.765-66.02,60.546-82.255,100.257-6.607,16.166-10.209,33.7-13.694,50.649-3.872,18.852-7.878,38.348-16.031,55.854-16.917,36.326-49.932,61.35-81.86,85.548-17.074,12.943-34.734,26.326-49.935,41.38-21.014,20.809-38.448,45.931-55.3,70.224-27.1,39.057-55.124,79.443-98.081,101.023-41.129,20.653-89.681,20.874-136.639,21.091-22.906.1-46.593.21-69.289,2.659-129.716,13.99-229.6,102.252-326.188,187.609-24.482,21.634-49.8,44.007-75.034,64.618-23.433,19.137-51.2,40.1-84.176,46.645-30.09,5.965-69.936-3.33-87.864-32.645-13.559-22.167-11.539-48.771-9.584-74.5.491-6.476,1-13.174,1.243-19.652.983-26.2-6.848-55.78-25.515-70.8a43.842,43.842,0,0,0-18.8-8.905c-11.833-2.449-24.686-.058-37.115,2.251-18.548,3.45-36.084,6.7-47.665-6.569-6.9-7.885-7.877-18.155-8.912-29.023a110.975,110.975,0,0,0-2.309-15.971c-4.8-19.433-20.016-33.885-34.731-47.859-9.545-9.068-19.414-18.442-26.542-29.182-26.975-40.652-11.5-93.154,6.236-130.038,3.6-7.481,7.492-15.088,11.256-22.446,16.882-32.984,34.339-67.088,33.269-104.773-.527-18.575-5.641-37.021-10.586-54.855-1.966-7.1-4-14.434-5.711-21.665-22.336-94.294,3.914-191.248,29.3-285.009,29.126-107.578,59.244-218.816,12.789-322.632-5.372-12.008-20.412-33.263-39.451-60.175-52.662-74.438-132.25-186.928-111.411-249.389,6.022-18.051,20.418-30.85,42.785-38.041,16.807-5.4,35.759-2.026,54.087,1.239,21.14,3.765,43,7.661,61.228-2.23,8.966-4.866,15.791-12.543,22.392-19.972,4.989-5.616,10.153-11.423,16.191-15.948,22.889-17.155,69.839-20.711,126.715,25.948,7.148,5.853,14.365,12.156,21.349,18.252,29.329,25.6,59.66,52.075,97.367,57.4,29.767,4.2,58.151-5.9,85.6-15.673,20.31-7.231,41.308-14.7,62.932-16.5,46.93-3.9,92.58,18.629,136.726,40.417,46.851,23.121,95.3,47.03,144.962,38.872,26.512-4.352,50.195-17.649,73.1-30.506,23.369-13.12,47.532-26.685,74.542-30.571,18.783-2.7,38.379-.6,57.331,1.43,18.552,1.989,37.736,4.043,56.283,1.636,34.4-4.466,63.561-23.6,91.762-42.1,16-10.5,32.536-21.349,49.935-29.49,50.366-23.572,108.906-25.163,165.521-26.7,14.077-.383,28.636-.779,42.8-1.509,92.139-4.752,154.973-31.089,186.769-78.28" fill="#fff"/>
      <path id="Path_60180" data-name="Path 60180" d="M2446.58,1363.146l-.462.119a24.3,24.3,0,0,1-4.185.7c-6.69.571-12.514-.5-20.1-3.708-8.425-3.561-19.564-9.549-32.467-16.482q-3.87-2.081-7.9-4.237c-41.979-22.437-80.826-32.074-115.467-28.649-29.873,2.959-57.5,16.262-86.754,30.346-11.644,5.6-23.683,11.4-35.92,16.52-13.711,5.734-27.62,10.288-41.071,14.692-8.477,2.776-17.24,5.644-25.725,8.741-6.661,2.434-12.672,4.828-18.375,7.323-17.209,7.5-34.042,17.328-50.324,26.831-22.171,12.943-45.1,26.323-69.564,34.246-47.669,15.6-94.575,11.556-144.233,7.275-30.812-2.653-62.674-5.4-94.764-3.022-11.55.856-22.879,2.386-32.434,3.771-8.2,1.2-16.528,2.507-24.586,3.773-22.846,3.6-46.468,7.317-69.841,8.778-6.729.423-13.318.693-19.689.956l-.848.036c-23.828,1.041-46.331,2.024-70.411-1.705-5.153-.8-9.782-1.666-14.159-2.653-8.1-1.832-16.5-4.05-25.4-6.4-28.193-7.44-60.15-15.873-87.139-12.183a167.839,167.839,0,0,0-18.642,3.952,160.372,160.372,0,0,1-19.764,4.108c-10.888,1.362-22.444.933-33.623.514-21.005-.781-42.724-1.588-62.092,9.1-38.19,21.074-44.744,62.674-51.078,102.906-1.6,10.217-3.129,19.87-5.155,29.261-5.674,26.284-16.83,44.627-27.62,62.37-6.542,10.757-12.718,20.915-17.372,32.328-4.568,11.216-7.944,23.564-11.2,35.5-1.1,4.048-2.192,8.033-3.3,11.875-8.916,30.854-6,64.417,7.987,92.078,5.628,11.131,11.165,21.171,16.522,30.881,22.111,40.084,39.576,71.746,38.233,135.1-.05,2.309-.131,4.635-.212,6.965-.352,10-.714,20.341,1.6,29.28,3.787,14.66,12.52,23.225,20.965,31.51,9.53,9.344,18.531,18.171,21.242,35.2,1.93,12.129-.85,25.307-3.536,38.05l-.277,1.312a728.145,728.145,0,0,0-13.467,88.828c-.562,6.515-1.02,13.128-1.468,19.525-1.114,15.991-2.267,32.528-5.1,48.908-5.6,32.722-18.317,64.493-30.61,95.22-2.147,5.368-4.294,10.729-6.4,16.091-.689,1.757-1.377,3.537-2.043,5.328-4.21,11.4-9.393,28.164-5.82,42.093,2.836,11.056,10.178,19.393,21.809,24.774a70.347,70.347,0,0,0,26.06,6.219c12.352.7,26.308-1.568,38.624-3.565,8.664-1.4,16.845-2.729,23.266-2.838a101.758,101.758,0,0,1,11.327.566c3.438.3,7.331.644,12.46.8,7.945.25,17.172-1.549,26.943-3.452l3.4-.658c14.3-2.755,31.064-5.074,46.993-1.43,28.976,6.609,51.313,30.906,62.555,51.449a167.191,167.191,0,0,1,7.117,15.41c4.712,11.2,9.588,22.777,19.793,32.268,14.906,13.836,38.287,20.922,61.049,18.465,18.946-2.055,37.348-9.807,57.922-24.391,12.324-8.734,23.852-19.251,35-29.425,5.655-5.155,11.5-10.49,17.388-15.537,69.711-59.735,154.408-88.455,251.744-85.359,11.848.387,24.212,1.226,36.166,2.036,38.679,2.622,78.675,5.334,114.487-5.551,43.647-13.268,74.707-43.955,99.334-72.223,8.475-9.772,16.689-20.041,24.628-29.971l5.576-6.965c27.052-33.715,52.606-65.56,56.568-105.631,1.275-12.891.092-26.221-1.053-39.112-1.253-14.136-2.553-28.753-.685-43.084,4.733-36.246,28.624-67.76,51.728-98.239,4.454-5.88,9.066-11.96,13.428-17.938,20.768-28.232,32.9-51.53,39.322-75.537,4.512-16.87,6.294-33.906,8.018-50.383.462-4.454.929-8.91,1.445-13.367,12.743-113.467,62.441-226.92,110.506-336.641q8.022-18.309,15.987-36.6c9.945-22.916,20.587-49.829,24.155-75.675,3.367-24.388-1.031-57.152-18.642-71.456Zm-1290.638,1110.8a33.021,33.021,0,0,1-11.594-17.926c-3.442-13.422,1.639-29.815,5.761-40.977.66-1.778,1.343-3.544,2.028-5.289q3.161-8.041,6.4-16.085c12.331-30.816,25.078-62.682,30.716-95.595,2.853-16.474,4.008-33.061,5.124-49.1.448-6.386.906-12.993,1.47-19.493a726.158,726.158,0,0,1,13.432-88.6l.277-1.31c2.721-12.912,5.536-26.261,3.55-38.733-2.807-17.634-12.449-27.091-21.776-36.238-8.264-8.106-16.809-16.484-20.47-30.641-2.243-8.678-1.884-18.879-1.539-28.744.085-2.338.167-4.675.217-6.99,1.355-63.856-16.222-95.711-38.466-136.041-5.351-9.7-10.884-19.721-16.5-30.823-13.778-27.245-16.641-60.308-7.858-90.712,1.114-3.852,2.207-7.844,3.313-11.9,3.248-11.883,6.6-24.174,11.133-35.289,4.593-11.273,10.736-21.369,17.234-32.059,10.875-17.873,22.115-36.357,27.853-62.951,2.038-9.441,3.633-19.571,5.174-29.363,6.265-39.787,12.743-80.928,50.129-101.557,18.917-10.436,40.374-9.636,61.125-8.864,11.252.419,22.885.852,33.923-.531a162.134,162.134,0,0,0,19.991-4.146,166.293,166.293,0,0,1,18.434-3.914c26.621-3.64,58.387,4.741,86.409,12.137,8.914,2.351,17.334,4.573,25.463,6.411,4.416,1,9.091,1.876,14.284,2.68,24.264,3.756,46.859,2.77,70.778,1.722l.845-.033c6.382-.262,12.98-.535,19.731-.958,23.458-1.466,47.126-5.191,70.015-8.8,8.048-1.268,16.37-2.58,24.562-3.771,9.524-1.38,20.811-2.9,32.3-3.756,31.941-2.37,63.727.37,94.467,3.019,49.854,4.3,96.942,8.354,144.972-7.363,24.659-7.983,47.674-21.415,69.932-34.408,16.23-9.474,33.015-19.275,50.124-26.733,5.672-2.478,11.648-4.858,18.273-7.277,8.45-3.086,17.2-5.951,25.663-8.72,13.486-4.416,27.428-8.982,41.208-14.744,12.285-5.139,24.347-10.946,36.011-16.561,29.1-14.011,56.585-27.245,86.127-30.167,34.266-3.392,72.753,6.176,114.4,28.434q4.023,2.147,7.894,4.235c12.945,6.957,24.12,12.964,32.624,16.558,7.887,3.333,13.965,4.449,20.984,3.85a26.665,26.665,0,0,0,4.033-.633c16.749,14,20.882,45.733,17.607,69.449-3.54,25.621-14.128,52.384-24.018,75.185q-7.941,18.292-15.985,36.6c-48.121,109.848-97.877,223.435-110.651,337.18-.514,4.46-.983,8.924-1.447,13.386-1.718,16.4-3.488,33.363-7.966,50.091-6.361,23.774-18.4,46.878-39.022,74.915-4.355,5.968-8.959,12.042-13.411,17.915-23.251,30.673-47.295,62.389-52.088,99.129-1.9,14.533-.591,29.255.673,43.492,1.139,12.8,2.313,26.044,1.055,38.76-3.907,39.52-29.288,71.152-56.165,104.644l-5.578,6.965c-7.929,9.917-16.127,20.172-24.58,29.917-24.448,28.064-55.27,58.526-98.464,71.654-35.483,10.785-75.3,8.087-113.814,5.476-11.972-.81-24.35-1.651-36.232-2.04-97.818-3.109-182.944,25.761-253.021,85.809-5.914,5.068-11.771,10.413-17.433,15.579-11.1,10.132-22.59,20.609-34.814,29.28-20.3,14.392-38.43,22.034-57.041,24.053-21.9,2.369-45.283-4.694-59.571-17.974-9.911-9.216-14.711-20.605-19.346-31.62a169.261,169.261,0,0,0-7.2-15.583c-11.44-20.9-34.2-45.629-63.784-52.375-16.268-3.723-33.277-1.374-47.765,1.416l-3.4.66c-9.666,1.883-18.792,3.659-26.525,3.419-5.076-.158-8.945-.5-12.358-.8a102.856,102.856,0,0,0-11.523-.575c-6.555.11-14.8,1.447-23.533,2.863-12.22,1.982-26.071,4.229-38.218,3.544a68.622,68.622,0,0,1-25.38-6.049,44.356,44.356,0,0,1-9.187-5.615" fill="#fff"/>
      <path id="Path_60181" data-name="Path 60181" d="M2271.908,1451.276a102.038,102.038,0,0,0-38.924-19.552c-48.592-12.122-95.651,22.919-137.17,53.831q-5.219,3.885-10.344,7.675c-94.745,69.674-208.545,107.551-320.433,106.653-5.643-.046-11.431-.189-17.026-.331-26.188-.654-53.268-1.329-78.525,7.594-9.951,3.515-19.564,8.5-28.859,13.309-10.35,5.364-21.055,10.911-32.278,14.459a114.829,114.829,0,0,1-26.96,4.955c-23.643,1.58-48-3.244-71.556-7.908-42.685-8.452-83-16.437-116.883,12.058-19.743,16.6-31.4,41.106-42.676,64.8-9.335,19.62-18.987,39.907-33.226,55.94a123.729,123.729,0,0,1-16.4,15.315,146.6,146.6,0,0,1-31.6,18.652c-9.3,4.046-19.115,7.142-28.6,10.138q-3.833,1.212-7.675,2.444c-17.13,5.576-29.815,10.613-41.142,16.329a125.639,125.639,0,0,0-32.19,23.416c-14.7,14.881-24.614,32.318-27.918,49.1-3.729,18.927.829,36.782,13.176,51.638l.72-.6-.72.6c12.327,14.829,25.548,25.474,38.331,35.766,26.952,21.7,50.229,40.44,56.631,90.444.181,1.418.348,2.848.514,4.285,1.085,9.28,2.2,18.873,7.29,26.425,7.919,11.76,22.354,14.888,36.313,17.9,15.358,3.317,29.867,6.448,35.239,20.445,3.752,9.838,1,21.151-2.4,32.85-19.052,65.587-35.566,126.547-53.044,191.086l-7.871,29.036c-3.7,13.453-6.982,28.755,1.006,40.023,4,5.666,10.492,9.312,18.76,10.551a47.648,47.648,0,0,0,14.756-.252c27.755-4.677,49.19-24.8,69.92-44.257,20.02-18.794,40.723-38.229,67.019-43.57,33.711-6.879,66.082,11.35,97.388,28.978q4.347,2.45,8.649,4.852c32.078,17.825,78.5,34.312,117.483,11.637,9.034-5.278,16.924-12.522,24.555-19.529,4.312-3.958,8.772-8.052,13.378-11.735,51.134-40.934,118.705-35.235,189.268-25.111,43.378,6.211,93.513,10.792,136.46-2.328,20.813-6.346,38.073-16.089,52.762-29.79a116.221,116.221,0,0,0,14.1-15.827c20.533-27.737,29.33-65.7,22.958-99.07a256.5,256.5,0,0,0-6.622-25.276c-3.643-12.193-7.412-24.8-8.226-38.014-2.111-34.833,16.489-68.9,32.9-98.96a3912.438,3912.438,0,0,0,183.742-385.314c7.5-18.236,15.339-39.4,13.405-59.817a89.273,89.273,0,0,0-4.065-19.758,136.91,136.91,0,0,0-6.761-15.918c-3.109-6.525-6.045-12.687-7.019-18.569-1.068-6.436.144-12.354,1.316-18.076.471-2.286.956-4.651,1.285-7.006a50.6,50.6,0,0,0,.508-7.044c.014-21.517-13.031-43.736-32.72-59.575M1254.675,2113.789a27.6,27.6,0,0,1-5.657-6.128c-4.833-7.173-5.926-16.539-6.983-25.594-.169-1.443-.337-2.882-.518-4.306-6.5-50.753-31.181-70.628-57.314-91.666-12.712-10.236-25.857-20.818-38.064-35.508-17.367-20.889-23.953-59.144,14.632-98.216a123.783,123.783,0,0,1,31.7-23.06c11.237-5.672,23.845-10.673,40.877-16.218,2.555-.829,5.112-1.635,7.662-2.44,9.53-3.011,19.383-6.124,28.78-10.209a148.473,148.473,0,0,0,32.007-18.892,125.522,125.522,0,0,0,16.649-15.55c14.413-16.231,24.124-36.64,33.517-56.377,11.187-23.512,22.756-47.826,42.189-64.171,33.2-27.916,73.084-20.016,115.313-11.652,23.677,4.687,48.155,9.537,72.048,7.938a116.922,116.922,0,0,0,27.4-5.037c11.375-3.6,22.152-9.183,32.574-14.583,9.238-4.785,18.792-9.734,28.622-13.207,24.93-8.808,51.836-8.135,77.855-7.486,5.6.142,11.4.285,17.059.329,112.288.9,226.487-37.1,321.555-107.016q5.132-3.78,10.355-7.681c41.183-30.665,87.864-65.422,135.6-53.516,38.745,9.665,70.244,44.344,70.224,77.309a48.932,48.932,0,0,1-.491,6.784c-.321,2.3-.8,4.631-1.262,6.89-1.208,5.891-2.455,11.981-1.33,18.76,1.016,6.141,4.008,12.42,7.175,19.069a134.769,134.769,0,0,1,6.674,15.7,87.243,87.243,0,0,1,3.979,19.345c1.893,19.989-5.859,40.9-13.274,58.928a3910.368,3910.368,0,0,1-183.652,385.124c-16.535,30.283-35.274,64.6-33.132,99.974.828,13.426,4.629,26.142,8.306,38.439a255.253,255.253,0,0,1,6.574,25.09c6.278,32.873-2.391,70.272-22.623,97.6a114.355,114.355,0,0,1-13.872,15.567c-14.479,13.5-31.5,23.108-52.034,29.37-42.6,13.01-92.472,8.445-135.648,2.266-70.986-10.187-138.984-15.9-190.7,25.5-4.656,3.723-9.141,7.838-13.474,11.818-7.558,6.939-15.375,14.114-24.233,19.291-38.22,22.23-83.974,5.93-115.628-11.658q-4.3-2.387-8.643-4.845c-31.606-17.8-64.287-36.2-98.681-29.182-26.814,5.445-47.715,25.065-67.927,44.04-20.526,19.269-41.752,39.193-68.949,43.776a45.757,45.757,0,0,1-14.167.246c-7.752-1.16-13.8-4.539-17.509-9.78-7.512-10.6-4.312-25.4-.725-38.447l7.869-29.039c17.478-64.533,33.987-125.484,53.035-191.054,3.5-12.015,6.316-23.662,2.357-34.042-5.741-14.946-21.424-18.33-36.594-21.609-10.682-2.309-21.648-4.679-29.5-10.992" fill="#fff"/>
    </g>
  </g>
</svg>
