<?xml version="1.0" encoding="utf-8"?>
<!-- Generator: Adobe Illustrator 27.2.0, SVG Export Plug-In . SVG Version: 6.00 Build 0)  -->
<svg version="1.1" id="Layer_1" xmlns="http://www.w3.org/2000/svg" xmlns:xlink="http://www.w3.org/1999/xlink" x="0px" y="0px"
	 viewBox="0 0 96 39.4" style="enable-background:new 0 0 96 39.4;" xml:space="preserve">
<style type="text/css">
	.st0{enable-background:new    ;}
	.st1{fill:#FFFFFF;}
</style>
<g id="Group_9496" transform="translate(1)">
	<g class="st0">
		<path class="st1" d="M1.6,7h4.7c2.1,0,3.7,0.3,4.6,0.9c1,0.6,1.4,1.6,1.4,2.9c0,0.9-0.2,1.6-0.6,2.2c-0.4,0.6-1,0.9-1.7,1v0.1
			c1,0.2,1.6,0.6,2.1,1.2c0.4,0.6,0.6,1.4,0.6,2.3c0,1.4-0.5,2.4-1.5,3.2c-1,0.8-2.3,1.1-4,1.1H1.6V7z M4.8,12.9h1.8
			c0.9,0,1.5-0.1,1.9-0.4s0.6-0.7,0.6-1.3s-0.2-1-0.6-1.2c-0.4-0.2-1.1-0.4-2-0.4H4.8V12.9z M4.8,15.5v3.9h2.1
			c0.9,0,1.5-0.2,1.9-0.5s0.6-0.8,0.6-1.5c0-1.2-0.9-1.9-2.7-1.9H4.8z"/>
		<path class="st1" d="M25.9,16.2c0,1.9-0.5,3.3-1.5,4.4s-2.4,1.6-4.1,1.6c-1.1,0-2.1-0.2-2.9-0.7s-1.5-1.2-1.9-2.1s-0.7-2-0.7-3.2
			c0-1.9,0.5-3.3,1.5-4.4c1-1,2.4-1.6,4.1-1.6c1.1,0,2.1,0.2,2.9,0.7s1.5,1.2,1.9,2.1S25.9,15,25.9,16.2z M18,16.2
			c0,1.1,0.2,2,0.6,2.6s1,0.9,1.8,0.9s1.4-0.3,1.8-0.9s0.5-1.4,0.5-2.6c0-1.1-0.2-2-0.6-2.6s-1-0.9-1.8-0.9s-1.4,0.3-1.8,0.8
			C18.2,14.3,18,15.1,18,16.2z"/>
		<path class="st1" d="M30.9,16.1l-3.7-5.6h3.5l2.2,3.7l2.2-3.7h3.5L35,16.1l3.9,5.9h-3.6l-2.4-3.9L30.5,22H27L30.9,16.1z"/>
		<path class="st1" d="M46.7,22h-3.2V9.7h-4.1V7h11.3v2.6h-4.1L46.7,22L46.7,22z"/>
		<path class="st1" d="M58,22.2c-1.8,0-3.3-0.5-4.3-1.5s-1.6-2.5-1.6-4.3c0-1.9,0.5-3.4,1.4-4.5c1-1,2.3-1.6,4-1.6
			c1.6,0,2.9,0.5,3.8,1.4s1.4,2.2,1.4,3.8V17h-7.4c0,0.9,0.3,1.6,0.8,2.1s1.2,0.7,2.1,0.7c0.7,0,1.3-0.1,2-0.2s1.3-0.4,1.9-0.7v2.4
			c-0.5,0.3-1.1,0.5-1.8,0.6C59.7,22.1,58.9,22.2,58,22.2z M57.6,12.5c-0.7,0-1.2,0.2-1.6,0.6c-0.4,0.4-0.6,1-0.6,1.8h4.4
			c0-0.8-0.2-1.4-0.6-1.8C58.8,12.8,58.2,12.5,57.6,12.5z"/>
		<path class="st1" d="M72.5,22l-0.6-1.6h-0.1c-0.5,0.7-1.1,1.1-1.6,1.4c-0.6,0.3-1.3,0.4-2.2,0.4c-1.1,0-2-0.3-2.6-0.9
			s-0.9-1.5-0.9-2.7s0.4-2.1,1.3-2.7c0.9-0.6,2.1-0.9,3.9-1l2-0.1v-0.5c0-1.2-0.6-1.7-1.8-1.7c-0.9,0-2,0.3-3.2,0.8l-1-2.1
			c1.3-0.7,2.8-1,4.4-1c1.5,0,2.7,0.3,3.5,1s1.2,1.7,1.2,3.1V22H72.5z M71.6,16.7h-1.2c-0.9,0-1.6,0.2-2,0.5s-0.7,0.8-0.7,1.4
			c0,0.9,0.5,1.3,1.5,1.3c0.7,0,1.3-0.2,1.7-0.6c0.4-0.4,0.7-1,0.7-1.7V16.7z"/>
		<path class="st1" d="M88.2,22H85v-6.7c0-0.8-0.1-1.4-0.4-1.9c-0.3-0.4-0.7-0.6-1.3-0.6c-0.8,0-1.4,0.3-1.7,0.9S81,15.3,81,16.6V22
			h-3.1V10.5h2.4l0.4,1.5h0.2c0.3-0.5,0.8-0.9,1.3-1.2c0.6-0.3,1.2-0.4,2-0.4c1.7,0,2.9,0.6,3.5,1.7H88c0.3-0.5,0.8-0.9,1.4-1.2
			s1.3-0.4,2-0.4c1.3,0,2.3,0.3,2.9,1c0.7,0.7,1,1.7,1,3.2V22h-3.1v-6.7c0-0.8-0.1-1.4-0.4-1.9c-0.3-0.4-0.7-0.6-1.3-0.6
			c-0.8,0-1.3,0.3-1.7,0.8c-0.4,0.5-0.6,1.4-0.6,2.6C88.2,16.2,88.2,22,88.2,22z"/>
	</g>
	<g class="st0">
		<path class="st1" d="M33.1,32.5c0,1.3-0.3,2.2-1,3c-0.6,0.7-1.5,1.1-2.7,1.1s-2-0.4-2.7-1.1c-0.6-0.7-0.9-1.7-0.9-3s0.3-2.3,0.9-3
			s1.5-1.1,2.7-1.1c1.1,0,2,0.4,2.6,1.1C32.8,30.2,33.1,31.2,33.1,32.5z M26.8,32.5c0,1.1,0.2,1.9,0.7,2.4s1.1,0.8,2,0.8
			s1.5-0.3,2-0.8s0.7-1.4,0.7-2.4c0-1.1-0.2-1.9-0.7-2.4c-0.4-0.5-1.1-0.8-2-0.8s-1.5,0.3-2,0.8C27.1,30.6,26.8,31.4,26.8,32.5z"/>
		<path class="st1" d="M38.7,36.4v-3.8c0-0.5-0.1-0.8-0.3-1.1s-0.6-0.4-1-0.4c-0.6,0-1.1,0.2-1.4,0.5s-0.4,0.9-0.4,1.6v3.1h-0.9
			v-5.9h0.7l0.1,0.8l0,0c0.2-0.3,0.4-0.5,0.8-0.7s0.7-0.2,1.1-0.2c0.7,0,1.2,0.2,1.6,0.5s0.5,0.9,0.5,1.6v3.8h-0.8V36.4z"/>
		<path class="st1" d="M48.9,34.3c0,0.7-0.3,1.2-0.8,1.6c-0.5,0.4-1.2,0.6-2,0.6c-0.9,0-1.6-0.1-2.1-0.4v-0.9
			c0.3,0.1,0.7,0.2,1.1,0.3c0.4,0.1,0.8,0.1,1.1,0.1c0.6,0,1.1-0.1,1.4-0.3c0.3-0.2,0.5-0.6,0.5-1c0-0.3-0.1-0.5-0.2-0.7
			c-0.1-0.2-0.3-0.3-0.5-0.5c-0.3-0.1-0.6-0.3-1.2-0.5c-0.7-0.3-1.3-0.6-1.6-0.9c-0.3-0.4-0.5-0.8-0.5-1.4s0.2-1.1,0.7-1.4
			c0.5-0.4,1.1-0.5,1.8-0.5c0.8,0,1.5,0.1,2.2,0.4l-0.3,0.8c-0.6-0.3-1.3-0.4-1.9-0.4c-0.5,0-0.9,0.1-1.1,0.3
			c-0.3,0.2-0.4,0.5-0.4,0.9c0,0.3,0.1,0.5,0.2,0.7s0.3,0.3,0.5,0.5c0.2,0.1,0.6,0.3,1.1,0.5c0.8,0.3,1.4,0.6,1.7,0.9
			C48.7,33.4,48.9,33.8,48.9,34.3z"/>
		<path class="st1" d="M51.3,36.4h-0.9V28h0.9V36.4z"/>
		<path class="st1" d="M56.8,36.4l-0.2-0.8l0,0c-0.3,0.4-0.6,0.6-0.9,0.7s-0.7,0.2-1.1,0.2c-0.6,0-1-0.2-1.4-0.5
			c-0.3-0.3-0.5-0.7-0.5-1.3c0-1.2,1-1.8,2.9-1.9h1v-0.4c0-0.5-0.1-0.8-0.3-1s-0.5-0.3-1-0.3s-1,0.2-1.7,0.5l-0.3-0.7
			c0.3-0.2,0.6-0.3,1-0.4c0.3-0.1,0.7-0.1,1-0.1c0.7,0,1.2,0.2,1.6,0.5c0.3,0.3,0.5,0.8,0.5,1.5v4H56.8z M54.8,35.8
			c0.6,0,1-0.2,1.3-0.5s0.5-0.7,0.5-1.3v-0.5h-0.9c-0.7,0-1.2,0.1-1.5,0.3s-0.5,0.5-0.5,0.9c0,0.3,0.1,0.6,0.3,0.7
			C54.1,35.7,54.4,35.8,54.8,35.8z"/>
		<path class="st1" d="M61.6,36.5c-0.9,0-1.5-0.3-2-0.8s-0.7-1.3-0.7-2.2c0-1,0.2-1.7,0.7-2.3c0.5-0.5,1.2-0.8,2-0.8
			c0.3,0,0.6,0,0.8,0.1c0.3,0.1,0.5,0.1,0.7,0.2l-0.3,0.8c-0.2-0.1-0.4-0.1-0.6-0.2c-0.2-0.1-0.4-0.1-0.6-0.1
			c-1.2,0-1.8,0.8-1.8,2.3c0,0.7,0.1,1.3,0.4,1.7s0.7,0.6,1.3,0.6c0.5,0,1-0.1,1.5-0.3v0.8C62.7,36.4,62.2,36.5,61.6,36.5z"/>
		<path class="st1" d="M65.4,33.4c0.2-0.2,0.4-0.5,0.7-0.9l1.9-2h1L66.7,33l2.6,3.4h-1.1l-2.1-2.8l-0.7,0.6v2.2h-0.9V28h0.9v4.4
			C65.4,32.7,65.4,33,65.4,33.4L65.4,33.4z"/>
	</g>
</g>
</svg>
