<svg xmlns="http://www.w3.org/2000/svg" width="41.154" height="49.149" viewBox="0 0 41.154 49.149">
  <g id="location" transform="translate(-41.64)">
    <g id="Group_10632" data-name="Group 10632" transform="translate(41.64)">
      <g id="Group_10631" data-name="Group 10631" transform="translate(0)">
        <path id="Path_35126" data-name="Path 35126" d="M77.425,37.281a39.589,39.589,0,0,0-8.566-1.731c.507-.77,1.026-1.578,1.547-2.415C75.124,25.55,77.517,19.55,77.517,15.3a15.3,15.3,0,1,0-30.6,0c0,4.25,2.393,10.251,7.111,17.836.521.837,1.04,1.645,1.547,2.415a39.584,39.584,0,0,0-8.566,1.731c-3.563,1.233-5.37,2.882-5.37,4.9,0,2.263,2.253,4.053,6.7,5.318a52.873,52.873,0,0,0,13.882,1.647A52.874,52.874,0,0,0,76.1,47.5c4.443-1.266,6.7-3.055,6.7-5.318C82.794,40.164,80.988,38.514,77.425,37.281ZM50,15.3a12.213,12.213,0,1,1,24.426,0c0,3.609-2.292,9.2-6.629,16.18-2.135,3.433-4.29,6.427-5.584,8.16-1.294-1.734-3.449-4.727-5.584-8.16C52.3,24.5,50,18.908,50,15.3ZM75.253,44.533a49.76,49.76,0,0,1-13.036,1.529,49.76,49.76,0,0,1-13.036-1.529c-3.68-1.048-4.454-2.172-4.454-2.35s.586-1.049,3.292-1.985a39.438,39.438,0,0,1,9.543-1.726c1.924,2.746,3.354,4.555,3.446,4.67a1.543,1.543,0,0,0,2.418,0c.092-.115,1.522-1.924,3.446-4.67A39.434,39.434,0,0,1,76.416,40.2c2.707.937,3.292,1.817,3.292,1.985S78.934,43.485,75.253,44.533Z" transform="translate(-41.64)" fill="#fff"/>
      </g>
    </g>
    <g id="Group_10634" data-name="Group 10634" transform="translate(55.067 8.149)">
      <g id="Group_10633" data-name="Group 10633">
        <path id="Path_35127" data-name="Path 35127" d="M188.661,84.891a7.151,7.151,0,1,0,7.151,7.151A7.159,7.159,0,0,0,188.661,84.891Zm0,11.215a4.064,4.064,0,1,1,4.064-4.064A4.069,4.069,0,0,1,188.661,96.106Z" transform="translate(-181.51 -84.891)" fill="#fff"/>
      </g>
    </g>
  </g>
</svg>
