<svg xmlns="http://www.w3.org/2000/svg" width="28.044" height="22.791" viewBox="0 0 28.044 22.791">
  <path id="Subtraction_3" data-name="Subtraction 3" d="M19.8,36.394a16.3,16.3,0,0,1-8.82-2.583,11.758,11.758,0,0,0,1.373.081A11.487,11.487,0,0,0,19.5,31.429a5.755,5.755,0,0,1-5.376-4,5.792,5.792,0,0,0,2.6-.1A5.768,5.768,0,0,1,12.1,21.693c0-.024,0-.049,0-.072a5.77,5.77,0,0,0,2.606.719,5.763,5.763,0,0,1-1.78-7.682,16.307,16.307,0,0,0,5.2,4.222,16.22,16.22,0,0,0,6.659,1.792,5.758,5.758,0,0,1,9.806-5.25,11.492,11.492,0,0,0,3.655-1.4,5.771,5.771,0,0,1-2.534,3.184,11.449,11.449,0,0,0,3.3-.905,11.494,11.494,0,0,1-2.867,2.975c.011.263.017.515.017.747a16.931,16.931,0,0,1-4.217,11.036,15.487,15.487,0,0,1-5.132,3.845A16.589,16.589,0,0,1,19.8,36.394Z" transform="translate(-10.976 -13.604)"/>
</svg>
