<svg xmlns="http://www.w3.org/2000/svg" width="28.403" height="27.148" viewBox="0 0 28.403 27.148">
  <path id="Subtraction_4" data-name="Subtraction 4" d="M27.193,37.794H21.1c0-.149.077-16.637,0-18.318h6.088v2.594a6.85,6.85,0,0,1,1.835-1.98,6.284,6.284,0,0,1,3.651-1.044,6.591,6.591,0,0,1,5.007,2.012,8.91,8.91,0,0,1,2,6.233v10.5H33.6v-9.8c0-2.71-1.067-4.143-3.084-4.143a3.127,3.127,0,0,0-2.028.7,3.8,3.8,0,0,0-1.1,1.523,4.043,4.043,0,0,0-.2,1.486V37.793Zm-9.458,0H11.647V19.475h6.089V37.792ZM14.692,16.974h-.04a3.174,3.174,0,1,1,.08-6.33,3.16,3.16,0,0,1,3.4,3.165,3.066,3.066,0,0,1-.926,2.241A3.548,3.548,0,0,1,14.692,16.974Z" transform="translate(-11.287 -10.645)"/>
</svg>
