<svg xmlns="http://www.w3.org/2000/svg" width="28.711" height="28.711" viewBox="0 0 28.711 28.711">
  <path id="Subtraction_2" data-name="Subtraction 2" d="M25,39.355c-3.886,0-4.394-.016-5.918-.086A10.6,10.6,0,0,1,15.6,38.6a7.344,7.344,0,0,1-4.2-4.2,10.6,10.6,0,0,1-.667-3.485c-.071-1.521-.087-2.028-.087-5.918s.016-4.394.086-5.918A10.623,10.623,0,0,1,11.4,15.6a7.348,7.348,0,0,1,4.2-4.2,10.621,10.621,0,0,1,3.485-.668c1.544-.07,2.056-.086,5.918-.086s4.378.017,5.918.087A10.636,10.636,0,0,1,34.4,11.4a7.348,7.348,0,0,1,4.2,4.2,10.621,10.621,0,0,1,.668,3.485c.069,1.528.085,2.037.085,5.918s-.016,4.394-.086,5.918A10.609,10.609,0,0,1,38.6,34.4a7.36,7.36,0,0,1-4.2,4.2,10.6,10.6,0,0,1-3.485.667C29.394,39.339,28.886,39.355,25,39.355Zm0-26.124c-3.834,0-4.288.014-5.8.083a7.94,7.94,0,0,0-2.666.5,4.752,4.752,0,0,0-2.724,2.724,7.924,7.924,0,0,0-.494,2.666c-.069,1.509-.084,1.962-.084,5.8s.015,4.292.084,5.8a7.92,7.92,0,0,0,.494,2.665,4.757,4.757,0,0,0,2.724,2.725,7.96,7.96,0,0,0,2.666.494c1.509.069,1.962.084,5.8.084s4.292-.015,5.8-.084a7.959,7.959,0,0,0,2.666-.494,4.767,4.767,0,0,0,2.725-2.725,7.957,7.957,0,0,0,.494-2.665c.069-1.509.084-1.962.084-5.8s-.015-4.292-.084-5.8a7.96,7.96,0,0,0-.494-2.666,4.757,4.757,0,0,0-2.725-2.724,7.921,7.921,0,0,0-2.665-.494C29.292,13.246,28.839,13.231,25,13.231ZM25,32.37A7.371,7.371,0,1,1,32.371,25,7.38,7.38,0,0,1,25,32.37Zm0-12.155A4.785,4.785,0,1,0,29.786,25,4.791,4.791,0,0,0,25,20.215Zm7.663-1.156a1.723,1.723,0,1,1,1.723-1.723A1.725,1.725,0,0,1,32.663,19.059Z" transform="translate(-10.644 -10.645)"/>
</svg>
