<?xml version="1.0" encoding="utf-8"?>
<!-- Generator: Adobe Illustrator 27.2.0, SVG Export Plug-In . SVG Version: 6.00 Build 0)  -->
<svg version="1.1" id="Layer_1" xmlns="http://www.w3.org/2000/svg" xmlns:xlink="http://www.w3.org/1999/xlink" x="0px" y="0px"
	 viewBox="0 0 672.5 204.7" style="enable-background:new 0 0 672.5 204.7;" xml:space="preserve">
<style type="text/css">
	.st0{clip-path:url(#SVGID_00000062188810783485292600000006634259227116603814_);}
	.st1{fill:#1B180C;}
	.st2{fill:#2A251A;}
	.st3{fill:#38362D;}
	.st4{fill:#CEFF00;}
	.st5{fill:#769B2F;}
	.st6{enable-background:new    ;}
	.st7{fill:#FFFFFF;}
</style>
<g id="Group_11092" transform="translate(-622.474 -243.287)">
	<g id="Group_11091" transform="translate(622.474 243.287)">
		<g>
			<defs>
				<rect id="SVGID_1_" y="0" width="176.8" height="204.7"/>
			</defs>
			<clipPath id="SVGID_00000156548967905641957920000015852344786250219957_">
				<use xlink:href="#SVGID_1_"  style="overflow:visible;"/>
			</clipPath>
			<g id="Group_11090" style="clip-path:url(#SVGID_00000156548967905641957920000015852344786250219957_);">
				<path id="Path_60213" class="st1" d="M172.6,58.5l-77.1,48.8c-2.7,1.8-4.3,4.8-4.6,8v86.4c0,2.7,2,3.8,4.4,2.2l75.7-47.7
					c2.6-1.8,4.3-4.7,4.6-7.9l1.3-87.4C177,57.9,174.9,56.9,172.6,58.5 M146.3,133.9c-0.2,2.8-1.6,5.3-3.9,6.9L124.7,152
					c-2.2,1.4-3.9,0.5-3.9-1.9l0.2-20c0.2-2.8,1.6-5.3,3.9-6.9l17.8-11.2c2.2-1.4,3.9-0.5,3.9,2L146.3,133.9z"/>
				<path id="Path_60214" class="st2" d="M4.3,58.5l77.1,48.8c2.7,1.8,4.3,4.8,4.6,8v86.4c0,2.7-2,3.8-4.4,2.2L5.9,156.3
					c-2.6-1.8-4.3-4.7-4.6-7.9L0,61C-0.3,57.9,1.8,56.9,4.3,58.5 M30.6,133.9c0.2,2.8,1.6,5.3,3.9,6.9L52.1,152
					c2.2,1.4,3.9,0.5,3.9-1.9l-0.2-20c-0.2-2.8-1.6-5.3-3.9-6.9L34.2,112c-2.2-1.4-3.9-0.5-3.9,2L30.6,133.9z"/>
				<path id="Path_60215" class="st3" d="M84.1,1L5.9,48.3c-2.5,1.6-2.7,4.1-0.3,5.7l77.8,49.6c2.9,1.6,6.4,1.6,9.3,0l78.2-49.6
					c2.5-1.6,2.4-4.1-0.2-5.7L92.9,1.2C90.2-0.3,86.9-0.4,84.1,1 M110.4,48.6c2.2,1.4,2.2,3.6,0,4.9L92.3,64.8c-2.5,1.4-5.5,1.4-8,0
					l-18-11.2c-2.2-1.4-2.2-3.6,0-4.9l18.1-11.2c2.4-1.4,5.4-1.4,7.9,0L110.4,48.6z"/>
				<path id="Path_60216" class="st4" d="M39.9,145.7V69.2l-10.1-7.1v90.2l10.1,6.3v-0.1l0.2,0.1l16.1-11.3l-0.2-12.4L39.9,145.7z"
					/>
				<path id="Path_60217" class="st4" d="M92.6,36.5l-10.4-5.8L29.9,62.1L40,69.2l42.3-26.3l0.2,21l1.7,0.9c2.5,1.4,5.5,1.4,8,0
					l0.3-0.2v-28l-0.1-0.1L92.6,36.5z"/>
				<path id="Path_60218" class="st5" d="M133.5,189.5l11.7-7.1l-7.7-5.2l-11.8,7.4L133.5,189.5z"/>
				<path id="Path_60219" class="st4" d="M133.5,189.5l11.7-7.1v-43.3l-11.7,7.6V189.5z"/>
				<path id="Path_60220" class="st4" d="M122,126.1c-0.7,1.2-1.1,2.5-1.1,3.9v9.3l12.8,7.4l11.7-7.6L122,126.1z"/>
			</g>
		</g>
	</g>
	<g id="Group_10644" transform="translate(822.441 259.211)">
		<g class="st6">
			<path class="st4" d="M7.5,9.2v23.1H3.1V9.2H7.5z"/>
			<path class="st4" d="M32.7,9.2v23.1h-4.3L18.1,16.7v15.6h-4.4V9.2h4.4l10.3,15.6V9.2H32.7z"/>
			<path class="st4" d="M54.7,13.3h-6.4v19H44v-19h-6.4V9.2h17.2V13.3z"/>
			<path class="st4" d="M80.7,20.7c0,6.6-3.8,12-11.6,12s-11.6-5.4-11.6-12c0-6.6,3.7-11.9,11.6-11.9S80.7,14.2,80.7,20.7z
				 M76.2,20.7c0-4.6-2.5-7.8-7.1-7.8c-4.6,0-7.1,3.3-7.1,7.8c0,4.6,2.5,7.9,7.1,7.9C73.7,28.6,76.2,25.3,76.2,20.7z"/>
			<path class="st4" d="M109,13.3h-6.4v19h-4.4v-19h-6.4V9.2H109V13.3z"/>
			<path class="st4" d="M133.1,9.2v23.1h-4.4v-9.5h-10.6v9.5h-4.4V9.2h4.4v9.5h10.6V9.2H133.1z"/>
			<path class="st4" d="M154.3,28.2v4.1h-15V9.2h14.8v4.1h-10.5v5.3h9.8v4.1h-9.8v5.4H154.3z"/>
			<path class="st4" d="M184.9,25.8c0,4.1-3.1,6.5-8.3,6.5H167V9.2h8.7c5,0,8.4,1.7,8.4,5.9c0,2.3-0.9,3.9-3.2,5.2
				C184.1,21.6,184.9,23.6,184.9,25.8z M177.1,13.2h-5.7v5.4h5.7c1.7,0,2.8-1.1,2.8-2.7C179.9,14.2,178.8,13.2,177.1,13.2z
				 M180.6,25.4c0-1.6-1-2.9-3.3-2.9h-5.9v5.8h5.9C179.6,28.3,180.6,26.9,180.6,25.4z"/>
			<path class="st4" d="M211.6,20.7c0,6.6-3.8,12-11.6,12c-7.9,0-11.6-5.4-11.6-12c0-6.6,3.7-11.9,11.6-11.9
				C207.8,8.8,211.6,14.2,211.6,20.7z M207.1,20.7c0-4.6-2.5-7.8-7.1-7.8s-7.1,3.3-7.1,7.8c0,4.6,2.5,7.9,7.1,7.9
				S207.1,25.3,207.1,20.7z"/>
			<path class="st4" d="M229.3,32.3l-5.4-8.6l-5.3,8.6h-5.2l7.9-12.1l-7.3-11h5l4.9,8l5-8h5l-7.3,11l7.9,12.1H229.3z"/>
		</g>
		<g class="st6">
			<path class="st4" d="M60.8,48.9v48.3H48.3V69.8L36.7,87.4h-6.8L18.4,69.8v27.4H5.9V48.9h12.5l15,23.7l15-23.7H60.8z"/>
			<path class="st4" d="M119.3,73.1c0,13.8-8,25-24.8,25s-24.7-11.2-24.8-25c0.1-13.8,8-25.1,24.8-25.1S119.3,59.3,119.3,73.1z
				 M106.5,73.1c0-8.9-4.7-13.9-11.9-13.9s-11.9,5-11.9,13.9C82.6,82,87.3,87,94.5,87S106.5,82,106.5,73.1z"/>
			<path class="st4" d="M171.7,73.1c0,15.2-7.9,24.2-25,24.2h-18.4V48.9h18.4C163.8,48.9,171.7,57.8,171.7,73.1z M159,73.1
				c0-9.2-3.9-12.4-12.4-12.4h-5.9v24.7h5.9C155.2,85.4,159,82.3,159,73.1z"/>
			<path class="st4" d="M214.3,85.4v11.8h-33.9V48.9h33.3v11.8h-20.7v6.6H212v11.3h-19.1v6.8H214.3z"/>
			<path class="st4" d="M242.7,81.7h-6.6v15.5h-12.5V48.9h20c11.3,0,17.8,6.3,17.8,16.4c0,6.3-2.6,11.2-7.3,13.9l10.3,17.9h-13.2
				L242.7,81.7z M236.1,70.9h6.8c4.1,0,6.6-1.9,6.6-5.6c0-3.7-2.4-5.7-6.6-5.7h-6.8V70.9z"/>
			<path class="st4" d="M312.2,48.9v48.3h-12.5l-15.2-25.9v25.9h-12.5V48.9h12.5l15.2,25.9V48.9H312.2z"/>
			<path class="st4" d="M336.4,48.9v48.3H324V48.9H336.4z"/>
			<path class="st4" d="M382.3,60.7l-21,24.7h22.4v11.8h-37.5V85.4l20.8-24.7h-20.5V48.9h35.9V60.7z"/>
			<path class="st4" d="M427.2,85.4v11.8h-33.9V48.9h33.3v11.8h-20.7v6.6H425v11.3h-19.1v6.8H427.2z"/>
		</g>
		<g class="st6">
			<path class="st4" d="M52.6,132.1c0,13.8-8,25-24.8,25s-24.7-11.2-24.8-25c0.1-13.8,8-25.1,24.8-25.1S52.6,118.3,52.6,132.1z
				 M39.8,132.1c0-8.9-4.7-13.9-11.9-13.9s-11.9,5-11.9,13.9c0,8.8,4.7,13.9,11.9,13.9S39.8,141,39.8,132.1z"/>
			<path class="st4" d="M80.7,140.7h-6.6v15.5H61.6v-48.3h20c11.3,0,17.8,6.3,17.8,16.4c0,6.3-2.6,11.2-7.3,13.9l10.4,17.9H89.3
				L80.7,140.7z M74.1,129.9h6.8c4.1,0,6.6-1.9,6.6-5.6c0-3.7-2.4-5.7-6.6-5.7h-6.8V129.9z"/>
			<path class="st4" d="M168.7,132.1c0,15.2-7.9,24.2-25,24.2h-18.4v-48.3h18.4C160.8,107.9,168.7,116.8,168.7,132.1z M156,132.1
				c0-9.2-3.9-12.4-12.4-12.4h-5.9v24.7h5.9C152.1,144.4,156,141.3,156,132.1z"/>
			<path class="st4" d="M189.8,107.9v48.3h-12.5v-48.3H189.8z"/>
			<path class="st4" d="M235.5,144.4v11.8h-33.9v-48.3h33.3v11.8h-20.7v6.6h19.1v11.3h-19.1v6.8H235.5z"/>
		</g>
		<g id="Group_10643" transform="translate(261.972)">
			<g class="st6">
				<path class="st7" d="M11,9.3v23.8H6.8V13.6l-5.7,3.2v-4.2l5.7-3.3H11z"/>
				<path class="st7" d="M34.2,21.2c0,7.8-2.6,12.3-8.9,12.3c-6.3,0-8.9-4.5-8.9-12.3c0-7.9,2.7-12.3,8.9-12.3
					C31.5,8.8,34.2,13.3,34.2,21.2z M29.7,21.2c0-5.8-1.2-8.6-4.5-8.6s-4.5,2.7-4.5,8.6c0,5.8,1.2,8.5,4.5,8.5S29.7,27,29.7,21.2z"
					/>
				<path class="st7" d="M86.1,28.8v4.2H70.7V9.3H86v4.2H75.2V19h10.1v4.2H75.2v5.5H86.1z"/>
				<path class="st7" d="M111.8,21.2c0,7.5-3.8,11.9-12.7,11.9h-7.7V9.3h7.7C108,9.3,111.8,13.6,111.8,21.2z M99.1,28.8
					c6.6,0,8.2-3.1,8.2-7.6c0-4.6-1.6-7.6-8.2-7.6h-3.3v15.3H99.1z"/>
				<path class="st7" d="M121.4,9.3v23.8h-4.5V9.3H121.4z"/>
				<path class="st7" d="M144,13.5h-6.6v19.5h-4.5V13.5h-6.6V9.3H144V13.5z"/>
				<path class="st7" d="M153.4,9.3v23.8h-4.5V9.3H153.4z"/>
				<path class="st7" d="M182.4,21.1c0,6.8-3.9,12.4-12,12.4c-8.1,0-11.9-5.6-11.9-12.4c0-6.8,3.8-12.3,11.9-12.3
					C178.5,8.8,182.4,14.4,182.4,21.1z M177.7,21.1c0-4.7-2.6-8.1-7.3-8.1s-7.3,3.4-7.3,8.1c0,4.7,2.6,8.1,7.3,8.1
					S177.7,25.9,177.7,21.1z"/>
				<path class="st7" d="M207.1,9.3v23.8h-4.5L192,17v16.1h-4.5V9.3h4.5l10.6,16.1V9.3H207.1z"/>
			</g>
			<g class="st6">
				<path class="st7" d="M43.6,13.2h-2.1v6.3H40v-6.3h-2.1v-1.4h5.7V13.2z"/>
				<path class="st7" d="M51.7,11.9v7.7h-1.5v-3.2h-3.5v3.2h-1.5v-7.7h1.5V15h3.5v-3.2H51.7z"/>
			</g>
		</g>
		<g class="st6">
			<path class="st4" d="M257.1,112.6h-3.9v11.5h-2.6v-11.5h-3.9v-2.5h10.4V112.6z"/>
			<path class="st4" d="M275.2,110.1v14h-2.6v-9.4l-4.3,6.5H267l-4.3-6.5v9.4H260v-14h2.6l4.9,7.7l4.9-7.7H275.2z"/>
		</g>
	</g>
</g>
</svg>
