<svg xmlns="http://www.w3.org/2000/svg" xmlns:xlink="http://www.w3.org/1999/xlink" width="250.751" height="109.987" viewBox="0 0 250.751 109.987">
  <defs>
    <clipPath id="clip-path">
      <rect id="Rectangle_3138" data-name="Rectangle 3138" width="214.194" height="62.176" fill="none"/>
    </clipPath>
  </defs>
  <g id="Group_11106" data-name="Group 11106" transform="translate(-510.215 -285.363)">
    <ellipse id="Ellipse_3" data-name="Ellipse 3" cx="39.798" cy="24.037" rx="39.798" ry="24.037" transform="translate(532.258 326.662) rotate(-14)" fill="#ceff00" opacity="0.504"/>
    <g id="Group_11089" data-name="Group 11089" transform="translate(546.773 301.473)">
      <g id="Group_11100" data-name="Group 11100" clip-path="url(#clip-path)">
        <path id="Path_60223" data-name="Path 60223" d="M82.538,36.915,59.107,51.739a3.231,3.231,0,0,0-1.387,2.439V80.43c0,.813.622,1.148,1.339.669l23-14.489a3.287,3.287,0,0,0,1.387-2.391l.383-26.54c.048-.956-.574-1.243-1.291-.765M74.552,59.82a2.751,2.751,0,0,1-1.2,2.1L68,65.32c-.669.43-1.2.143-1.2-.574l.048-6.073a2.751,2.751,0,0,1,1.2-2.1l5.4-3.4c.669-.43,1.2-.143,1.2.622Z" transform="translate(-30.119 -19.144)" fill="#1b180c"/>
        <path id="Path_60224" data-name="Path 60224" d="M1.3,36.915,24.732,51.739a3.231,3.231,0,0,1,1.387,2.439V80.43c0,.813-.622,1.148-1.339.669l-23-14.489A3.287,3.287,0,0,1,.392,64.22L.009,37.68c-.1-.956.526-1.243,1.291-.765M9.286,59.82a2.751,2.751,0,0,0,1.2,2.1l5.356,3.4c.669.43,1.2.143,1.2-.574l-.048-6.073a2.751,2.751,0,0,0-1.2-2.1l-5.4-3.4c-.669-.43-1.2-.143-1.2.622Z" transform="translate(0 -19.144)" fill="#2a251a"/>
        <path id="Path_60225" data-name="Path 60225" d="M26.826.317,3.06,14.663c-.765.478-.813,1.243-.1,1.721L26.587,31.447a2.954,2.954,0,0,0,2.821,0L53.174,16.384c.765-.478.717-1.243-.048-1.721L29.5.365A2.8,2.8,0,0,0,26.826.317m7.986,14.441a.8.8,0,0,1,0,1.482l-5.5,3.443a2.465,2.465,0,0,1-2.439,0l-5.451-3.4a.8.8,0,0,1,0-1.482l5.5-3.4a2.375,2.375,0,0,1,2.391,0Z" transform="translate(-1.281 0)" fill="#38362d"/>
        <path id="Path_60226" data-name="Path 60226" d="M52.842,29.892a2.465,2.465,0,0,0,2.439,0l.1-.048V21.332L52.22,19.563l.1,10.042Z" transform="translate(-27.249 -10.208)" fill="#769b2f"/>
        <path id="Path_60227" data-name="Path 60227" d="M26.911,85.663l-7.89,5.308,3.06,1.913,4.878-3.443Z" transform="translate(-9.925 -44.7)" fill="#769b2f"/>
        <path id="Path_60228" data-name="Path 60228" d="M21.981,68.776l-3.06-1.913v-27.4l3.06,2.152Z" transform="translate(-9.873 -20.592)" fill="#ceff00"/>
        <path id="Path_60229" data-name="Path 60229" d="M38.052,21.233,34.9,19.463,19.02,29.027l3.06,2.152Z" transform="translate(-9.925 -10.156)" fill="#ceff00"/>
        <path id="Path_60230" data-name="Path 60230" d="M82.211,116.293l3.539-2.152-2.343-1.578-3.586,2.247Z" transform="translate(-41.651 -58.737)" fill="#769b2f"/>
        <path id="Path_60231" data-name="Path 60231" d="M84.82,103.665l3.539-2.152V88.363l-3.539,2.3Z" transform="translate(-44.26 -46.109)" fill="#ceff00"/>
        <path id="Path_60232" data-name="Path 60232" d="M77.155,80.063a2.271,2.271,0,0,0-.335,1.2V84.08l3.873,2.247,3.539-2.3Z" transform="translate(-40.085 -41.778)" fill="#ceff00"/>
        <path id="Path_60233" data-name="Path 60233" d="M130.391,85.519h-6.264l1-6.456h21.04l-1,6.456H138.9l-2.343,14.68H128.1Z" transform="translate(-64.77 -41.256)" fill="#fff"/>
        <path id="Path_60234" data-name="Path 60234" d="M170.374,79.063h8.464l-1.148,7.173h6.934l1.148-7.173h8.464L190.888,100.2h-8.464l1.243-7.938h-6.934L175.49,100.2h-8.464Z" transform="translate(-87.156 -41.256)" fill="#fff"/>
        <path id="Path_60235" data-name="Path 60235" d="M225.926,79.063h18.362L243.38,84.8H233.242l-.383,2.247h8.99l-.813,4.878h-8.942l-.43,2.534h10.472l-.909,5.738h-18.6Z" transform="translate(-116.169 -41.256)" fill="#fff"/>
        <path id="Path_60236" data-name="Path 60236" d="M124.574,23.963h8.464L129.69,45.1h-8.464Z" transform="translate(-63.257 -12.504)" fill="#fff"/>
        <path id="Path_60237" data-name="Path 60237" d="M147.674,23.963h9.9L163.406,36.3h.048l1.961-12.337h7.842L169.91,45.1h-9.9l-5.834-12.433h-.048L152.169,45.1h-7.842Z" transform="translate(-75.311 -12.504)" fill="#fff"/>
        <path id="Path_60238" data-name="Path 60238" d="M212.591,30.519h-6.264l1-6.456h21.04l-1,6.456H221.1L218.759,45.2H210.3Z" transform="translate(-107.663 -12.556)" fill="#fff"/>
        <path id="Path_60239" data-name="Path 60239" d="M280.825,79.063h14.346c4.734,0,7.651,2.1,7.651,5.26a5.393,5.393,0,0,1-4.208,5.117v.048a4.061,4.061,0,0,1,3.2,4.112c0,3.826-3.873,6.6-9.038,6.6H277.526Zm10.186,16.163c1.435,0,2.439-.765,2.439-2.008,0-.956-.717-1.53-1.817-1.53h-4.256l-.526,3.491Zm.956-7.794a2.083,2.083,0,0,0,2.343-1.961c0-.861-.669-1.387-1.769-1.387H288.62l-.526,3.4h3.873Z" transform="translate(-144.816 -41.256)" fill="#ceff00"/>
        <path id="Path_60240" data-name="Path 60240" d="M332.226,90.813c0-7.89,6.934-13.15,15.35-13.15,7.555,0,12.146,3.634,12.146,9.373,0,7.89-6.934,13.2-15.35,13.2-7.555-.048-12.146-3.682-12.146-9.42m18.936-2.869c0-2.391-1.674-3.826-4.495-3.826a5.675,5.675,0,0,0-5.834,5.547v.287c0,2.391,1.674,3.826,4.495,3.826a5.716,5.716,0,0,0,5.834-5.595Z" transform="translate(-173.359 -40.525)" fill="#ceff00"/>
        <path id="Path_60241" data-name="Path 60241" d="M248.726,34.361c0-7.89,6.934-13.2,15.35-13.2,7.555,0,12.146,3.634,12.146,9.373,0,7.89-6.934,13.2-15.35,13.2-7.555,0-12.146-3.682-12.146-9.373m18.889-2.917c0-2.391-1.674-3.826-4.495-3.826a5.675,5.675,0,0,0-5.834,5.547v.287c0,2.391,1.674,3.826,4.5,3.826a5.716,5.716,0,0,0,5.834-5.595Z" transform="translate(-129.788 -11.043)" fill="#fff"/>
        <path id="Path_60242" data-name="Path 60242" d="M395.151,89.153l-7.029-10.09h8.99l3.586,5.212,5.069-5.212h9.181l-10.472,10.52L411.6,100.2h-9.181l-3.586-5.4-5.069,5.4h-9.038Z" transform="translate(-200.754 -41.256)" fill="#ceff00"/>
        <path id="Path_60243" data-name="Path 60243" d="M328.652,39.475H332l.765-4.925a4.824,4.824,0,0,1-2.582,1.626l-.574-3.73a7.373,7.373,0,0,0,4.208-2.582h4.878l-1.53,9.612h2.3l-.526,3.443H328.126Z" transform="translate(-171.219 -15.583)" fill="#ceff00"/>
        <path id="Path_60244" data-name="Path 60244" d="M354.126,37.344a8.149,8.149,0,0,1,8.416-8.081c3.778,0,6.264,2.1,6.264,5.547a8.179,8.179,0,0,1-8.416,8.081c-3.778-.048-6.264-2.152-6.264-5.547m9.612-2.2c0-1.291-.669-2.008-1.769-2.008-1.626,0-2.678,2.008-2.678,3.826,0,1.291.669,2.008,1.769,2.008,1.626,0,2.678-2.008,2.678-3.826" transform="translate(-184.787 -15.27)" fill="#ceff00"/>
        <path id="Path_60245" data-name="Path 60245" d="M388.018,31.6h-1.291l.191-1.339h4.4l-.191,1.339h-1.291l-.478,3.06h-1.769Z" transform="translate(-201.798 -15.792)" fill="#ceff00"/>
        <path id="Path_60246" data-name="Path 60246" d="M396.344,30.263h1.769l-.239,1.482h1.435l.239-1.482h1.769l-.717,4.4H398.83l.287-1.674h-1.435l-.287,1.674h-1.769Z" transform="translate(-206.442 -15.792)" fill="#ceff00"/>
        <rect id="Rectangle_3137" data-name="Rectangle 3137" width="0.478" height="21.71" transform="translate(151.216 10.12)" fill="#fff"/>
      </g>
    </g>
  </g>
</svg>
