<svg xmlns="http://www.w3.org/2000/svg" xmlns:xlink="http://www.w3.org/1999/xlink" width="672.527" height="204.712" viewBox="0 0 672.527 204.712">
  <defs>
    <clipPath id="clip-path">
      <rect id="Rectangle_3136" data-name="Rectangle 3136" width="176.848" height="204.712" fill="none"/>
    </clipPath>
  </defs>
  <g id="Group_11092" data-name="Group 11092" transform="translate(-622.474 -243.287)">
    <g id="Group_11091" data-name="Group 11091" transform="translate(622.474 243.287)">
      <g id="Group_11090" data-name="Group 11090" clip-path="url(#clip-path)">
        <path id="Path_60213" data-name="Path 60213" d="M139.432,37.436,62.286,86.243a10.638,10.638,0,0,0-4.566,8.03v86.436c0,2.677,2.047,3.779,4.408,2.2l75.73-47.7a10.822,10.822,0,0,0,4.566-7.872l1.26-87.38c.157-3.149-1.889-4.093-4.251-2.519M113.14,112.851a9.059,9.059,0,0,1-3.936,6.927L91.57,130.956c-2.2,1.417-3.936.472-3.936-1.889l.157-20a9.059,9.059,0,0,1,3.936-6.927l17.791-11.178c2.2-1.417,3.936-.472,3.936,2.047Z" transform="translate(33.155 21.074)" fill="#1b180c"/>
        <path id="Path_60214" data-name="Path 60214" d="M4.283,37.436,81.429,86.243a10.638,10.638,0,0,1,4.566,8.03v86.436c0,2.677-2.047,3.779-4.408,2.2l-75.73-47.7a10.821,10.821,0,0,1-4.566-7.872L.032,39.955c-.315-3.149,1.732-4.093,4.251-2.519m26.293,75.415a9.059,9.059,0,0,0,3.936,6.927l17.633,11.178c2.2,1.417,3.936.472,3.936-1.889l-.157-20a9.059,9.059,0,0,0-3.936-6.927L34.2,90.966c-2.2-1.417-3.936-.472-3.936,2.047Z" transform="translate(0 21.074)" fill="#2a251a"/>
        <path id="Path_60215" data-name="Path 60215" d="M82.7,1.044,4.447,48.276c-2.519,1.574-2.677,4.093-.315,5.668l77.776,49.594a9.725,9.725,0,0,0,9.289,0l78.249-49.594c2.519-1.574,2.362-4.093-.157-5.668L91.512,1.2A9.219,9.219,0,0,0,82.7,1.044m26.293,47.547c2.2,1.417,2.2,3.621,0,4.881L90.882,64.808a8.115,8.115,0,0,1-8.03,0L64.9,53.629c-2.2-1.417-2.2-3.621,0-4.881L83.01,37.57a7.82,7.82,0,0,1,7.872,0Z" transform="translate(1.41 0)" fill="#38362d"/>
        <path id="Path_60216" data-name="Path 60216" d="M29,123V46.548L18.92,39.463v90.214L29,135.975v-.1l.157.1,16.059-11.336L45.056,112.2Z" transform="translate(10.868 22.668)" fill="#ceff00"/>
        <path id="Path_60217" data-name="Path 60217" d="M81.682,25.288,71.291,19.463,19.02,50.951,29.1,58.036,71.406,31.688l.2,20.995,1.732.945a8.115,8.115,0,0,0,8.03,0l.315-.157V25.446l-.134-.074Z" transform="translate(10.925 11.18)" fill="#ceff00"/>
        <path id="Path_60218" data-name="Path 60218" d="M87.692,124.844l11.651-7.085-7.715-5.2-11.808,7.4Z" transform="translate(45.85 64.658)" fill="#769b2f"/>
        <path id="Path_60219" data-name="Path 60219" d="M84.82,138.745l11.651-7.085v-43.3L84.82,95.92Z" transform="translate(48.722 50.757)" fill="#ceff00"/>
        <path id="Path_60220" data-name="Path 60220" d="M77.922,80.063A7.478,7.478,0,0,0,76.82,84v9.289l12.753,7.4,11.651-7.557Z" transform="translate(44.127 45.99)" fill="#ceff00"/>
      </g>
    </g>
    <g id="Group_10644" data-name="Group 10644" transform="translate(822.441 259.211)">
      <text id="INTO_THE_BOX" data-name="INTO THE BOX" transform="translate(0 32.322)" fill="#ceff00" font-size="33" font-family="MADEFutureX-Medium, MADE Future X" font-weight="500"><tspan x="0" y="0">INTO THE BOX</tspan></text>
      <text id="MODERNIZE_OR_DIE" data-name="MODERNIZE
OR DIE" transform="translate(0 97.229)" fill="#ceff00" font-size="69" font-family="MADEFutureX-Black, MADE Future X" font-weight="800"><tspan x="0" y="0">MODERNIZE</tspan><tspan x="0" y="59">OR DIE</tspan></text>
      <g id="Group_10643" data-name="Group 10643" transform="translate(261.972)">
        <text id="_10_EDITION" data-name="10    EDITION" transform="translate(-0.412 33.076)" fill="#fff" font-size="34" font-family="MADEFutureX-Medium, MADE Future X" font-weight="500"><tspan x="0" y="0" xml:space="preserve">10    EDITION</tspan></text>
        <text id="TH" transform="translate(37.334 19.556)" fill="#fff" font-size="11" font-family="MADEFutureX-Medium, MADE Future X" font-weight="500"><tspan x="0" y="0">TH</tspan></text>
      </g>
      <text id="TM" transform="translate(245.715 124.073)" fill="#ceff00" font-size="20" font-family="MADEFutureX-Medium, MADE Future X" font-weight="500"><tspan x="0" y="0">TM</tspan></text>
    </g>
  </g>
</svg>
