<svg xmlns="http://www.w3.org/2000/svg" xmlns:xlink="http://www.w3.org/1999/xlink" width="97.896" height="23.395" viewBox="0 0 97.896 23.395">
  <defs>
    <clipPath id="clip-path">
      <rect id="Rectangle_2400" data-name="Rectangle 2400" width="97.896" height="23.395" fill="#fff"/>
    </clipPath>
  </defs>
  <g id="Group_10720" data-name="Group 10720" transform="translate(-826 -1022)">
    <g id="Group_10719" data-name="Group 10719" transform="translate(826 1022)">
      <g id="Group_10718" data-name="Group 10718" clip-path="url(#clip-path)">
        <path id="Path_28912" data-name="Path 28912" d="M789.226,16.91l-1.337,6.215h-3.075L789.894.6h3.642l4.779,22.525h-3.108l-1.3-6.215Zm4.311-2.507L792.5,9.022c-.3-1.537-.6-3.542-.835-5.146h-.134c-.233,1.638-.569,3.709-.868,5.146L789.593,14.4ZM810.052,0V18.948c0,1.237.067,3.042.133,4.178h-2.707l-.2-1.971h-.1a3.849,3.849,0,0,1-3.408,2.239c-3.008,0-4.846-3.276-4.846-8.321,0-5.749,2.439-8.456,5.013-8.456a3.013,3.013,0,0,1,2.907,1.838h.067V0ZM806.91,13.066c0-.3,0-.668-.033-1-.167-1.47-1-2.74-2.138-2.74-1.972,0-2.64,2.74-2.64,5.749,0,3.342.869,5.681,2.54,5.681.7,0,1.637-.368,2.172-2.306a4.736,4.736,0,0,0,.1-1.036Zm10.625,10.327c-3.241,0-5.581-2.774-5.581-8.354,0-5.916,2.773-8.423,5.748-8.423,3.208,0,5.514,2.874,5.514,8.355,0,6.45-3.175,8.422-5.648,8.422h-.033Zm.1-2.473c1.938,0,2.373-3.442,2.373-5.915,0-2.44-.434-5.916-2.439-5.916-2.073,0-2.473,3.475-2.473,5.916,0,2.707.468,5.915,2.507,5.915ZM825.11,0h3.141V8.721h.067a3.7,3.7,0,0,1,3.409-2.106c2.773,0,4.512,3.142,4.512,8.121,0,5.815-2.373,8.656-5.047,8.656-1.6,0-2.507-.87-3.209-2.307h-.133l-.168,2.039h-2.707c.067-1.1.134-2.941.134-4.178Zm3.141,17.378a3.034,3.034,0,0,0,.134,1c.5,1.972,1.471,2.373,2.105,2.373,1.872,0,2.573-2.473,2.573-5.815,0-3.108-.735-5.615-2.607-5.615-1.036,0-1.872,1.237-2.106,2.406a6.153,6.153,0,0,0-.1,1.1v4.544Zm12.623-1.737c.033,4.178,1.838,5.213,3.743,5.213a6.591,6.591,0,0,0,2.807-.6l.468,2.273a9,9,0,0,1-3.877.769c-4.077,0-6.216-3.075-6.216-8.088,0-5.314,2.439-8.589,5.815-8.589s4.946,3.242,4.946,7.32c0,.8-.034,1.3-.067,1.737l-7.62-.033Zm4.712-2.239c.033-2.874-.969-4.411-2.205-4.411-1.638,0-2.374,2.373-2.473,4.411Z" transform="translate(-751.108 0.001)" fill="#fff" fill-rule="evenodd"/>
        <path id="Path_28913" data-name="Path 28913" d="M16,15.4h9.384V37.86Zm-6.611,0H0V37.86ZM12.7,23.674,18.676,37.86H14.758L12.97,33.342H8.593Z" transform="translate(0 -14.734)" fill="#fff" fill-rule="evenodd"/>
        <path id="Path_28914" data-name="Path 28914" d="M674.415,21.309a.713.713,0,0,1,.71.716s0,0,0,.006a.715.715,0,1,1-.715-.722h.005Zm0,.112a.613.613,0,0,0,0,1.224.613.613,0,0,0,0-1.224Zm-.135,1.032h-.128v-.807a1.459,1.459,0,0,1,.228-.019.424.424,0,0,1,.25.061.192.192,0,0,1,.074.167.2.2,0,0,1-.158.2v.006c.071.013.119.077.135.2a.655.655,0,0,0,.052.2H674.6a.6.6,0,0,1-.055-.206.151.151,0,0,0-.174-.141h-.09v.347Zm0-.447h.093c.106,0,.2-.038.2-.138,0-.071-.052-.141-.2-.141a.6.6,0,0,0-.093.007ZM603.852,15.4a.713.713,0,0,1,.71.716s0,0,0,.006a.715.715,0,1,1-.715-.722h.005Zm0,.112a.613.613,0,0,0,0,1.224.613.613,0,0,0,0-1.224Zm-.135,1.032h-.129v-.807a1.4,1.4,0,0,1,.228-.019.42.42,0,0,1,.25.061.193.193,0,0,1,.074.167.2.2,0,0,1-.158.2v.006c.071.013.119.077.135.2a.662.662,0,0,0,.051.2h-.135a.582.582,0,0,1-.055-.206.151.151,0,0,0-.174-.141h-.09Zm0-.447h.093c.106,0,.2-.038.2-.138,0-.071-.051-.142-.2-.142a.6.6,0,0,0-.093.007Z" transform="translate(-577.229 -14.734)" fill="#fff" fill-rule="evenodd"/>
      </g>
    </g>
  </g>
</svg>
