<svg xmlns="http://www.w3.org/2000/svg" width="177.793" height="36.91" viewBox="0 0 177.793 36.91">
  <g id="Group_10452" data-name="Group 10452" transform="translate(-0.122 0.837)">
    <g id="Group_10611" data-name="Group 10611" transform="translate(0 0)">
      <g id="Group_7545" data-name="Group 7545" transform="translate(0.122 -0.837)">
        <path id="Path_11409" data-name="Path 11409" d="M530.5,197.158h4.608a3.344,3.344,0,0,1,2.285.6,2.615,2.615,0,0,1,.637,2.06v1.723h-2.622v-1.349a1.142,1.142,0,0,0-.225-.824,1.474,1.474,0,0,0-.974-.225h-.974v8.429H530.5Z" transform="translate(-492.772 -183.137)" fill="#fff"/>
        <path id="Path_11410" data-name="Path 11410" d="M646.383,147.741h1.948v-3.783h2.735v3.783h2.922v2.06h-2.922V154a2.452,2.452,0,0,0,.412,1.611,1.757,1.757,0,0,0,1.386.45h1.124v2.06h-2.51a2.92,2.92,0,0,1-2.323-.862,3.473,3.473,0,0,1-.824-2.435v-5.095h-1.948Z" transform="translate(-600.414 -133.72)" fill="#fff"/>
        <path id="Path_11411" data-name="Path 11411" d="M784.912,207.082h-5.169a4.886,4.886,0,0,1-3.3-.9,3.732,3.732,0,0,1-1.012-2.922v-6.593h2.735v6.368a1.805,1.805,0,0,0,.375,1.386,2.175,2.175,0,0,0,1.461.337h2.21V196.63h2.735v10.452Z" transform="translate(-720.288 -182.646)" fill="#fff"/>
        <path id="Path_11412" data-name="Path 11412" d="M938.913,205.4h5.806a2.105,2.105,0,0,0,1.124-.225.875.875,0,0,0,.337-.787.9.9,0,0,0-.375-.787,2.058,2.058,0,0,0-1.124-.262h-2.36a4.592,4.592,0,0,1-2.847-.637,2.93,2.93,0,0,1-.749-2.285,3.12,3.12,0,0,1,.9-2.472,4.151,4.151,0,0,1,2.772-.787h5.919v2.173h-4.87a3.316,3.316,0,0,0-1.536.225.826.826,0,0,0-.375.749.849.849,0,0,0,.3.712,1.7,1.7,0,0,0,.974.225h2.51a3.915,3.915,0,0,1,2.622.787,2.908,2.908,0,0,1,.9,2.285,3.454,3.454,0,0,1-.787,2.36,2.589,2.589,0,0,1-2.06.9h-7.118V205.4Z" transform="translate(-871.966 -183.137)" fill="#fff"/>
        <path id="Path_11413" data-name="Path 11413" d="M1223.343,146.011h-7.38a2.83,2.83,0,0,0-1.76.45,1.682,1.682,0,0,0-.562,1.423,1.355,1.355,0,0,0,.487,1.161,2.157,2.157,0,0,0,1.424.375h3.933a5.04,5.04,0,0,1,3.484.936,3.993,3.993,0,0,1,1.049,3.072,4.047,4.047,0,0,1-1.2,3.222,5.74,5.74,0,0,1-3.746,1.011h-7.979v-2.547h7.492a3.055,3.055,0,0,0,1.8-.375,1.81,1.81,0,0,0,.038-2.51,2.6,2.6,0,0,0-1.648-.375h-3.521a5.5,5.5,0,0,1-3.6-.974,3.889,3.889,0,0,1-1.124-3.109,4.166,4.166,0,0,1,1.2-3.3,5.569,5.569,0,0,1,3.783-1.049h7.83Z" transform="translate(-1124.442 -133.226)" fill="#fff"/>
        <path id="Path_11414" data-name="Path 11414" d="M1429.116,200.408a5.194,5.194,0,0,1-1.5,3.933,5.5,5.5,0,0,1-4.008,1.461,5.587,5.587,0,0,1-4.046-1.461,5.863,5.863,0,0,1,0-7.829,5.587,5.587,0,0,1,4.046-1.461,5.5,5.5,0,0,1,4.008,1.461,5.249,5.249,0,0,1,1.5,3.9m-8.167,0a3.445,3.445,0,0,0,.712,2.323,2.369,2.369,0,0,0,1.948.824,2.417,2.417,0,0,0,1.948-.824,3.38,3.38,0,0,0,.712-2.323,3.445,3.445,0,0,0-.712-2.323,2.368,2.368,0,0,0-1.948-.824,2.418,2.418,0,0,0-1.948.824,3.446,3.446,0,0,0-.712,2.323" transform="translate(-1317.216 -181.179)" fill="#fff"/>
        <rect id="Rectangle_2427" data-name="Rectangle 2427" width="2.884" height="14.198" transform="translate(113.511 10.238)" fill="#fff"/>
        <path id="Path_11415" data-name="Path 11415" d="M1678.311,207.082H1673.1a4.886,4.886,0,0,1-3.3-.9,3.731,3.731,0,0,1-1.011-2.922v-6.593h2.735v6.368a1.8,1.8,0,0,0,.375,1.386,2.175,2.175,0,0,0,1.461.337h2.21V196.63h2.735Z" transform="translate(-1550.115 -182.646)" fill="#fff"/>
        <path id="Path_11416" data-name="Path 11416" d="M1822.6,147.741h1.949v-3.783h2.735v3.783h2.922v2.06h-2.922V154a2.452,2.452,0,0,0,.412,1.611,1.757,1.757,0,0,0,1.386.45h1.124v2.06h-2.51a2.92,2.92,0,0,1-2.323-.862,3.473,3.473,0,0,1-.824-2.435v-5.095H1822.6Z" transform="translate(-1692.982 -133.72)" fill="#fff"/>
        <path id="Path_11417" data-name="Path 11417" d="M1955.069,146.542h-2.884v-2.585h2.884Zm0,11.613h-2.884V147.741h2.884Z" transform="translate(-1813.351 -133.719)" fill="#fff"/>
        <path id="Path_11418" data-name="Path 11418" d="M2027.5,200.408a5.194,5.194,0,0,1-1.5,3.933,5.5,5.5,0,0,1-4.008,1.461,5.586,5.586,0,0,1-4.046-1.461,5.863,5.863,0,0,1,0-7.829,5.587,5.587,0,0,1,4.046-1.461,5.5,5.5,0,0,1,4.008,1.461,5.108,5.108,0,0,1,1.5,3.9m-8.167,0a3.445,3.445,0,0,0,.712,2.323,2.368,2.368,0,0,0,1.948.824,2.418,2.418,0,0,0,1.948-.824,3.381,3.381,0,0,0,.711-2.323,3.445,3.445,0,0,0-.712-2.323,2.368,2.368,0,0,0-1.948-.824,2.418,2.418,0,0,0-1.948.824,3.654,3.654,0,0,0-.712,2.323" transform="translate(-1873.043 -181.179)" fill="#fff"/>
        <path id="Path_11419" data-name="Path 11419" d="M2195.541,197.158h5.169a4.867,4.867,0,0,1,3.334.9,3.731,3.731,0,0,1,1.011,2.922v6.593h-2.734v-6.256c0-.787-.112-1.274-.375-1.5a2.176,2.176,0,0,0-1.461-.337h-2.21v8.129h-2.734Z" transform="translate(-2039.4 -183.137)" fill="#fff"/>
        <path id="Path_11420" data-name="Path 11420" d="M2357.966,205.4h5.806a2.1,2.1,0,0,0,1.124-.225.875.875,0,0,0,.337-.787.9.9,0,0,0-.375-.787,2.058,2.058,0,0,0-1.124-.262h-2.36a4.591,4.591,0,0,1-2.847-.637,2.987,2.987,0,0,1-.749-2.285,3.12,3.12,0,0,1,.9-2.472,4.151,4.151,0,0,1,2.772-.787h5.919v2.173h-4.87a3.315,3.315,0,0,0-1.536.225.826.826,0,0,0-.375.749.85.85,0,0,0,.3.712,1.7,1.7,0,0,0,.974.225h2.51a3.914,3.914,0,0,1,2.622.787,2.908,2.908,0,0,1,.9,2.285,3.456,3.456,0,0,1-.787,2.36,2.59,2.59,0,0,1-2.06.9h-7.118V205.4Z" transform="translate(-2190.1 -183.137)" fill="#fff"/>
        <path id="Path_11421" data-name="Path 11421" d="M760.3,409.963l3.259,7.455h-.936l-.937-2.21h-2.809l-.937,2.21H757Zm0,1.873-1.124,2.622h2.285Z" transform="translate(-703.164 -380.807)" fill="#fff"/>
        <path id="Path_11422" data-name="Path 11422" d="M897.589,413.4a2.292,2.292,0,0,1,1.049.787,2.223,2.223,0,0,1-.3,2.735,2.525,2.525,0,0,1-3.072.15,2.362,2.362,0,0,1-.787-1.236l.787-.375a1.745,1.745,0,0,0,.524.974,1.215,1.215,0,0,0,.9.337,1.445,1.445,0,0,0,1.049-.375,1.3,1.3,0,0,0,.412-.974,1.211,1.211,0,0,0-.262-.824,2.046,2.046,0,0,0-.824-.6l-.862-.375a2.11,2.11,0,0,1-1.049-.787,1.821,1.821,0,0,1-.337-1.124,1.623,1.623,0,0,1,.562-1.274,2.091,2.091,0,0,1,1.461-.487,2.262,2.262,0,0,1,1.124.262,2.012,2.012,0,0,1,.749.824l-.712.45a2.271,2.271,0,0,0-.524-.637,1.022,1.022,0,0,0-.674-.187,1.073,1.073,0,0,0-.787.3,1.1,1.1,0,0,0-.075,1.424,2.152,2.152,0,0,0,.712.487Z" transform="translate(-830.867 -380.798)" fill="#fff"/>
        <path id="Path_11423" data-name="Path 11423" d="M967.7,451.377a2.61,2.61,0,0,1,.187-.937,2.435,2.435,0,1,1,0,1.873,2,2,0,0,1-.187-.937m.787,0a1.582,1.582,0,0,0,.487,1.2,1.5,1.5,0,0,0,1.161.487,1.424,1.424,0,0,0,1.124-.487,1.733,1.733,0,0,0,.487-1.2,1.582,1.582,0,0,0-.487-1.2,1.478,1.478,0,0,0-1.124-.487,1.557,1.557,0,0,0-1.161.487,1.8,1.8,0,0,0-.487,1.2" transform="translate(-898.88 -417.014)" fill="#fff"/>
        <path id="Path_11424" data-name="Path 11424" d="M1044.411,414.462V410.6h-.862v-.637h.862v-1.311a2.714,2.714,0,0,1,.3-1.5,1.156,1.156,0,0,1,1.011-.375,1.038,1.038,0,0,1,.337.037.708.708,0,0,1,.3.075v.787c-.112-.037-.187-.112-.3-.112a.825.825,0,0,0-.3-.037.453.453,0,0,0-.45.225,2.907,2.907,0,0,0-.112,1.049V410h1.2v.637h-1.161V414.5h-.824Z" transform="translate(-969.335 -377.852)" fill="#fff"/>
        <path id="Path_11425" data-name="Path 11425" d="M1084.405,428.727h-.824v-.637h.824v-1.8h.787v1.8h.824v.637h-.824v3.858h-.787Z" transform="translate(-1006.52 -395.975)" fill="#fff"/>
        <path id="Path_11426" data-name="Path 11426" d="M1122.884,449.466l1.349,3.222,1.2-3.034h.861l-1.986,4.758-1.461-3.446-1.461,3.446-1.985-4.758h.861l1.2,3.034,1.349-3.222Z" transform="translate(-1039.791 -417.501)" fill="#fff"/>
        <path id="Path_11427" data-name="Path 11427" d="M1227.66,449.622v4.458h-.749v-.786a2.2,2.2,0,0,1-.674.749,1.61,1.61,0,0,1-.937.262,1.911,1.911,0,0,1-1.536-.674,2.96,2.96,0,0,1-.038-3.521,1.882,1.882,0,0,1,1.536-.637,1.654,1.654,0,0,1,.974.262,1.9,1.9,0,0,1,.674.749v-.825h.749Zm-.749,2.285a1.965,1.965,0,0,0-.412-1.236,1.386,1.386,0,0,0-1.086-.45,1.5,1.5,0,0,0-1.086.412,1.706,1.706,0,0,0-.375,1.2,1.745,1.745,0,0,0,.375,1.236,1.385,1.385,0,0,0,1.086.45,1.5,1.5,0,0,0,1.086-.412,1.72,1.72,0,0,0,.412-1.2" transform="translate(-1136.176 -417.507)" fill="#fff"/>
        <path id="Path_11428" data-name="Path 11428" d="M1307.975,454.582v-4.458h.674v.937a2.17,2.17,0,0,1,.637-.824,1.564,1.564,0,0,1,.862-.262.637.637,0,0,1,.262.037c.075.037.187.037.262.075l-.262.674c-.075-.037-.187-.037-.262-.075-.075,0-.15-.037-.225-.037a.981.981,0,0,0-.9.45,2.513,2.513,0,0,0-.3,1.311v2.173Z" transform="translate(-1214.955 -417.972)" fill="#fff"/>
        <path id="Path_11429" data-name="Path 11429" d="M1356.567,451.489h-3.559v.075a1.688,1.688,0,0,0,.412,1.161,1.386,1.386,0,0,0,1.086.45,1.6,1.6,0,0,0,.824-.225,2.16,2.16,0,0,0,.637-.749l.6.375a2.223,2.223,0,0,1-.862.9,2.118,2.118,0,0,1-1.2.3,2.146,2.146,0,0,1-1.648-.674,2.536,2.536,0,0,1-.637-1.761,2.442,2.442,0,0,1,.637-1.723,2.065,2.065,0,0,1,1.611-.674,2.03,2.03,0,0,1,1.573.637,2.512,2.512,0,0,1,.562,1.723v.187Zm-.824-.637a1.2,1.2,0,0,0-.412-.9,1.339,1.339,0,0,0-.974-.337,1.369,1.369,0,0,0-.936.337,1.273,1.273,0,0,0-.413.9Z" transform="translate(-1256.055 -417.014)" fill="#fff"/>
        <path id="Path_11430" data-name="Path 11430" d="M1472.32,420.837v-7.192h1.685a6.364,6.364,0,0,1,1.049.075,1.719,1.719,0,0,1,.6.262,1.321,1.321,0,0,1,.487.674,2.458,2.458,0,0,1,.187.937,1.7,1.7,0,0,1-.487,1.349,2.093,2.093,0,0,1-1.424.45h-.15L1477,420.8h-1.086l-2.622-3.409h-.112V420.8h-.861Zm.824-6.443v2.4h.637a2.274,2.274,0,0,0,1.349-.262,1.106,1.106,0,0,0,.337-.9,1.227,1.227,0,0,0-.337-.974,2.209,2.209,0,0,0-1.311-.262Z" transform="translate(-1367.612 -384.227)" fill="#fff"/>
        <path id="Path_11431" data-name="Path 11431" d="M1546.2,451.489h-3.559v.075a1.688,1.688,0,0,0,.412,1.161,1.385,1.385,0,0,0,1.086.45,1.6,1.6,0,0,0,.824-.225,2.161,2.161,0,0,0,.637-.749l.6.375a2.224,2.224,0,0,1-.862.9,2.118,2.118,0,0,1-1.2.3,2.146,2.146,0,0,1-1.648-.674,2.536,2.536,0,0,1-.637-1.761,2.442,2.442,0,0,1,.637-1.723,2.065,2.065,0,0,1,1.611-.674,2.03,2.03,0,0,1,1.573.637,2.511,2.511,0,0,1,.562,1.723v.187Zm-.824-.637a1.2,1.2,0,0,0-.412-.9,1.339,1.339,0,0,0-.974-.337,1.369,1.369,0,0,0-.936.337,1.273,1.273,0,0,0-.413.9Z" transform="translate(-1432.198 -417.014)" fill="#fff"/>
        <path id="Path_11432" data-name="Path 11432" d="M1610.956,456.33l-2.21-4.758h.862l1.349,3.109,1.349-3.109h.861Z" transform="translate(-1494.336 -419.457)" fill="#fff"/>
        <path id="Path_11433" data-name="Path 11433" d="M1677.224,451.377a2.607,2.607,0,0,1,.187-.937,2.435,2.435,0,0,1,4.5,0,2.436,2.436,0,0,1,0,1.873,2.435,2.435,0,0,1-4.5,0,2,2,0,0,1-.187-.937m.824,0a1.582,1.582,0,0,0,.487,1.2,1.5,1.5,0,0,0,1.161.487,1.425,1.425,0,0,0,1.124-.487,1.733,1.733,0,0,0,.487-1.2,1.582,1.582,0,0,0-.487-1.2,1.425,1.425,0,0,0-1.124-.487,1.557,1.557,0,0,0-1.161.487,1.64,1.64,0,0,0-.487,1.2" transform="translate(-1557.944 -417.014)" fill="#fff"/>
        <rect id="Rectangle_2428" data-name="Rectangle 2428" width="0.787" height="7.567" transform="translate(125.386 29.043)" fill="#fff"/>
        <path id="Path_11434" data-name="Path 11434" d="M1796.529,451.576v2.21a2.387,2.387,0,0,0,.3,1.349,1.454,1.454,0,0,0,1.949,0,2.432,2.432,0,0,0,.262-1.349v-2.21h.787V454.2a1.841,1.841,0,0,1-2.061,2.061,2.019,2.019,0,0,1-1.5-.524,2.114,2.114,0,0,1-.525-1.536v-2.622Z" transform="translate(-1668.034 -419.461)" fill="#fff"/>
        <path id="Path_11435" data-name="Path 11435" d="M1864.515,428.727h-.824v-.637h.824v-1.8h.787v1.8h.824v.637h-.824v3.858h-.787Z" transform="translate(-1731.15 -395.975)" fill="#fff"/>
        <path id="Path_11436" data-name="Path 11436" d="M1907.928,413.659a.563.563,0,0,1,.15-.412.511.511,0,0,1,.412-.15.519.519,0,0,1,.562.471.563.563,0,0,1,0,.091.434.434,0,0,1-.15.375.511.511,0,0,1-.412.15.563.563,0,0,1-.412-.15.5.5,0,0,1-.15-.375m.187,2.21h.787v4.458h-.787Z" transform="translate(-1772.241 -383.716)" fill="#fff"/>
        <path id="Path_11437" data-name="Path 11437" d="M1939.016,451.377a2.61,2.61,0,0,1,.187-.937,2.435,2.435,0,1,1,0,1.873,2.609,2.609,0,0,1-.187-.937m.824,0a1.583,1.583,0,0,0,.487,1.2,1.5,1.5,0,0,0,1.161.487,1.425,1.425,0,0,0,1.124-.487,1.734,1.734,0,0,0,.487-1.2,1.583,1.583,0,0,0-.487-1.2,1.425,1.425,0,0,0-1.124-.487,1.557,1.557,0,0,0-1.161.487,1.64,1.64,0,0,0-.487,1.2" transform="translate(-1801.118 -417.014)" fill="#fff"/>
        <path id="Path_11438" data-name="Path 11438" d="M2024.348,454.108V449.65h.749v.674a1.664,1.664,0,0,1,.712-.637,1.924,1.924,0,0,1,.937-.225,1.819,1.819,0,0,1,1.236.413,1.5,1.5,0,0,1,.449,1.161v3.034h-.787v-2.622a1.551,1.551,0,0,0-.3-1.011,1.106,1.106,0,0,0-.9-.337,1.75,1.75,0,0,0-.637.112,1.023,1.023,0,0,0-.45.337.836.836,0,0,0-.187.412,3.42,3.42,0,0,0-.075.787v2.323h-.749Z" transform="translate(-1880.381 -417.497)" fill="#fff"/>
        <path id="Path_11439" data-name="Path 11439" d="M20.687,32.96A15.166,15.166,0,1,1,31.482,7.143a17.422,17.422,0,1,0-2.7,23.477,15.09,15.09,0,0,1-8.091,2.341" transform="translate(0 0)" fill="#fff"/>
        <path id="Path_11440" data-name="Path 11440" d="M123.286,71.247A12.3,12.3,0,1,1,104.86,83.268c-.013.241-.02.483-.02.727a13.628,13.628,0,1,0,18.446-12.749" transform="translate(-97.384 -66.18)" fill="#fff"/>
        <path id="Path_11441" data-name="Path 11441" d="M145.439,84.484a10.1,10.1,0,0,0-9.675,7.213,8.876,8.876,0,1,1,5.786,12.2,10.1,10.1,0,1,0,3.89-19.412" transform="translate(-126.109 -78.476)" fill="#fff"/>
      </g>
    </g>
  </g>
</svg>
