<svg id="Group_10596" data-name="Group 10596" xmlns="http://www.w3.org/2000/svg" width="325" height="59.632" viewBox="0 0 325 59.632">
  <g id="Group_10598" data-name="Group 10598" transform="translate(0 0)">
    <path id="Path_35077" data-name="Path 35077" d="M82.6,10.586c-3.041,0-5.157.926-6.479,2.777s-1.983,4.892-1.983,9.255c0,3.7.661,6.347,1.851,7.8,1.322,1.454,3.438,2.248,6.611,2.248H94.5v5.95H82.2a25.838,25.838,0,0,1-6.347-.661,11.461,11.461,0,0,1-4.363-2.248,12.884,12.884,0,0,1-3.967-5.421A20.791,20.791,0,0,1,66.2,22.353c0-5.95,1.322-10.445,3.967-13.222C72.811,6.222,76.91,4.9,82.463,4.9H94.5v5.818H82.6Z" transform="translate(21.331 1.579)" fill="#369bc2"/>
    <path id="Path_35078" data-name="Path 35078" d="M92.1,23.047a41.5,41.5,0,0,1,.793-9.52A9.941,9.941,0,0,1,95.67,8.634a11.994,11.994,0,0,1,5.289-2.909,29.167,29.167,0,0,1,8.2-.926h11.107v5.95H108.628c-3.173,0-5.421.661-6.876,1.983S99.637,16.171,99.5,19.08h20.759V24.9H99.372V38.781H92.1Z" transform="translate(29.676 1.547)" fill="#369bc2"/>
    <g id="Group_10597" data-name="Group 10597">
      <path id="Path_35079" data-name="Path 35079" d="M132.8,10.586c-3.041,0-5.157.926-6.479,2.777s-1.983,4.892-1.983,9.255c0,3.7.661,6.347,1.851,7.8,1.322,1.454,3.438,2.248,6.611,2.248h11.9v5.95H132.4a25.838,25.838,0,0,1-6.347-.661,11.461,11.461,0,0,1-4.363-2.248,12.884,12.884,0,0,1-3.967-5.421,20.791,20.791,0,0,1-1.322-7.933c0-5.95,1.322-10.445,3.967-13.222,2.644-2.909,6.743-4.231,12.3-4.231H144.7v5.818H132.8Z" transform="translate(37.506 1.579)" fill="#fff"/>
      <path id="Path_35080" data-name="Path 35080" d="M153.544,4.8h7.669l14.809,33.849h-8.066l-3.173-8.065H149.842L146.8,38.649H139Zm3.57,6.743L152.09,24.5H162.4Z" transform="translate(44.788 1.546)" fill="#fff"/>
      <path id="Path_35081" data-name="Path 35081" d="M199.172,10.914H181.19a7.08,7.08,0,0,0-4.231,1.058,3.855,3.855,0,0,0-1.322,3.306,3.415,3.415,0,0,0,1.19,2.777,5.087,5.087,0,0,0,3.438.926h9.652c3.967,0,6.743.793,8.462,2.248s2.512,3.967,2.512,7.4-.926,6.082-2.909,7.669-5.024,2.512-9.123,2.512h-19.3V32.6h18.114c2.116,0,3.57-.264,4.363-.926a3.412,3.412,0,0,0,1.322-2.909,3.618,3.618,0,0,0-1.19-3.041c-.793-.661-2.116-.926-3.967-.926H179.6q-5.95,0-8.727-2.38c-1.851-1.587-2.777-3.967-2.777-7.4,0-3.57.926-6.214,2.909-7.8,1.983-1.719,5.024-2.512,9.255-2.512H199.3v6.214Z" transform="translate(54.164 1.514)" fill="#fff"/>
      <path id="Path_35082" data-name="Path 35082" d="M206.107,10.718H195V4.9h29.882v5.95H213.643v27.9h-7.537Z" transform="translate(62.832 1.579)" fill="#fff"/>
      <path id="Path_35083" data-name="Path 35083" d="M250.572,10.914H232.59a7.08,7.08,0,0,0-4.231,1.058,3.855,3.855,0,0,0-1.322,3.306,3.415,3.415,0,0,0,1.19,2.777,5.087,5.087,0,0,0,3.438.926h9.652c3.967,0,6.743.793,8.462,2.248s2.512,3.967,2.512,7.4-.926,6.082-2.909,7.669-5.024,2.512-9.123,2.512h-19.3V32.6h18.114c2.116,0,3.57-.264,4.363-.926a3.412,3.412,0,0,0,1.322-2.909,3.618,3.618,0,0,0-1.19-3.041c-.793-.661-2.116-.926-3.967-.926H231q-5.95,0-8.727-2.38c-1.851-1.587-2.777-3.967-2.777-7.4,0-3.57.926-6.214,2.909-7.8,1.983-1.719,5.024-2.512,9.255-2.512h18.908Z" transform="translate(70.726 1.514)" fill="#fff"/>
    </g>
    <path id="Path_35084" data-name="Path 35084" d="M10.049,0H61.88A10.044,10.044,0,0,1,71.928,10.049V41.121A10.044,10.044,0,0,1,61.88,51.17H10.049A10.044,10.044,0,0,1,0,41.121V9.917A9.932,9.932,0,0,1,10.049,0" transform="translate(0 0)" fill="#343434"/>
    <path id="Path_35085" data-name="Path 35085" d="M19.9,7.9V38.046L45.022,22.709Z" transform="translate(6.412 2.545)" fill="#369bc2"/>
    <g id="Group_10599" data-name="Group 10599">
      <path id="Path_35086" data-name="Path 35086" d="M159.77,37.641a2.724,2.724,0,0,1,2.248.926,4.338,4.338,0,0,1,.793,2.777,4.338,4.338,0,0,1-.793,2.777,2.824,2.824,0,0,1-2.248,1.058,3.912,3.912,0,0,1-1.322-.264,2.056,2.056,0,0,1-1.058-.793h-.132l-.264.926H156.2V34.6h1.19v4.1a2.905,2.905,0,0,1,2.38-1.058m-.132.926a2.284,2.284,0,0,0-1.719.661,3.307,3.307,0,0,0-.529,2.248,3.536,3.536,0,0,0,.529,2.248,2.284,2.284,0,0,0,1.719.661,1.885,1.885,0,0,0,1.587-.793,3.355,3.355,0,0,0,.529-2.116,3.126,3.126,0,0,0-.529-2.116,1.885,1.885,0,0,0-1.587-.793" transform="translate(50.33 11.148)" fill="#fff"/>
      <path id="Path_35087" data-name="Path 35087" d="M161.9,37h1.19l1.587,4.231a11.947,11.947,0,0,1,.661,2.116,3.044,3.044,0,0,1,.4-1.19c.264-.529.793-2.248,1.851-5.024h1.19l-3.173,8.33a3.489,3.489,0,0,1-1.058,1.719,2.108,2.108,0,0,1-1.587.529,2.911,2.911,0,0,1-1.058-.132v-.926c.264,0,.529.132.793.132a1.78,1.78,0,0,0,1.719-1.322l.4-1.058Z" transform="translate(52.166 11.922)" fill="#fff"/>
      <path id="Path_35088" data-name="Path 35088" d="M179.755,40.024a5.416,5.416,0,0,1-1.19,3.7,5.13,5.13,0,0,1-6.876,0,5.416,5.416,0,0,1-1.19-3.7,5.416,5.416,0,0,1,1.19-3.7A4.3,4.3,0,0,1,175.128,35a4.02,4.02,0,0,1,3.306,1.322,5.473,5.473,0,0,1,1.322,3.7m-7.933,0a4.2,4.2,0,0,0,.926,3.041,3.512,3.512,0,0,0,5.024,0,4.912,4.912,0,0,0,.793-3.041,4.912,4.912,0,0,0-.793-3.041,3.512,3.512,0,0,0-5.024,0,4.408,4.408,0,0,0-.926,3.041" transform="translate(54.938 11.277)" fill="#fff"/>
      <path id="Path_35089" data-name="Path 35089" d="M182.538,36.9a1.961,1.961,0,0,1,.926.132l-.132,1.058a1.677,1.677,0,0,0-.793-.132,2.19,2.19,0,0,0-1.587.661,2.866,2.866,0,0,0-.661,1.851v3.967H179.1v-7.4h.926l.132,1.322a2.707,2.707,0,0,1,1.058-1.058,2.234,2.234,0,0,1,1.322-.4" transform="translate(57.708 11.89)" fill="#fff"/>
      <path id="Path_35090" data-name="Path 35090" d="M186.138,43.93h.529c.132,0,.4,0,.4-.132v.793c-.132,0-.264.132-.529.132h-.661c-1.454,0-2.116-.793-2.116-2.248V38.112H182.7v-.529l1.058-.4.529-1.587h.661v1.719h2.116v.926h-2.116v4.363a2.491,2.491,0,0,0,.264,1.058c.132.264.529.264.926.264" transform="translate(58.868 11.471)" fill="#fff"/>
      <path id="Path_35091" data-name="Path 35091" d="M188.258,37.032v4.76a1.456,1.456,0,0,0,1.719,1.719,2.284,2.284,0,0,0,1.719-.661,2.915,2.915,0,0,0,.529-2.116V36.9h1.19v7.4h-.926l-.264-.926a1.778,1.778,0,0,1-.926.793,4.753,4.753,0,0,1-1.454.264,2.337,2.337,0,0,1-2.644-2.644v-4.76Z" transform="translate(60.318 11.89)" fill="#fff"/>
      <path id="Path_35092" data-name="Path 35092" d="M198.621,42.386a1.885,1.885,0,0,1-.793,1.587,3.536,3.536,0,0,1-2.248.529,4.241,4.241,0,0,1-2.38-.529V42.914l1.19.4a3.661,3.661,0,0,0,1.19.132,3.318,3.318,0,0,0,1.322-.264,1.087,1.087,0,0,0,.529-.793,1.143,1.143,0,0,0-.4-.793,5.067,5.067,0,0,0-1.454-.661c-.661-.264-1.19-.529-1.454-.661a1.593,1.593,0,0,1-.661-.661,1.911,1.911,0,0,1-.264-.926,1.659,1.659,0,0,1,.793-1.454,3.187,3.187,0,0,1,1.983-.529,5.186,5.186,0,0,1,2.38.529l-.4.926a6.526,6.526,0,0,0-1.983-.4,2.64,2.64,0,0,0-1.19.264.727.727,0,0,0-.4.661.8.8,0,0,0,.132.529,1.825,1.825,0,0,0,.529.4c.264.132.661.264,1.322.529a5.906,5.906,0,0,1,1.851.926,2.234,2.234,0,0,1,.4,1.322" transform="translate(62.251 11.825)" fill="#fff"/>
      <path id="Path_35093" data-name="Path 35093" d="M207.447,42.4a2.087,2.087,0,0,1-.926,1.983,3.941,3.941,0,0,1-2.644.661,7.725,7.725,0,0,1-2.777-.4V43.594c.4.132.793.264,1.322.4a5.423,5.423,0,0,0,1.454.132,3,3,0,0,0,1.719-.4,1.289,1.289,0,0,0,.529-1.19,1.118,1.118,0,0,0-.264-.793c-.132-.264-.4-.4-.661-.661-.264-.132-.793-.4-1.454-.661a3.632,3.632,0,0,1-1.983-1.19,2.785,2.785,0,0,1-.661-1.719,2.144,2.144,0,0,1,.926-1.851A3.25,3.25,0,0,1,204.273,35a6.5,6.5,0,0,1,2.777.529l-.4,1.058a5.186,5.186,0,0,0-2.38-.529,2.375,2.375,0,0,0-1.454.4,1.2,1.2,0,0,0-.529,1.058c0,.4,0,.661.132.793.132.264.4.4.661.661.264.132.793.4,1.454.661a5.932,5.932,0,0,1,2.116,1.19,1.731,1.731,0,0,1,.793,1.587" transform="translate(64.797 11.277)" fill="#fff"/>
      <path id="Path_35094" data-name="Path 35094" d="M213.843,40.634a3.725,3.725,0,0,1-.926,2.777,3.385,3.385,0,0,1-2.512,1.058,2.438,2.438,0,0,1-1.719-.529,2.894,2.894,0,0,1-1.19-1.322,4.416,4.416,0,0,1-.4-1.983,3.725,3.725,0,0,1,.926-2.777,3.512,3.512,0,0,1,5.024,0,6.2,6.2,0,0,1,.793,2.777m-5.818,0a3.355,3.355,0,0,0,.529,2.116,2.259,2.259,0,0,0,3.438,0,3.355,3.355,0,0,0,.529-2.116,3.355,3.355,0,0,0-.529-2.116,1.888,1.888,0,0,0-1.719-.661,2.284,2.284,0,0,0-1.719.661,4.506,4.506,0,0,0-.529,2.116" transform="translate(66.73 11.857)" fill="#fff"/>
      <rect id="Rectangle_3031" data-name="Rectangle 3031" width="1.19" height="10.445" transform="translate(282.425 45.749)" fill="#fff"/>
      <path id="Path_35095" data-name="Path 35095" d="M217.326,37.032v4.76a1.456,1.456,0,0,0,1.719,1.719,2.284,2.284,0,0,0,1.719-.661,2.915,2.915,0,0,0,.529-2.116V36.9h1.19v7.4h-.926l-.132-.926a1.778,1.778,0,0,1-.926.793,4.753,4.753,0,0,1-1.454.264,2.337,2.337,0,0,1-2.644-2.644v-4.76h.926" transform="translate(69.727 11.89)" fill="#fff"/>
      <path id="Path_35096" data-name="Path 35096" d="M225.538,43.93h.529c.132,0,.4,0,.4-.132v.793c-.132,0-.264.132-.529.132h-.661c-1.454,0-2.116-.793-2.116-2.248V38.112H222.1v-.529l1.058-.4.529-1.587h.661v1.719h2.116v.926h-2.116v4.363a2.491,2.491,0,0,0,.264,1.058c.132.264.529.264.926.264" transform="translate(71.563 11.471)" fill="#fff"/>
      <path id="Path_35097" data-name="Path 35097" d="M226.5,35.661c0-.264,0-.4.132-.529s.264-.132.529-.132a.8.8,0,0,1,.529.132c.132.132.132.264.132.529s0,.4-.132.529-.264.132-.529.132a.8.8,0,0,1-.529-.132c-.132-.132-.132-.264-.132-.529m1.19,9.255H226.5v-7.4h1.19Z" transform="translate(72.981 11.277)" fill="#fff"/>
      <path id="Path_35098" data-name="Path 35098" d="M235.743,40.634a3.725,3.725,0,0,1-.926,2.777,3.385,3.385,0,0,1-2.512,1.058,2.438,2.438,0,0,1-1.719-.529,2.894,2.894,0,0,1-1.19-1.322,4.416,4.416,0,0,1-.4-1.983,3.725,3.725,0,0,1,.926-2.777,3.512,3.512,0,0,1,5.024,0,4.888,4.888,0,0,1,.793,2.777m-5.686,0a3.355,3.355,0,0,0,.529,2.116,2.259,2.259,0,0,0,3.438,0,3.355,3.355,0,0,0,.529-2.116,3.355,3.355,0,0,0-.529-2.116,1.888,1.888,0,0,0-1.719-.661,2.284,2.284,0,0,0-1.719.661,4.507,4.507,0,0,0-.529,2.116" transform="translate(73.787 11.857)" fill="#fff"/>
      <path id="Path_35099" data-name="Path 35099" d="M240.757,44.272v-4.76a1.456,1.456,0,0,0-1.719-1.719,2.284,2.284,0,0,0-1.719.661,2.915,2.915,0,0,0-.529,2.116V44.4H235.6V37h.926l.132,1.058a1.778,1.778,0,0,1,.926-.793A2.615,2.615,0,0,1,239.038,37a2.337,2.337,0,0,1,2.644,2.644V44.4h-.926Z" transform="translate(75.914 11.922)" fill="#fff"/>
      <path id="Path_35100" data-name="Path 35100" d="M247.121,42.386a1.885,1.885,0,0,1-.793,1.587,3.536,3.536,0,0,1-2.248.529,4.241,4.241,0,0,1-2.38-.529V42.914l1.19.4a3.661,3.661,0,0,0,1.19.132,3.318,3.318,0,0,0,1.322-.264,1.087,1.087,0,0,0,.529-.793,1.143,1.143,0,0,0-.4-.793,5.067,5.067,0,0,0-1.454-.661c-.661-.264-1.19-.529-1.454-.661a1.593,1.593,0,0,1-.661-.661,1.911,1.911,0,0,1-.264-.926,1.659,1.659,0,0,1,.793-1.454,3.187,3.187,0,0,1,1.983-.529,5.186,5.186,0,0,1,2.38.529l-.4.926a6.526,6.526,0,0,0-1.983-.4,2.64,2.64,0,0,0-1.19.264.727.727,0,0,0-.4.661.8.8,0,0,0,.132.529,1.825,1.825,0,0,0,.529.4c.264.132.661.264,1.322.529a5.906,5.906,0,0,1,1.851.926,2.234,2.234,0,0,1,.4,1.322" transform="translate(77.879 11.825)" fill="#fff"/>
    </g>
  </g>
</svg>
