<svg xmlns="http://www.w3.org/2000/svg" width="480.58" height="99.769" viewBox="0 0 480.58 99.769">
  <g id="Group_7401" data-name="Group 7401" transform="translate(0 0)">
    <g id="Group_10479" data-name="Group 10479" transform="translate(0 0)">
      <g id="Group_10484" data-name="Group 10484">
        <path id="Path_28823" data-name="Path 28823" d="M820.641,304.987H833.1c2.937,0,4.961.506,6.177,1.62,1.215,1.013,1.721,2.937,1.721,5.569v4.658h-7.088v-3.645a3.086,3.086,0,0,0-.608-2.228,3.984,3.984,0,0,0-2.633-.608h-2.633v22.783h-7.392Z" transform="translate(-718.662 -267.087)"/>
        <path id="Path_28824" data-name="Path 28824" d="M999.9,232.916h5.266V222.689h7.392v10.227h7.9v5.569h-7.9v11.341c0,2.126.405,3.544,1.114,4.354s1.924,1.215,3.747,1.215h3.037v5.569h-6.784c-2.734,0-4.861-.709-6.278-2.329a9.388,9.388,0,0,1-2.228-6.582V238.283H999.9Z" transform="translate(-875.648 -195.016)"/>
        <path id="Path_28825" data-name="Path 28825" d="M1225.157,332.423h-13.973c-4.152,0-7.088-.81-8.91-2.43s-2.734-4.253-2.734-7.9V304.273h7.392v17.214c0,1.924.3,3.139,1.013,3.747q.91.911,3.949.911h5.974V304.172h7.392v28.251Z" transform="translate(-1050.476 -266.373)"/>
        <path id="Path_28826" data-name="Path 28826" d="M1452.643,327.264h15.695a5.69,5.69,0,0,0,3.038-.608,2.365,2.365,0,0,0,.911-2.126,2.422,2.422,0,0,0-1.013-2.126,5.561,5.561,0,0,0-3.037-.709h-6.379c-3.848,0-6.379-.608-7.7-1.721s-2.025-3.24-2.025-6.177q0-4.557,2.43-6.683c1.62-1.418,4.152-2.127,7.493-2.127h16v5.873H1464.9c-2.126,0-3.544.2-4.152.608a2.235,2.235,0,0,0-1.013,2.025,2.3,2.3,0,0,0,.81,1.924,4.6,4.6,0,0,0,2.633.608h6.784c3.038,0,5.468.709,7.088,2.126a7.863,7.863,0,0,1,2.43,6.177,9.336,9.336,0,0,1-2.126,6.379,7,7,0,0,1-5.569,2.43h-19.239v-5.873Z" transform="translate(-1271.683 -267.087)"/>
        <path id="Path_28853" data-name="Path 28853" d="M55.919,89.091A41,41,0,1,1,85.1,19.306a47.092,47.092,0,1,0-7.308,63.458,40.789,40.789,0,0,1-21.869,6.327" transform="translate(0 0.001)"/>
        <path id="Path_28854" data-name="Path 28854" d="M212.039,110.213a33.252,33.252,0,1,1-49.807,32.494c-.034.651-.053,1.306-.053,1.966a36.836,36.836,0,1,0,49.86-34.46" transform="translate(-142.025 -96.517)"/>
        <path id="Path_28855" data-name="Path 28855" d="M236.169,130.69a27.294,27.294,0,0,0-26.152,19.5,23.992,23.992,0,1,1,15.638,32.976,27.289,27.289,0,1,0,10.514-52.473" transform="translate(-183.919 -114.449)"/>
      </g>
      <g id="Group_10483" data-name="Group 10483" transform="translate(145.52 78.2)">
        <path id="Path_28835" data-name="Path 28835" d="M1179.931,634.18l8.809,20.15h-2.531l-2.531-5.974h-7.595l-2.531,5.974h-2.532Zm0,5.063-3.038,7.088h6.177Z" transform="translate(-1171.02 -633.572)"/>
        <path id="Path_28836" data-name="Path 28836" d="M1392.1,643.5a6.2,6.2,0,0,1,2.835,2.127,6.008,6.008,0,0,1-.81,7.392,6.827,6.827,0,0,1-8.3.4,6.388,6.388,0,0,1-2.126-3.341l2.126-1.013a4.713,4.713,0,0,0,1.417,2.633,3.286,3.286,0,0,0,2.431.911,3.906,3.906,0,0,0,2.835-1.012,3.51,3.51,0,0,0,1.114-2.633,3.271,3.271,0,0,0-.709-2.228,5.535,5.535,0,0,0-2.228-1.62l-2.329-1.013a5.7,5.7,0,0,1-2.835-2.126,4.92,4.92,0,0,1-.911-3.038,4.385,4.385,0,0,1,1.519-3.443,5.651,5.651,0,0,1,3.949-1.316,6.113,6.113,0,0,1,3.038.709,5.44,5.44,0,0,1,2.026,2.228l-1.924,1.215a6.136,6.136,0,0,0-1.418-1.721,2.763,2.763,0,0,0-1.823-.506,2.9,2.9,0,0,0-2.126.81,2.982,2.982,0,0,0-.2,3.848,5.813,5.813,0,0,0,1.924,1.316Z" transform="translate(-1357.264 -633.572)"/>
        <path id="Path_28837" data-name="Path 28837" d="M1496.953,701.06a7.046,7.046,0,0,1,.506-2.531,6.515,6.515,0,0,1,3.545-3.544,6.578,6.578,0,0,1,5.062,0,6.517,6.517,0,0,1,3.544,3.544,6.581,6.581,0,0,1,0,5.063,6.517,6.517,0,0,1-3.544,3.544,6.58,6.58,0,0,1-5.062,0,6.516,6.516,0,0,1-3.545-3.544,5.4,5.4,0,0,1-.506-2.531m2.126,0a4.276,4.276,0,0,0,1.316,3.24,4.06,4.06,0,0,0,3.139,1.317,3.849,3.849,0,0,0,3.038-1.317,4.683,4.683,0,0,0,1.316-3.24,4.278,4.278,0,0,0-1.316-3.24,4,4,0,0,0-3.038-1.316,4.211,4.211,0,0,0-3.139,1.316,4.877,4.877,0,0,0-1.316,3.24" transform="translate(-1456.45 -686.377)"/>
        <path id="Path_28838" data-name="Path 28838" d="M1616.619,650.049v-10.43h-2.329V637.9h2.329v-3.544a7.34,7.34,0,0,1,.81-4.05,3.127,3.127,0,0,1,2.734-1.012,2.8,2.8,0,0,1,.911.1,1.91,1.91,0,0,1,.81.2v2.126c-.3-.1-.506-.3-.81-.3a2.224,2.224,0,0,0-.81-.1,1.225,1.225,0,0,0-1.215.608,7.856,7.856,0,0,0-.3,2.835V638h3.24v1.721h-3.139v10.43h-2.228Z" transform="translate(-1559.206 -629.291)"/>
        <path id="Path_28839" data-name="Path 28839" d="M1678.444,666.022h-2.228V664.3h2.228v-4.86h2.126v4.86h2.228v1.722h-2.228v10.429h-2.126Z" transform="translate(-1613.437 -655.694)"/>
        <path id="Path_28840" data-name="Path 28840" d="M1741.042,695.293l3.646,8.708,3.241-8.2h2.328l-5.366,12.86-3.949-9.316-3.949,9.316-5.367-12.86h2.329l3.24,8.2,3.646-8.708Z" transform="translate(-1661.961 -687.091)"/>
        <path id="Path_28841" data-name="Path 28841" d="M1904.3,695.7v12.05h-2.025v-2.126a5.944,5.944,0,0,1-1.822,2.025,4.35,4.35,0,0,1-2.532.709,5.163,5.163,0,0,1-4.151-1.823,8,8,0,0,1-.1-9.518,5.088,5.088,0,0,1,4.152-1.721,4.462,4.462,0,0,1,2.633.709,5.132,5.132,0,0,1,1.822,2.025V695.8h2.025Zm-2.025,6.177a5.311,5.311,0,0,0-1.114-3.341,3.746,3.746,0,0,0-2.937-1.215,4.051,4.051,0,0,0-2.937,1.114,4.612,4.612,0,0,0-1.013,3.24,4.72,4.72,0,0,0,1.013,3.342,3.746,3.746,0,0,0,2.937,1.215,4.051,4.051,0,0,0,2.937-1.114,4.648,4.648,0,0,0,1.114-3.24" transform="translate(-1802.535 -687.091)"/>
        <path id="Path_28842" data-name="Path 28842" d="M2023.336,708.562V696.512h1.823v2.531a5.86,5.86,0,0,1,1.722-2.228,4.225,4.225,0,0,1,2.328-.709,1.726,1.726,0,0,1,.709.1c.2.1.506.1.708.2l-.708,1.823c-.2-.1-.506-.1-.709-.2-.2,0-.405-.1-.608-.1a2.651,2.651,0,0,0-2.43,1.215,6.794,6.794,0,0,0-.81,3.544v5.873Z" transform="translate(-1917.421 -687.804)"/>
        <path id="Path_28843" data-name="Path 28843" d="M2103.527,701.364h-9.619v.2a4.563,4.563,0,0,0,1.114,3.139,3.746,3.746,0,0,0,2.937,1.215,4.331,4.331,0,0,0,2.227-.608,5.842,5.842,0,0,0,1.721-2.025l1.62,1.013a6,6,0,0,1-2.329,2.43,5.725,5.725,0,0,1-3.24.81,5.8,5.8,0,0,1-4.455-1.823,6.853,6.853,0,0,1-1.722-4.759,6.6,6.6,0,0,1,1.722-4.658,5.581,5.581,0,0,1,4.354-1.823,5.49,5.49,0,0,1,4.253,1.721,6.79,6.79,0,0,1,1.518,4.658v.506Zm-2.227-1.721a3.252,3.252,0,0,0-1.114-2.43,3.616,3.616,0,0,0-2.633-.911,3.7,3.7,0,0,0-2.531.911,3.437,3.437,0,0,0-1.114,2.43Z" transform="translate(-1977.361 -686.378)"/>
        <path id="Path_28844" data-name="Path 28844" d="M2277.564,659.326V639.884h4.557a17.208,17.208,0,0,1,2.835.2,4.648,4.648,0,0,1,1.62.709,3.569,3.569,0,0,1,1.317,1.823,6.63,6.63,0,0,1,.506,2.531,4.6,4.6,0,0,1-1.316,3.645,5.658,5.658,0,0,1-3.848,1.215h-.405l7.391,9.214h-2.936l-7.088-9.214h-.3v9.214h-2.329Zm2.228-17.417v6.48h1.722c1.822,0,3.037-.2,3.645-.709a2.989,2.989,0,0,0,.911-2.43,3.313,3.313,0,0,0-.911-2.633c-.608-.506-1.823-.709-3.544-.709Z" transform="translate(-2140.057 -638.568)"/>
        <path id="Path_28845" data-name="Path 28845" d="M2396.869,701.364h-9.62v.2a4.562,4.562,0,0,0,1.114,3.139,3.743,3.743,0,0,0,2.937,1.215,4.336,4.336,0,0,0,2.227-.608,5.844,5.844,0,0,0,1.721-2.025l1.621,1.013a6.009,6.009,0,0,1-2.329,2.43,5.727,5.727,0,0,1-3.24.81,5.8,5.8,0,0,1-4.456-1.823,6.855,6.855,0,0,1-1.722-4.759,6.6,6.6,0,0,1,1.722-4.658,5.582,5.582,0,0,1,4.354-1.823,5.49,5.49,0,0,1,4.254,1.721,6.792,6.792,0,0,1,1.518,4.658v.506Zm-2.228-1.721a3.253,3.253,0,0,0-1.114-2.43,3.618,3.618,0,0,0-2.633-.911,3.7,3.7,0,0,0-2.531.911,3.434,3.434,0,0,0-1.114,2.43Z" transform="translate(-2234.25 -686.378)"/>
        <path id="Path_28846" data-name="Path 28846" d="M2494.581,711.412l-5.974-12.86h2.329l3.646,8.4,3.645-8.4h2.328Z" transform="translate(-2324.874 -689.945)"/>
        <path id="Path_28847" data-name="Path 28847" d="M2594.535,701.06a7.051,7.051,0,0,1,.506-2.531,6.519,6.519,0,0,1,3.544-3.544,6.579,6.579,0,0,1,5.063,0,6.513,6.513,0,0,1,3.544,3.544,6.581,6.581,0,0,1,0,5.063,6.514,6.514,0,0,1-3.544,3.544,6.581,6.581,0,0,1-5.062,0,6.519,6.519,0,0,1-3.544-3.544,5.4,5.4,0,0,1-.506-2.531m2.228,0a4.278,4.278,0,0,0,1.316,3.24,4.061,4.061,0,0,0,3.139,1.317,3.852,3.852,0,0,0,3.038-1.317,4.683,4.683,0,0,0,1.316-3.24,4.277,4.277,0,0,0-1.316-3.24,3.853,3.853,0,0,0-3.038-1.316,4.213,4.213,0,0,0-3.139,1.316,4.434,4.434,0,0,0-1.316,3.24" transform="translate(-2417.638 -686.377)"/>
        <rect id="Rectangle_2378" data-name="Rectangle 2378" width="2.126" height="20.454" transform="translate(193.401 0.304)"/>
        <path id="Path_28848" data-name="Path 28848" d="M2780,698.552v5.974a6.442,6.442,0,0,0,.81,3.645,3.928,3.928,0,0,0,5.265,0,6.581,6.581,0,0,0,.708-3.645v-5.974h2.127v7.088a4.977,4.977,0,0,1-5.569,5.569,5.459,5.459,0,0,1-4.051-1.417,5.718,5.718,0,0,1-1.417-4.152v-7.088Z" transform="translate(-2578.194 -689.945)"/>
        <path id="Path_28849" data-name="Path 28849" d="M2885.213,666.022h-2.227V664.3h2.227v-4.86h2.126v4.86h2.228v1.722h-2.228v10.429h-2.126Z" transform="translate(-2670.244 -655.694)"/>
        <path id="Path_28850" data-name="Path 28850" d="M2951.431,640.588a1.525,1.525,0,0,1,.405-1.114,1.382,1.382,0,0,1,1.114-.405,1.4,1.4,0,0,1,1.519,1.519,1.173,1.173,0,0,1-.405,1.012,1.382,1.382,0,0,1-1.114.4,1.523,1.523,0,0,1-1.114-.4,1.35,1.35,0,0,1-.405-1.012m.506,5.974h2.126v12.05h-2.126Z" transform="translate(-2730.185 -637.854)"/>
        <path id="Path_28851" data-name="Path 28851" d="M2999.508,701.06a7.061,7.061,0,0,1,.506-2.531,6.511,6.511,0,0,1,3.544-3.544,6.579,6.579,0,0,1,5.063,0,6.511,6.511,0,0,1,3.544,3.544,6.586,6.586,0,0,1,0,5.063,6.512,6.512,0,0,1-3.544,3.544,6.581,6.581,0,0,1-5.062,0,6.512,6.512,0,0,1-3.544-3.544,7.061,7.061,0,0,1-.506-2.531m2.227,0a4.278,4.278,0,0,0,1.317,3.24,4.06,4.06,0,0,0,3.139,1.317,3.85,3.85,0,0,0,3.038-1.317,4.684,4.684,0,0,0,1.317-3.24,4.279,4.279,0,0,0-1.317-3.24,3.851,3.851,0,0,0-3.038-1.316,4.211,4.211,0,0,0-3.139,1.316,4.434,4.434,0,0,0-1.317,3.24" transform="translate(-2772.286 -686.377)"/>
        <path id="Path_28852" data-name="Path 28852" d="M3131.51,707.848V695.8h2.025v1.823a4.5,4.5,0,0,1,1.924-1.721,5.2,5.2,0,0,1,2.532-.608,4.915,4.915,0,0,1,3.341,1.114,4.042,4.042,0,0,1,1.216,3.139v8.2h-2.127v-7.088a4.194,4.194,0,0,0-.809-2.734,2.992,2.992,0,0,0-2.431-.911,4.733,4.733,0,0,0-1.721.3,2.758,2.758,0,0,0-1.214.911,2.236,2.236,0,0,0-.507,1.114,9.208,9.208,0,0,0-.2,2.127v6.278h-2.025Z" transform="translate(-2887.885 -687.09)"/>
      </g>
      <g id="Group_10482" data-name="Group 10482" transform="translate(232.702 27.572)">
        <g id="Group_10481" data-name="Group 10481">
          <path id="Path_28827" data-name="Path 28827" d="M1907.222,228.862h-19.947a7.654,7.654,0,0,0-4.759,1.215,4.548,4.548,0,0,0-1.519,3.848,3.662,3.662,0,0,0,1.316,3.139,5.831,5.831,0,0,0,3.848,1.013h10.632c4.455,0,7.594.81,9.417,2.531,1.823,1.62,2.835,4.455,2.835,8.3,0,3.949-1.113,6.885-3.24,8.708s-5.569,2.734-10.126,2.734h-21.567v-6.886h20.251c2.329,0,3.949-.3,4.86-1.013a4.891,4.891,0,0,0,.1-6.784c-.81-.709-2.329-1.013-4.455-1.013h-9.518c-4.455,0-7.7-.911-9.72-2.633s-3.039-4.557-3.039-8.4c0-4.05,1.115-7.088,3.241-8.911,2.127-1.924,5.569-2.835,10.227-2.835h21.163Z" transform="translate(-1872.591 -221.875)"/>
          <path id="Path_28828" data-name="Path 28828" d="M2223.508,316.208c0,4.455-1.316,8-4.05,10.632s-6.278,3.949-10.834,3.949-8.2-1.316-10.936-3.949-4.051-6.177-4.051-10.531c0-4.455,1.317-8,4.051-10.632s6.379-3.949,10.936-3.949,8.1,1.316,10.834,3.949a14.189,14.189,0,0,1,4.05,10.531m-22.074,0a9.311,9.311,0,0,0,1.924,6.278,6.4,6.4,0,0,0,5.265,2.228,6.536,6.536,0,0,0,5.266-2.228,9.138,9.138,0,0,0,1.924-6.278,9.314,9.314,0,0,0-1.924-6.278,6.4,6.4,0,0,0-5.266-2.228,6.534,6.534,0,0,0-5.265,2.228,9.311,9.311,0,0,0-1.924,6.278" transform="translate(-2153.741 -291.805)"/>
          <rect id="Rectangle_2377" data-name="Rectangle 2377" width="7.797" height="38.377" transform="translate(74.121 0.101)"/>
          <path id="Path_28829" data-name="Path 28829" d="M2607.217,332.423h-14.076c-4.151,0-7.087-.81-8.911-2.43s-2.734-4.253-2.734-7.9V304.273h7.392v17.214c0,1.924.3,3.139,1.012,3.747q.912.911,3.949.911h5.974V304.172h7.392Z" transform="translate(-2493.403 -293.945)"/>
          <path id="Path_28830" data-name="Path 28830" d="M2819.429,232.916h5.266V222.689h7.392v10.227h7.9v5.569h-7.9v11.341c0,2.126.405,3.544,1.114,4.354s1.924,1.215,3.747,1.215h3.037v5.569H2833.2c-2.735,0-4.861-.709-6.279-2.329a9.392,9.392,0,0,1-2.227-6.582V238.283h-5.266Z" transform="translate(-2701.768 -222.588)"/>
          <path id="Path_28831" data-name="Path 28831" d="M3027.674,229.677h-7.8V222.69h7.8Zm0,31.39h-7.8v-28.15h7.8Z" transform="translate(-2877.308 -222.589)"/>
          <path id="Path_28833" data-name="Path 28833" d="M3396.332,304.987H3410.3c4.253,0,7.291.81,9.012,2.43q2.735,2.43,2.734,7.9v17.821h-7.393v-16.91c0-2.126-.3-3.443-1.012-4.05q-.912-.911-3.949-.911h-5.974v21.973h-7.392Z" transform="translate(-3206.98 -294.659)"/>
          <path id="Path_28834" data-name="Path 28834" d="M3647.807,327.264H3663.5a5.7,5.7,0,0,0,3.039-.608,2.367,2.367,0,0,0,.91-2.126,2.423,2.423,0,0,0-1.011-2.126,5.567,5.567,0,0,0-3.038-.709h-6.38c-3.847,0-6.379-.608-7.7-1.721-1.316-1.215-2.024-3.24-2.024-6.177q0-4.557,2.43-6.683c1.62-1.418,4.15-2.127,7.493-2.127h16v5.873h-13.163c-2.126,0-3.545.2-4.152.608a2.235,2.235,0,0,0-1.013,2.025,2.3,2.3,0,0,0,.811,1.924,4.593,4.593,0,0,0,2.633.608h6.784c3.038,0,5.469.709,7.089,2.126a7.864,7.864,0,0,1,2.429,6.177,9.332,9.332,0,0,1-2.126,6.379,7,7,0,0,1-5.569,2.43h-19.239v-5.873Z" transform="translate(-3426.762 -294.659)"/>
        </g>
        <path id="Path_28832" data-name="Path 28832" d="M3149.159,316.208c0,4.455-1.316,8-4.051,10.632s-6.278,3.949-10.834,3.949-8.2-1.316-10.937-3.949-4.049-6.177-4.049-10.531c0-4.455,1.316-8,4.049-10.632s6.381-3.949,10.937-3.949,8.1,1.316,10.834,3.949,4.051,6.075,4.051,10.531m-22.075,0a9.317,9.317,0,0,0,1.924,6.278,6.4,6.4,0,0,0,5.266,2.228,6.535,6.535,0,0,0,5.265-2.228,9.138,9.138,0,0,0,1.924-6.278,9.314,9.314,0,0,0-1.924-6.278,6.4,6.4,0,0,0-5.265-2.228,6.538,6.538,0,0,0-5.266,2.228,9.877,9.877,0,0,0-1.924,6.278" transform="translate(-2964.364 -291.805)"/>
      </g>
    </g>
  </g>
</svg>
