<?xml version="1.0" encoding="utf-8"?>
<!-- Generator: Adobe Illustrator 27.2.0, SVG Export Plug-In . SVG Version: 6.00 Build 0)  -->
<svg version="1.1" id="Layer_1" xmlns="http://www.w3.org/2000/svg" xmlns:xlink="http://www.w3.org/1999/xlink" x="0px" y="0px"
	 viewBox="0 0 230.8 70" style="enable-background:new 0 0 230.8 70;" xml:space="preserve">
<style type="text/css">
	.st0{opacity:0.504;enable-background:new    ;}
	.st1{filter:url(#Adobe_OpacityMaskFilter);}
	.st2{mask:url(#SVGID_1_);}
	.st3{fill:#CEFF00;}
	.st4{clip-path:url(#SVGID_00000027569584915106594880000006430755446248482736_);}
	.st5{fill:#1B180C;}
	.st6{fill:#2A251A;}
	.st7{fill:#38362D;}
	.st8{fill:#769B2F;}
	.st9{fill:#FFFFFF;}
</style>
<g>
	<g id="Ellipse_3" class="st0">
		<defs>
			<filter id="Adobe_OpacityMaskFilter" filterUnits="userSpaceOnUse" x="2.6" y="18.5" width="78.1" height="50.5">
				<feFlood  style="flood-color:white;flood-opacity:1" result="back"/>
				<feBlend  in="SourceGraphic" in2="back" mode="normal"/>
			</filter>
		</defs>
		<mask maskUnits="userSpaceOnUse" x="2.6" y="18.5" width="78.1" height="50.5" id="SVGID_1_">
			<g class="st1">
				
					<image style="overflow:visible;" width="83" height="55" xlink:href="169A73A6E48FF2F0.jpg"  transform="matrix(1 0 0 1 0 15.987)">
				</image>
			</g>
		</mask>
		<g class="st2">
			<ellipse transform="matrix(0.9703 -0.2419 0.2419 0.9703 -9.3406 11.3874)" class="st3" cx="41.7" cy="43.7" rx="39.8" ry="24"/>
		</g>
	</g>
	<g id="Group_11089" transform="translate(546.773 301.473)">
		<g>
			<defs>
				<rect id="SVGID_00000110450679711905170800000001578856008699306680_" x="-532.9" y="-300.5" width="214.2" height="62.2"/>
			</defs>
			<clipPath id="SVGID_00000073686707434523107760000001335948685767332008_">
				<use xlink:href="#SVGID_00000110450679711905170800000001578856008699306680_"  style="overflow:visible;"/>
			</clipPath>
			<g id="Group_11100" style="clip-path:url(#SVGID_00000073686707434523107760000001335948685767332008_);">
				<path id="Path_60223" class="st5" d="M-480.4-282.7l-23.4,14.8c-0.8,0.6-1.3,1.5-1.4,2.4v26.3c0,0.8,0.6,1.1,1.3,0.7l23-14.5
					c0.8-0.6,1.3-1.4,1.4-2.4l0.4-26.5C-479.1-282.9-479.7-283.2-480.4-282.7 M-488.4-259.8c-0.1,0.8-0.5,1.6-1.2,2.1l-5.4,3.4
					c-0.7,0.4-1.2,0.1-1.2-0.6l0-6.1c0.1-0.8,0.5-1.6,1.2-2.1l5.4-3.4c0.7-0.4,1.2-0.1,1.2,0.6L-488.4-259.8z"/>
				<path id="Path_60224" class="st6" d="M-531.6-282.7l23.4,14.8c0.8,0.6,1.3,1.5,1.4,2.4v26.3c0,0.8-0.6,1.1-1.3,0.7l-23-14.5
					c-0.8-0.6-1.3-1.4-1.4-2.4l-0.4-26.5C-533-282.9-532.3-283.2-531.6-282.7 M-523.6-259.8c0.1,0.8,0.5,1.6,1.2,2.1l5.4,3.4
					c0.7,0.4,1.2,0.1,1.2-0.6l0-6.1c-0.1-0.8-0.5-1.6-1.2-2.1l-5.4-3.4c-0.7-0.4-1.2-0.1-1.2,0.6L-523.6-259.8z"/>
				<path id="Path_60225" class="st7" d="M-507.3-300.1l-23.8,14.3c-0.8,0.5-0.8,1.2-0.1,1.7l23.6,15.1c0.9,0.5,1.9,0.5,2.8,0
					l23.8-15.1c0.8-0.5,0.7-1.2,0-1.7l-23.6-14.3C-505.5-300.6-506.5-300.6-507.3-300.1 M-499.3-285.7c0.4,0.2,0.6,0.6,0.4,1
					c-0.1,0.2-0.2,0.4-0.4,0.4l-5.5,3.4c-0.8,0.4-1.7,0.4-2.4,0l-5.5-3.4c-0.4-0.2-0.6-0.6-0.4-1c0.1-0.2,0.2-0.4,0.4-0.4l5.5-3.4
					c0.7-0.4,1.7-0.4,2.4,0L-499.3-285.7z"/>
				<path id="Path_60226" class="st8" d="M-507.3-280.8c0.8,0.4,1.7,0.4,2.4,0l0.1,0v-8.5l-3.2-1.8l0.1,10L-507.3-280.8z"/>
				<path id="Path_60227" class="st8" d="M-515.9-259.5l-7.9,5.3l3.1,1.9l4.9-3.4L-515.9-259.5z"/>
				<path id="Path_60228" class="st3" d="M-520.8-252.3l-3.1-1.9v-27.4l3.1,2.2V-252.3z"/>
				<path id="Path_60229" class="st3" d="M-504.7-289.4l-3.2-1.8l-15.9,9.6l3.1,2.2L-504.7-289.4z"/>
				<path id="Path_60230" class="st8" d="M-492.3-242.9l3.5-2.2l-2.3-1.6l-3.6,2.2L-492.3-242.9z"/>
				<path id="Path_60231" class="st3" d="M-492.3-242.9l3.5-2.2v-13.2l-3.5,2.3V-242.9z"/>
				<path id="Path_60232" class="st3" d="M-495.8-262.2c-0.2,0.4-0.3,0.8-0.3,1.2v2.8l3.9,2.2l3.5-2.3L-495.8-262.2z"/>
				<path id="Path_60233" class="st9" d="M-467.2-256.2h-6.3l1-6.5h21l-1,6.5h-6.3l-2.3,14.7h-8.5L-467.2-256.2z"/>
				<path id="Path_60234" class="st9" d="M-449.6-262.6h8.5l-1.1,7.2h6.9l1.1-7.2h8.5l-3.3,21.1h-8.5l1.2-7.9h-6.9l-1.2,7.9h-8.5
					L-449.6-262.6z"/>
				<path id="Path_60235" class="st9" d="M-423.1-262.6h18.4l-0.9,5.7h-10.1l-0.4,2.2h9l-0.8,4.9h-8.9l-0.4,2.5h10.5l-0.9,5.7h-18.6
					L-423.1-262.6z"/>
				<path id="Path_60236" class="st9" d="M-471.5-289h8.5l-3.3,21.1h-8.5L-471.5-289z"/>
				<path id="Path_60237" class="st9" d="M-460.5-289h9.9l5.8,12.3h0l2-12.3h7.8l-3.3,21.1h-9.9l-5.8-12.4h0l-2,12.4h-7.8
					L-460.5-289z"/>
				<path id="Path_60238" class="st9" d="M-427.9-282.5h-6.3l1-6.5h21l-1,6.5h-6.3l-2.3,14.7h-8.5L-427.9-282.5z"/>
				<path id="Path_60239" class="st3" d="M-396.9-262.6h14.3c4.7,0,7.7,2.1,7.7,5.3c-0.1,2.5-1.8,4.6-4.2,5.1v0
					c1.9,0.4,3.3,2.1,3.2,4.1c0,3.8-3.9,6.6-9,6.6h-15.3L-396.9-262.6z M-386.7-246.5c1.4,0,2.4-0.8,2.4-2c0-1-0.7-1.5-1.8-1.5h-4.3
					l-0.5,3.5L-386.7-246.5z M-385.7-254.3c1.1,0.1,2.2-0.7,2.3-1.8c0-0.1,0-0.1,0-0.2c0-0.9-0.7-1.4-1.8-1.4h-3.9l-0.5,3.4
					L-385.7-254.3L-385.7-254.3z"/>
				<path id="Path_60240" class="st3" d="M-374-250.2c0-7.9,6.9-13.2,15.4-13.2c7.6,0,12.1,3.6,12.1,9.4c0,7.9-6.9,13.2-15.4,13.2
					C-369.4-240.8-374-244.4-374-250.2 M-355.1-253c0-2.4-1.7-3.8-4.5-3.8c-3.1-0.1-5.7,2.4-5.8,5.5c0,0,0,0,0,0v0.3
					c0,2.4,1.7,3.8,4.5,3.8c3.2,0.1,5.8-2.4,5.8-5.6V-253z"/>
				<path id="Path_60241" class="st9" d="M-413.9-277.1c0-7.9,6.9-13.2,15.3-13.2c7.6,0,12.1,3.6,12.1,9.4c0,7.9-6.9,13.2-15.4,13.2
					C-409.3-267.8-413.9-271.4-413.9-277.1 M-395-280.1c0-2.4-1.7-3.8-4.5-3.8c-3.1-0.1-5.7,2.4-5.8,5.5c0,0,0,0,0,0v0.3
					c0,2.4,1.7,3.8,4.5,3.8c3.2,0.1,5.8-2.4,5.8-5.6L-395-280.1z"/>
				<path id="Path_60242" class="st3" d="M-338.5-252.6l-7-10.1h9l3.6,5.2l5.1-5.2h9.2l-10.5,10.5l7.1,10.6h-9.2l-3.6-5.4l-5.1,5.4
					h-9L-338.5-252.6z"/>
				<path id="Path_60243" class="st3" d="M-375.4-276.6h3.3l0.8-4.9c-0.7,0.8-1.6,1.4-2.6,1.6l-0.6-3.7c1.7-0.4,3.1-1.3,4.2-2.6h4.9
					l-1.5,9.6h2.3l-0.5,3.4H-376L-375.4-276.6z"/>
				<path id="Path_60244" class="st3" d="M-363.5-278.4c0-4.5,3.7-8.1,8.2-8.1c0.1,0,0.1,0,0.2,0c3.8,0,6.3,2.1,6.3,5.5
					c-0.1,4.5-3.8,8.1-8.3,8.1c0,0-0.1,0-0.1,0C-361-272.9-363.5-275-363.5-278.4 M-353.9-280.6c0-1.3-0.7-2-1.8-2
					c-1.6,0-2.7,2-2.7,3.8c0,1.3,0.7,2,1.8,2C-355-276.8-353.9-278.8-353.9-280.6"/>
				<path id="Path_60245" class="st3" d="M-346.6-284.6h-1.3l0.2-1.3h4.4l-0.2,1.3h-1.3l-0.5,3.1h-1.8L-346.6-284.6z"/>
				<path id="Path_60246" class="st3" d="M-343-286h1.8l-0.2,1.5h1.4l0.2-1.5h1.8l-0.7,4.4h-1.8l0.3-1.7h-1.4l-0.3,1.7h-1.8
					L-343-286z"/>
				<rect id="Rectangle_3137" x="-381.6" y="-290.3" class="st9" width="0.5" height="21.7"/>
			</g>
		</g>
	</g>
</g>
</svg>
