<svg id="Group_11083" data-name="Group 11083" xmlns="http://www.w3.org/2000/svg" xmlns:xlink="http://www.w3.org/1999/xlink" width="194.479" height="59.51" viewBox="0 0 194.479 59.51">
  <defs>
    <clipPath id="clip-path">
      <rect id="Rectangle_3131" data-name="Rectangle 3131" width="194.479" height="59.51" fill="none"/>
    </clipPath>
  </defs>
  <g id="Group_11082" data-name="Group 11082" clip-path="url(#clip-path)">
    <path id="Path_60148" data-name="Path 60148" d="M81.474,36.905,59.047,51.094a3.093,3.093,0,0,0-1.327,2.334V78.555c0,.778.595,1.1,1.282.641L81.016,65.328a3.146,3.146,0,0,0,1.327-2.288l.366-25.4c.046-.915-.549-1.19-1.236-.732M73.83,58.828a2.633,2.633,0,0,1-1.144,2.014l-5.126,3.25c-.641.412-1.144.137-1.144-.549l.046-5.813a2.633,2.633,0,0,1,1.144-2.014l5.172-3.25c.641-.412,1.144-.137,1.144.595Z" transform="translate(-31.302 -19.896)" fill="#1b180c"/>
    <path id="Path_60149" data-name="Path 60149" d="M1.245,36.905,23.671,51.094A3.093,3.093,0,0,1,25,53.428V78.555c0,.778-.595,1.1-1.282.641L1.7,65.328A3.146,3.146,0,0,1,.375,63.039l-.366-25.4c-.092-.915.5-1.19,1.236-.732M8.888,58.828a2.633,2.633,0,0,0,1.144,2.014l5.126,3.25c.641.412,1.144.137,1.144-.549l-.046-5.813a2.633,2.633,0,0,0-1.144-2.014l-5.172-3.25c-.641-.412-1.144-.137-1.144.595Z" transform="translate(0 -19.896)" fill="#2a251a"/>
    <path id="Path_60150" data-name="Path 60150" d="M25.781.3,3.034,14.034c-.732.458-.778,1.19-.092,1.648L25.552,30.1a2.827,2.827,0,0,0,2.7,0L51,15.682c.732-.458.687-1.19-.046-1.648L28.344.349A2.68,2.68,0,0,0,25.781.3m7.643,13.822a.764.764,0,0,1,0,1.419l-5.263,3.3a2.359,2.359,0,0,1-2.334,0l-5.218-3.25a.764.764,0,0,1,0-1.419l5.263-3.25a2.273,2.273,0,0,1,2.288,0Z" transform="translate(-1.331 0)" fill="#38362d"/>
    <path id="Path_60151" data-name="Path 60151" d="M52.815,29.449a2.359,2.359,0,0,0,2.334,0l.092-.046V21.256L52.22,19.563l.092,9.611Z" transform="translate(-28.32 -10.609)" fill="#769b2f"/>
    <path id="Path_60152" data-name="Path 60152" d="M26.572,85.663l-7.552,5.08,2.929,1.831,4.668-3.3Z" transform="translate(-10.315 -46.457)" fill="#769b2f"/>
    <path id="Path_60153" data-name="Path 60153" d="M21.85,67.519,18.92,65.688V39.463l2.929,2.06Z" transform="translate(-10.261 -21.402)" fill="#ceff00"/>
    <path id="Path_60154" data-name="Path 60154" d="M37.236,21.157l-3.021-1.693-15.2,9.154,2.929,2.06Z" transform="translate(-10.315 -10.555)" fill="#ceff00"/>
    <path id="Path_60155" data-name="Path 60155" d="M82.109,116.133l3.387-2.06-2.243-1.51-3.433,2.151Z" transform="translate(-43.288 -61.045)" fill="#769b2f"/>
    <path id="Path_60156" data-name="Path 60156" d="M84.82,103.009l3.387-2.06V88.363l-3.387,2.2Z" transform="translate(-45.999 -47.921)" fill="#ceff00"/>
    <path id="Path_60157" data-name="Path 60157" d="M77.14,80.063a2.174,2.174,0,0,0-.32,1.144v2.7l3.707,2.151,3.387-2.2Z" transform="translate(-41.661 -43.419)" fill="#ceff00"/>
    <path id="Path_60158" data-name="Path 60158" d="M107.116,85.242h-6l.961-6.179H122.22l-.961,6.179h-6L113.02,99.293h-8.1Z" transform="translate(-54.839 -42.877)" fill="#fff"/>
    <path id="Path_60159" data-name="Path 60159" d="M147.224,79.063h8.1l-1.1,6.865h6.636l1.1-6.865h8.1l-3.2,20.23h-8.1l1.19-7.6h-6.636l-1.19,7.6h-8.1Z" transform="translate(-78.105 -42.877)" fill="#fff"/>
    <path id="Path_60160" data-name="Path 60160" d="M202.778,79.063h17.575l-.87,5.492h-9.7l-.366,2.151h8.6l-.778,4.668h-8.559l-.412,2.426h10.023l-.87,5.492h-17.8Z" transform="translate(-108.257 -42.877)" fill="#fff"/>
    <path id="Path_60161" data-name="Path 60161" d="M101.424,23.963h8.1l-3.2,20.23h-8.1Z" transform="translate(-53.266 -12.996)" fill="#fff"/>
    <path id="Path_60162" data-name="Path 60162" d="M124.524,23.963H134l5.584,11.808h.046L141.5,23.963h7.506l-3.2,20.23h-9.474l-5.584-11.9H130.7l-1.877,11.9H121.32Z" transform="translate(-65.794 -12.996)" fill="#fff"/>
    <path id="Path_60163" data-name="Path 60163" d="M189.316,30.242h-6l.961-6.179H204.42l-.961,6.179h-6L195.22,44.293h-8.1Z" transform="translate(-99.418 -13.05)" fill="#fff"/>
    <path id="Path_60164" data-name="Path 60164" d="M257.678,79.063h13.73c4.531,0,7.323,2.014,7.323,5.035a5.162,5.162,0,0,1-4.028,4.9v.046a3.887,3.887,0,0,1,3.066,3.936c0,3.661-3.707,6.316-8.65,6.316h-14.6Zm9.749,15.47c1.373,0,2.334-.732,2.334-1.922,0-.915-.687-1.465-1.739-1.465h-4.073l-.5,3.341Zm.915-7.46a1.994,1.994,0,0,0,2.243-1.877c0-.824-.641-1.327-1.693-1.327h-3.753l-.5,3.25h3.707Z" transform="translate(-138.03 -42.877)" fill="#ceff00"/>
    <path id="Path_60165" data-name="Path 60165" d="M309.22,90.249c0-7.552,6.636-12.586,14.692-12.586,7.231,0,11.625,3.478,11.625,8.971,0,7.552-6.636,12.632-14.692,12.632-7.231-.046-11.625-3.524-11.625-9.016M327.344,87.5c0-2.288-1.6-3.661-4.3-3.661a5.431,5.431,0,0,0-5.584,5.309v.275c0,2.288,1.6,3.661,4.3,3.661a5.471,5.471,0,0,0,5.584-5.355Z" transform="translate(-167.695 -42.118)" fill="#ceff00"/>
    <path id="Path_60166" data-name="Path 60166" d="M225.72,33.8c0-7.552,6.636-12.632,14.692-12.632,7.231,0,11.625,3.478,11.625,8.971,0,7.552-6.636,12.632-14.692,12.632-7.231,0-11.625-3.524-11.625-8.971M243.8,31c0-2.288-1.6-3.661-4.3-3.661a5.431,5.431,0,0,0-5.584,5.309v.275c0,2.288,1.6,3.661,4.3,3.661a5.471,5.471,0,0,0,5.584-5.355Z" transform="translate(-122.412 -11.477)" fill="#fff"/>
    <path id="Path_60167" data-name="Path 60167" d="M371.7,88.72l-6.728-9.657h8.6l3.433,4.989,4.851-4.989h8.788L380.623,89.132l6.819,10.161h-8.788l-3.433-5.172-4.852,5.172h-8.65Z" transform="translate(-196.167 -42.877)" fill="#ceff00"/>
    <path id="Path_60168" data-name="Path 60168" d="M305.572,39.086H308.8l.728-4.7h-.017a4.729,4.729,0,0,1-2.462,1.561l-.555-3.59a6.913,6.913,0,0,0,4.023-2.462h4.647l-1.457,9.19h2.2l-.52,3.295H305.052Z" transform="translate(-165.435 -16.213)" fill="#ceff00"/>
    <path id="Path_60169" data-name="Path 60169" d="M331.158,37.061a7.792,7.792,0,0,1,8.046-7.734c3.607,0,6,2.029,6,5.289a7.815,7.815,0,0,1-8.064,7.717c-3.607,0-5.982-2.029-5.982-5.272m9.156-2.1c0-1.231-.659-1.907-1.7-1.907-1.561,0-2.549,1.925-2.549,3.641,0,1.232.642,1.908,1.682,1.908,1.56,0,2.566-1.925,2.566-3.642" transform="translate(-179.592 -15.904)" fill="#ceff00"/>
    <path id="Path_60170" data-name="Path 60170" d="M364.929,31.588H363.68l.2-1.291h4.2l-.206,1.291h-1.255l-.464,2.933h-1.7Z" transform="translate(-197.229 -16.431)" fill="#ceff00"/>
    <path id="Path_60171" data-name="Path 60171" d="M373.285,30.3h1.7l-.229,1.438h1.384l.229-1.438h1.7l-.669,4.224h-1.7l.252-1.584h-1.384l-.252,1.584h-1.7Z" transform="translate(-202.076 -16.43)" fill="#ceff00"/>
    <rect id="Rectangle_3130" data-name="Rectangle 3130" width="0.458" height="20.756" transform="translate(134.202 9.686)" fill="#fff"/>
  </g>
</svg>
