<svg xmlns="http://www.w3.org/2000/svg" xmlns:xlink="http://www.w3.org/1999/xlink" width="320.556" height="76.605" viewBox="0 0 320.556 76.605">
  <defs>
    <clipPath id="clip-path">
      <rect id="Rectangle_3081" data-name="Rectangle 3081" width="320.556" height="76.605" fill="none"/>
    </clipPath>
  </defs>
  <g id="Group_10969" data-name="Group 10969" transform="translate(-818.365 -5670.249)">
    <g id="Group_10869" data-name="Group 10869" transform="translate(818.365 5670.249)">
      <g id="Group_10868" data-name="Group 10868" clip-path="url(#clip-path)">
        <path id="Path_59998" data-name="Path 59998" d="M799.26,55.373l-4.377,20.352H784.814L801.449,1.967h11.927l15.65,73.757H818.847l-4.268-20.352Zm14.116-8.208-3.393-17.621c-.985-5.034-1.97-11.6-2.734-16.852h-.44c-.764,5.362-1.862,12.146-2.844,16.852l-3.5,17.621ZM867.456,0V62.047c0,4.051.219,9.961.436,13.68h-8.863l-.657-6.455h-.328A12.6,12.6,0,0,1,846.883,76.6c-9.849,0-15.868-10.727-15.868-27.248,0-18.823,7.987-27.688,16.416-27.688a9.865,9.865,0,0,1,9.519,6.019h.219V0ZM857.167,42.787c0-.983,0-2.187-.109-3.285-.547-4.813-3.283-8.972-7-8.972-6.458,0-8.646,8.972-8.646,18.823,0,10.944,2.845,18.6,8.317,18.6,2.3,0,5.361-1.2,7.112-7.549a15.5,15.5,0,0,0,.328-3.391ZM891.959,76.6c-10.614,0-18.276-9.083-18.276-27.356,0-19.372,9.082-27.58,18.822-27.58,10.506,0,18.056,9.412,18.056,27.36,0,21.121-10.4,27.577-18.493,27.577Zm.327-8.1c6.346,0,7.77-11.272,7.77-19.369,0-7.991-1.423-19.37-7.987-19.37-6.787,0-8.1,11.38-8.1,19.37,0,8.863,1.532,19.369,8.208,19.369ZM916.761,0h10.285V28.561h.219c2.736-4.813,6.457-6.895,11.163-6.895,9.082,0,14.774,10.287,14.774,26.593,0,19.04-7.77,28.343-16.525,28.343-5.253,0-8.208-2.847-10.508-7.553h-.434l-.549,6.676h-8.863c.219-3.61.438-9.629.438-13.68Zm10.285,56.9a9.934,9.934,0,0,0,.438,3.285c1.64,6.459,4.815,7.77,6.893,7.77,6.129,0,8.427-8.1,8.427-19.04,0-10.178-2.406-18.386-8.536-18.386-3.392,0-6.128,4.049-6.894,7.88a20.164,20.164,0,0,0-.328,3.611V56.9Zm41.335-5.689c.109,13.68,6.017,17.07,12.255,17.07a21.582,21.582,0,0,0,9.193-1.97l1.532,7.442c-3.174,1.642-7.989,2.519-12.695,2.519-13.35,0-20.354-10.068-20.354-26.484,0-17.4,7.987-28.126,19.041-28.126s16.2,10.615,16.2,23.969c0,2.625-.111,4.268-.219,5.689l-24.95-.109Zm15.429-7.33c.109-9.412-3.174-14.444-7.221-14.444-5.364,0-7.772,7.77-8.1,14.444Z" transform="translate(-674.444 0.001)" fill-rule="evenodd"/>
        <path id="Path_59999" data-name="Path 59999" d="M52.4,15.4H83.125v73.56Zm-21.647,0H0v73.56ZM41.575,42.5,61.154,88.955H48.324L42.469,74.161H28.138Z" transform="translate(0 -13.23)" fill="#cc2131" fill-rule="evenodd"/>
        <path id="Path_60000" data-name="Path 60000" d="M836.545,34.76a2.334,2.334,0,0,1,2.324,2.345v.02a2.34,2.34,0,1,1-2.34-2.366h.016Zm-.011.367a2.006,2.006,0,0,0,.011,4.007,2.007,2.007,0,0,0,0-4.007Zm-.441,3.378h-.42V35.864a4.777,4.777,0,0,1,.748-.064,1.39,1.39,0,0,1,.819.2.628.628,0,0,1,.243.547.658.658,0,0,1-.516.642v.02c.232.042.39.254.441.642a2.141,2.141,0,0,0,.17.653h-.441a1.95,1.95,0,0,1-.179-.673.5.5,0,0,0-.569-.463h-.294V38.5Zm0-1.463h.3c.347,0,.644-.126.644-.452,0-.232-.169-.463-.644-.463a1.975,1.975,0,0,0-.3.022ZM605.489,15.4a2.335,2.335,0,0,1,2.324,2.345c0,.007,0,.014,0,.02a2.34,2.34,0,1,1-2.34-2.366h.016Zm-.011.367a2.006,2.006,0,0,0,.011,4.007,2.007,2.007,0,0,0,0-4.007Zm-.441,3.378h-.421V16.5a4.577,4.577,0,0,1,.748-.062,1.374,1.374,0,0,1,.819.2.63.63,0,0,1,.243.547.658.658,0,0,1-.516.642v.02c.232.042.39.254.443.644a2.174,2.174,0,0,0,.168.653h-.441a1.908,1.908,0,0,1-.179-.673.5.5,0,0,0-.569-.463h-.294Zm0-1.463h.3c.346,0,.642-.126.642-.452,0-.232-.168-.463-.642-.463a1.96,1.96,0,0,0-.3.022Z" transform="translate(-518.313 -13.23)" fill-rule="evenodd"/>
      </g>
    </g>
  </g>
</svg>
