<?xml version="1.0" encoding="utf-8"?>
<!-- Generator: Adobe Illustrator 27.2.0, SVG Export Plug-In . SVG Version: 6.00 Build 0)  -->
<svg version="1.1" id="Layer_1" xmlns="http://www.w3.org/2000/svg" xmlns:xlink="http://www.w3.org/1999/xlink" x="0px" y="0px"
	 viewBox="0 0 177.8 55.9" style="enable-background:new 0 0 177.8 55.9;" xml:space="preserve">
<style type="text/css">
	.st0{fill:#FFFFFF;}
	.st1{enable-background:new    ;}
</style>
<g id="Group_10613" transform="translate(-569 -999)">
	<g id="Group_10452" transform="translate(568.878 1018.837)">
		<g id="Group_10611" transform="translate(0 0)">
			<g id="Group_7545" transform="translate(0.122 -0.837)">
				<path id="Path_11409" class="st0" d="M37.7,14h4.6c0.8-0.1,1.6,0.1,2.3,0.6c0.5,0.6,0.7,1.3,0.6,2.1v1.7h-2.6v-1.3
					c0-0.3,0-0.6-0.2-0.8c-0.3-0.2-0.6-0.3-1-0.2h-1v8.4h-2.7V14z"/>
				<path id="Path_11410" class="st0" d="M46,14h1.9v-3.8h2.7V14h2.9v2.1h-2.9v4.2c-0.1,0.6,0.1,1.1,0.4,1.6
					c0.4,0.3,0.9,0.5,1.4,0.4h1.1v2.1h-2.5c-0.9,0.1-1.7-0.2-2.3-0.9c-0.6-0.7-0.9-1.5-0.8-2.4V16H46V14z"/>
				<path id="Path_11411" class="st0" d="M64.6,24.4h-5.2c-1.2,0.1-2.3-0.2-3.3-0.9c-0.7-0.8-1.1-1.8-1-2.9V14h2.7v6.4
					c-0.1,0.5,0.1,1,0.4,1.4c0.4,0.3,0.9,0.4,1.5,0.3h2.2V14h2.7L64.6,24.4L64.6,24.4z"/>
				<path id="Path_11412" class="st0" d="M66.9,22.3h5.8c0.4,0,0.8,0,1.1-0.2c0.2-0.2,0.4-0.5,0.3-0.8c0-0.3-0.1-0.6-0.4-0.8
					c-0.3-0.2-0.7-0.3-1.1-0.3h-2.4c-1,0.1-2-0.1-2.8-0.6c-0.6-0.6-0.8-1.5-0.7-2.3c-0.1-0.9,0.3-1.8,0.9-2.5
					c0.8-0.6,1.8-0.9,2.8-0.8h5.9v2.2h-4.9c-0.5,0-1,0-1.5,0.2c-0.3,0.2-0.4,0.4-0.4,0.7c0,0.3,0.1,0.5,0.3,0.7
					c0.3,0.2,0.6,0.2,1,0.2h2.5c0.9-0.1,1.9,0.2,2.6,0.8c0.6,0.6,1,1.4,0.9,2.3c0,0.9-0.2,1.7-0.8,2.4c-0.5,0.6-1.3,0.9-2.1,0.9
					h-7.1L66.9,22.3L66.9,22.3z"/>
				<path id="Path_11413" class="st0" d="M98.9,12.8h-7.4c-0.6,0-1.2,0.1-1.8,0.4c-0.4,0.4-0.6,0.9-0.6,1.4c0,0.4,0.1,0.9,0.5,1.2
					c0.4,0.3,0.9,0.4,1.4,0.4H95c1.2-0.1,2.5,0.2,3.5,0.9c0.8,0.8,1.2,1.9,1,3.1c0.1,1.2-0.3,2.4-1.2,3.2c-1.1,0.8-2.4,1.1-3.7,1h-8
					v-2.5h7.5c0.6,0.1,1.3-0.1,1.8-0.4c0.7-0.7,0.7-1.8,0-2.5c-0.5-0.3-1.1-0.4-1.6-0.4h-3.5c-1.3,0.1-2.6-0.2-3.6-1
					c-0.8-0.8-1.2-2-1.1-3.1c-0.1-1.2,0.3-2.4,1.2-3.3c1.1-0.8,2.4-1.2,3.8-1h7.8L98.9,12.8z"/>
				<path id="Path_11414" class="st0" d="M111.9,19.2c0.1,1.5-0.5,2.9-1.5,3.9c-1.1,1-2.5,1.5-4,1.5c-1.5,0.1-2.9-0.5-4-1.5
					c-2-2.2-2-5.6,0-7.8c1.1-1,2.6-1.5,4-1.5c1.5-0.1,2.9,0.5,4,1.5C111.4,16.4,112,17.8,111.9,19.2 M103.7,19.2
					c-0.1,0.8,0.2,1.7,0.7,2.3c0.5,0.6,1.2,0.9,1.9,0.8c0.7,0,1.5-0.3,1.9-0.8c0.5-0.7,0.8-1.5,0.7-2.3c0.1-0.8-0.2-1.7-0.7-2.3
					c-0.5-0.6-1.2-0.9-1.9-0.8c-0.7,0-1.5,0.3-1.9,0.8C103.9,17.6,103.7,18.4,103.7,19.2"/>
				<rect id="Rectangle_2427" x="113.5" y="10.2" class="st0" width="2.9" height="14.2"/>
				<path id="Path_11415" class="st0" d="M128.2,24.4H123c-1.2,0.1-2.3-0.2-3.3-0.9c-0.7-0.8-1.1-1.8-1-2.9V14h2.7v6.4
					c-0.1,0.5,0.1,1,0.4,1.4c0.4,0.3,0.9,0.4,1.5,0.3h2.2V14h2.7L128.2,24.4z"/>
				<path id="Path_11416" class="st0" d="M129.6,14h1.9v-3.8h2.7V14h2.9v2.1h-2.9v4.2c-0.1,0.6,0.1,1.1,0.4,1.6
					c0.4,0.3,0.9,0.5,1.4,0.4h1.1v2.1h-2.5c-0.9,0.1-1.7-0.2-2.3-0.9c-0.6-0.7-0.9-1.5-0.8-2.4V16h-1.9V14z"/>
				<path id="Path_11417" class="st0" d="M141.7,12.8h-2.9v-2.6h2.9V12.8z M141.7,24.4h-2.9V14h2.9V24.4z"/>
				<path id="Path_11418" class="st0" d="M154.5,19.2c0.1,1.5-0.5,2.9-1.5,3.9c-1.1,1-2.5,1.5-4,1.5c-1.5,0.1-2.9-0.5-4-1.5
					c-2-2.2-2-5.6,0-7.8c1.1-1,2.6-1.5,4-1.5c1.5-0.1,2.9,0.5,4,1.5C154,16.4,154.5,17.8,154.5,19.2 M146.3,19.2
					c-0.1,0.8,0.2,1.7,0.7,2.3c0.5,0.6,1.2,0.9,1.9,0.8c0.7,0,1.5-0.3,1.9-0.8c0.5-0.7,0.8-1.5,0.7-2.3c0.1-0.8-0.2-1.7-0.7-2.3
					c-0.5-0.6-1.2-0.9-1.9-0.8c-0.7,0-1.5,0.3-1.9,0.8C146.5,17.6,146.3,18.4,146.3,19.2"/>
				<path id="Path_11419" class="st0" d="M156.1,14h5.2c1.2-0.1,2.4,0.2,3.3,0.9c0.7,0.8,1.1,1.8,1,2.9v6.6h-2.7v-6.3
					c0-0.8-0.1-1.3-0.4-1.5c-0.4-0.3-0.9-0.4-1.5-0.3h-2.2v8.1h-2.7L156.1,14z"/>
				<path id="Path_11420" class="st0" d="M167.9,22.3h5.8c0.4,0,0.8,0,1.1-0.2c0.2-0.2,0.4-0.5,0.3-0.8c0-0.3-0.1-0.6-0.4-0.8
					c-0.3-0.2-0.7-0.3-1.1-0.3h-2.4c-1,0.1-2-0.1-2.8-0.6c-0.6-0.6-0.8-1.5-0.7-2.3c-0.1-0.9,0.3-1.8,0.9-2.5
					c0.8-0.6,1.8-0.9,2.8-0.8h5.9v2.2h-4.9c-0.5,0-1,0-1.5,0.2c-0.3,0.2-0.4,0.4-0.4,0.7c0,0.3,0.1,0.5,0.3,0.7
					c0.3,0.2,0.6,0.2,1,0.2h2.5c0.9-0.1,1.9,0.2,2.6,0.8c0.6,0.6,1,1.4,0.9,2.3c0,0.9-0.2,1.7-0.8,2.4c-0.5,0.6-1.3,0.9-2.1,0.9
					h-7.1L167.9,22.3L167.9,22.3z"/>
				<path id="Path_11421" class="st0" d="M57.1,29.2l3.3,7.5h-0.9l-0.9-2.2h-2.8l-0.9,2.2h-0.9L57.1,29.2z M57.1,31L56,33.7h2.3
					L57.1,31z"/>
				<path id="Path_11422" class="st0" d="M66.7,32.6c0.4,0.2,0.8,0.4,1,0.8c0.5,0.9,0.4,2-0.3,2.7c-0.9,0.7-2.1,0.8-3.1,0.1
					C64,36,63.7,35.5,63.6,35l0.8-0.4c0.1,0.4,0.2,0.7,0.5,1c0.2,0.2,0.6,0.4,0.9,0.3c0.4,0,0.8-0.1,1-0.4c0.3-0.3,0.4-0.6,0.4-1
					c0-0.3-0.1-0.6-0.3-0.8c-0.2-0.3-0.5-0.5-0.8-0.6l-0.9-0.4c-0.4-0.1-0.8-0.4-1-0.8c-0.2-0.3-0.4-0.7-0.3-1.1
					c0-0.5,0.2-1,0.6-1.3c0.4-0.3,0.9-0.5,1.5-0.5c0.4,0,0.8,0.1,1.1,0.3c0.3,0.2,0.6,0.5,0.7,0.8l-0.7,0.5
					c-0.1-0.2-0.3-0.5-0.5-0.6c-0.2-0.1-0.4-0.2-0.7-0.2c-0.3,0-0.6,0.1-0.8,0.3c-0.4,0.4-0.4,1-0.1,1.4c0.2,0.2,0.4,0.4,0.7,0.5
					L66.7,32.6z"/>
				<path id="Path_11423" class="st0" d="M68.8,34.4c0-0.3,0.1-0.6,0.2-0.9c0.5-1.2,1.9-1.8,3.2-1.3s1.8,1.9,1.3,3.2
					s-1.9,1.8-3.2,1.3c-0.6-0.2-1.1-0.7-1.3-1.3C68.9,35,68.8,34.7,68.8,34.4 M69.6,34.4c0,0.5,0.2,0.9,0.5,1.2
					c0.3,0.3,0.7,0.5,1.2,0.5c0.4,0,0.8-0.2,1.1-0.5c0.3-0.3,0.5-0.8,0.5-1.2c0-0.5-0.2-0.9-0.5-1.2c-0.3-0.3-0.7-0.5-1.1-0.5
					c-0.4,0-0.9,0.2-1.2,0.5C69.8,33.5,69.6,33.9,69.6,34.4"/>
				<path id="Path_11424" class="st0" d="M75.1,36.6v-3.9h-0.9v-0.6h0.9v-1.3c0-0.5,0.1-1,0.3-1.5c0.3-0.3,0.6-0.4,1-0.4
					c0.1,0,0.2,0,0.3,0c0.1,0,0.2,0,0.3,0.1v0.8c-0.1,0-0.2-0.1-0.3-0.1c-0.1,0-0.2,0-0.3,0c-0.2,0-0.4,0.1-0.4,0.2
					c-0.1,0.3-0.1,0.7-0.1,1v1.2h1.2v0.6h-1.2v3.9L75.1,36.6L75.1,36.6z"/>
				<path id="Path_11425" class="st0" d="M77.9,32.8h-0.8v-0.6h0.8v-1.8h0.8v1.8h0.8v0.6h-0.8v3.9h-0.8V32.8z"/>
				<path id="Path_11426" class="st0" d="M83.1,32l1.3,3.2l1.2-3h0.9l-2,4.8l-1.5-3.4l-1.5,3.4l-2-4.8h0.9l1.2,3L83.1,32L83.1,32z"
					/>
				<path id="Path_11427" class="st0" d="M91.5,32.1v4.5h-0.7v-0.8c-0.2,0.3-0.4,0.6-0.7,0.7c-0.3,0.2-0.6,0.3-0.9,0.3
					c-0.6,0-1.2-0.2-1.5-0.7c-0.8-1-0.8-2.5,0-3.5c0.4-0.4,1-0.7,1.5-0.6c0.3,0,0.7,0.1,1,0.3c0.3,0.2,0.5,0.4,0.7,0.7v-0.8
					L91.5,32.1L91.5,32.1z M90.7,34.4c0-0.4-0.1-0.9-0.4-1.2c-0.3-0.3-0.7-0.5-1.1-0.5c-0.4,0-0.8,0.1-1.1,0.4
					c-0.3,0.3-0.4,0.8-0.4,1.2c0,0.4,0.1,0.9,0.4,1.2c0.3,0.3,0.7,0.5,1.1,0.5c0.4,0,0.8-0.1,1.1-0.4C90.6,35.3,90.8,34.8,90.7,34.4
					"/>
				<path id="Path_11428" class="st0" d="M93,36.6v-4.5h0.7v0.9c0.1-0.3,0.4-0.6,0.6-0.8c0.3-0.2,0.6-0.3,0.9-0.3c0.1,0,0.2,0,0.3,0
					c0.1,0,0.2,0,0.3,0.1l-0.3,0.7c-0.1,0-0.2,0-0.3-0.1c-0.1,0-0.2,0-0.2,0c-0.4,0-0.7,0.1-0.9,0.5c-0.2,0.4-0.3,0.9-0.3,1.3v2.2
					L93,36.6z"/>
				<path id="Path_11429" class="st0" d="M100.5,34.5H97v0.1c0,0.4,0.1,0.8,0.4,1.2c0.3,0.3,0.7,0.5,1.1,0.5c0.3,0,0.6-0.1,0.8-0.2
					c0.3-0.2,0.5-0.5,0.6-0.7l0.6,0.4c-0.2,0.4-0.5,0.7-0.9,0.9c-0.4,0.2-0.8,0.3-1.2,0.3c-0.6,0-1.2-0.2-1.6-0.7
					c-0.4-0.5-0.7-1.1-0.6-1.8c0-0.6,0.2-1.3,0.6-1.7c0.4-0.5,1-0.7,1.6-0.7c0.6,0,1.2,0.2,1.6,0.6c0.4,0.5,0.6,1.1,0.6,1.7
					L100.5,34.5L100.5,34.5z M99.7,33.8c0-0.3-0.2-0.7-0.4-0.9c-0.3-0.2-0.6-0.4-1-0.3c-0.3,0-0.7,0.1-0.9,0.3
					c-0.3,0.2-0.4,0.6-0.4,0.9H99.7z"/>
				<path id="Path_11430" class="st0" d="M104.7,36.6v-7.2h1.7c0.4,0,0.7,0,1,0.1c0.2,0,0.4,0.1,0.6,0.3c0.2,0.2,0.4,0.4,0.5,0.7
					c0.1,0.3,0.2,0.6,0.2,0.9c0,0.5-0.1,1-0.5,1.3c-0.4,0.3-0.9,0.5-1.4,0.5h-0.2l2.7,3.4h-1.1l-2.6-3.4h-0.1v3.4L104.7,36.6
					L104.7,36.6z M105.5,30.2v2.4h0.6c0.5,0.1,0.9,0,1.3-0.3c0.2-0.2,0.4-0.6,0.3-0.9c0-0.4-0.1-0.7-0.3-1c-0.4-0.2-0.9-0.3-1.3-0.3
					L105.5,30.2z"/>
				<path id="Path_11431" class="st0" d="M114,34.5h-3.6v0.1c0,0.4,0.1,0.8,0.4,1.2c0.3,0.3,0.7,0.5,1.1,0.5c0.3,0,0.6-0.1,0.8-0.2
					c0.3-0.2,0.5-0.5,0.6-0.7l0.6,0.4c-0.2,0.4-0.5,0.7-0.9,0.9c-0.4,0.2-0.8,0.3-1.2,0.3c-0.6,0-1.2-0.2-1.6-0.7
					c-0.4-0.5-0.7-1.1-0.6-1.8c0-0.6,0.2-1.3,0.6-1.7c0.4-0.5,1-0.7,1.6-0.7c0.6,0,1.2,0.2,1.6,0.6c0.4,0.5,0.6,1.1,0.6,1.7
					L114,34.5L114,34.5z M113.2,33.8c0-0.3-0.2-0.7-0.4-0.9c-0.3-0.2-0.6-0.4-1-0.3c-0.3,0-0.7,0.1-0.9,0.3
					c-0.3,0.2-0.4,0.6-0.4,0.9H113.2z"/>
				<path id="Path_11432" class="st0" d="M116.6,36.9l-2.2-4.8h0.9l1.3,3.1l1.3-3.1h0.9L116.6,36.9z"/>
				<path id="Path_11433" class="st0" d="M119.3,34.4c0-0.3,0.1-0.6,0.2-0.9c0.5-1.2,1.9-1.8,3.2-1.3c0.6,0.2,1.1,0.7,1.3,1.3
					c0.2,0.6,0.2,1.3,0,1.9c-0.5,1.2-1.9,1.8-3.2,1.3c-0.6-0.2-1.1-0.7-1.3-1.3C119.3,35,119.3,34.7,119.3,34.4 M120.1,34.4
					c0,0.5,0.2,0.9,0.5,1.2c0.3,0.3,0.7,0.5,1.2,0.5c0.4,0,0.8-0.2,1.1-0.5c0.3-0.3,0.5-0.8,0.5-1.2c0-0.5-0.2-0.9-0.5-1.2
					c-0.3-0.3-0.7-0.5-1.1-0.5c-0.4,0-0.9,0.2-1.2,0.5C120.3,33.5,120.1,33.9,120.1,34.4"/>
				<rect id="Rectangle_2428" x="125.4" y="29" class="st0" width="0.8" height="7.6"/>
				<path id="Path_11434" class="st0" d="M128.5,32.1v2.2c0,0.5,0.1,0.9,0.3,1.3c0.6,0.5,1.4,0.5,1.9,0c0.2-0.4,0.3-0.9,0.3-1.3
					v-2.2h0.8v2.6c0.1,1-0.6,1.9-1.6,2.1c-0.2,0-0.3,0-0.5,0c-0.6,0-1.1-0.2-1.5-0.5c-0.4-0.4-0.6-1-0.5-1.5v-2.6L128.5,32.1z"/>
				<path id="Path_11435" class="st0" d="M133.4,32.8h-0.8v-0.6h0.8v-1.8h0.8v1.8h0.8v0.6h-0.8v3.9h-0.8V32.8z"/>
				<path id="Path_11436" class="st0" d="M135.7,29.9c0-0.2,0-0.3,0.2-0.4c0.1-0.1,0.3-0.2,0.4-0.1c0.3,0,0.5,0.2,0.6,0.5
					c0,0,0,0.1,0,0.1c0,0.1,0,0.3-0.2,0.4c-0.1,0.1-0.3,0.2-0.4,0.1c-0.2,0-0.3,0-0.4-0.1C135.7,30.2,135.7,30.1,135.7,29.9
					 M135.9,32.2h0.8v4.5h-0.8V32.2z"/>
				<path id="Path_11437" class="st0" d="M137.9,34.4c0-0.3,0.1-0.6,0.2-0.9c0.5-1.2,1.9-1.8,3.2-1.3s1.8,1.9,1.3,3.2
					c-0.5,1.2-1.9,1.8-3.2,1.3c-0.6-0.2-1.1-0.7-1.3-1.3C138,35,137.9,34.7,137.9,34.4 M138.7,34.4c0,0.5,0.2,0.9,0.5,1.2
					c0.3,0.3,0.7,0.5,1.2,0.5c0.4,0,0.8-0.2,1.1-0.5c0.3-0.3,0.5-0.8,0.5-1.2c0-0.5-0.2-0.9-0.5-1.2c-0.3-0.3-0.7-0.5-1.1-0.5
					c-0.4,0-0.9,0.2-1.2,0.5C138.9,33.5,138.7,33.9,138.7,34.4"/>
				<path id="Path_11438" class="st0" d="M144,36.6v-4.5h0.7v0.7c0.2-0.3,0.4-0.5,0.7-0.6c0.3-0.2,0.6-0.2,0.9-0.2
					c0.4,0,0.9,0.1,1.2,0.4c0.3,0.3,0.5,0.7,0.4,1.2v3h-0.8V34c0-0.4-0.1-0.7-0.3-1c-0.2-0.2-0.6-0.4-0.9-0.3c-0.2,0-0.4,0-0.6,0.1
					c-0.2,0.1-0.3,0.2-0.4,0.3c-0.1,0.1-0.2,0.3-0.2,0.4c-0.1,0.3-0.1,0.5-0.1,0.8v2.3L144,36.6L144,36.6z"/>
				<path id="Path_11439" class="st0" d="M20.7,33c-8.4,0-15.2-6.8-15.2-15.2c0-8.4,6.8-15.2,15.2-15.2c4.1,0,7.9,1.6,10.8,4.5
					C25.8-0.6,14.9-2.3,7.1,3.3s-9.5,16.6-3.8,24.3s16.6,9.5,24.3,3.8c0.4-0.3,0.7-0.6,1.1-0.9C26.4,32.2,23.6,33,20.7,33"/>
				<path id="Path_11440" class="st0" d="M25.9,5.1c5.9,3.4,7.8,11,4.4,16.8c-3.4,5.9-11,7.8-16.8,4.4c-3.3-2-5.6-5.4-6-9.2
					c0,0.2,0,0.5,0,0.7c0,7.5,6.1,13.6,13.6,13.6c7.5,0,13.6-6.1,13.6-13.6C34.7,12.1,31.2,7.1,25.9,5.1"/>
				<path id="Path_11441" class="st0" d="M19.3,6c-4.5,0-8.4,2.9-9.7,7.2c2-4.5,7.3-6.5,11.7-4.5c4.5,2,6.5,7.3,4.5,11.7
					c-1.8,4-6.2,6.1-10.4,4.9c5.1,2.2,11.1-0.3,13.2-5.4c2.2-5.1-0.3-11.1-5.4-13.2C22,6.3,20.7,6,19.3,6"/>
			</g>
		</g>
	</g>
	<g class="st1">
		<path class="st0" d="M625.6,1006.4c0,0.9-0.3,1.7-1,2.2c-0.6,0.5-1.6,0.8-2.8,0.8h-1.1v3.7h-1.1v-9.3h2.4
			C624.4,1003.7,625.6,1004.6,625.6,1006.4z M620.8,1008.4h1c1,0,1.6-0.2,2.1-0.5s0.6-0.8,0.6-1.5c0-0.6-0.2-1.1-0.6-1.4
			s-1-0.5-1.9-0.5h-1.2V1008.4z"/>
		<path class="st0" d="M630.6,1005.9c0.3,0,0.6,0,0.8,0.1l-0.1,1c-0.3-0.1-0.5-0.1-0.8-0.1c-0.6,0-1,0.2-1.4,0.7
			c-0.4,0.5-0.6,1-0.6,1.7v3.7h-1.1v-7h0.9l0.1,1.3h0.1c0.3-0.5,0.6-0.8,0.9-1S630.1,1005.9,630.6,1005.9z"/>
		<path class="st0" d="M635.6,1013.1c-1,0-1.8-0.3-2.4-0.9c-0.6-0.6-0.9-1.5-0.9-2.6c0-1.1,0.3-2,0.8-2.7c0.6-0.7,1.3-1,2.2-1
			c0.9,0,1.6,0.3,2.1,0.9s0.8,1.3,0.8,2.3v0.7h-4.8c0,0.8,0.2,1.4,0.6,1.9c0.4,0.4,0.9,0.6,1.7,0.6c0.7,0,1.5-0.2,2.2-0.5v0.9
			c-0.4,0.2-0.7,0.3-1.1,0.3C636.5,1013.1,636.1,1013.1,635.6,1013.1z M635.3,1006.8c-0.6,0-1,0.2-1.3,0.5c-0.3,0.4-0.5,0.9-0.6,1.5
			h3.6c0-0.7-0.1-1.2-0.4-1.5S635.9,1006.8,635.3,1006.8z"/>
		<path class="st0" d="M644.5,1011.1c0,0.6-0.2,1.1-0.7,1.5c-0.5,0.4-1.2,0.5-2,0.5c-0.9,0-1.6-0.1-2.2-0.4v-1
			c0.3,0.2,0.7,0.3,1.1,0.4c0.4,0.1,0.8,0.1,1.1,0.1c0.6,0,1-0.1,1.3-0.3s0.4-0.4,0.4-0.8c0-0.3-0.1-0.5-0.4-0.7
			c-0.2-0.2-0.7-0.4-1.4-0.7c-0.6-0.2-1.1-0.5-1.4-0.6c-0.3-0.2-0.5-0.4-0.6-0.6c-0.1-0.2-0.2-0.5-0.2-0.8c0-0.6,0.2-1,0.7-1.3
			s1.1-0.5,1.9-0.5c0.7,0,1.5,0.2,2.2,0.5l-0.4,0.9c-0.7-0.3-1.3-0.4-1.9-0.4c-0.5,0-0.9,0.1-1.1,0.2s-0.4,0.4-0.4,0.6
			c0,0.2,0,0.3,0.1,0.5c0.1,0.1,0.2,0.3,0.5,0.4s0.6,0.3,1.2,0.5c0.8,0.3,1.4,0.6,1.7,0.9C644.3,1010.3,644.5,1010.6,644.5,1011.1z"
			/>
		<path class="st0" d="M649.1,1013.1c-1,0-1.8-0.3-2.4-0.9c-0.6-0.6-0.9-1.5-0.9-2.6c0-1.1,0.3-2,0.8-2.7c0.6-0.7,1.3-1,2.2-1
			c0.9,0,1.6,0.3,2.1,0.9s0.8,1.3,0.8,2.3v0.7h-4.8c0,0.8,0.2,1.4,0.6,1.9c0.4,0.4,0.9,0.6,1.7,0.6c0.7,0,1.5-0.2,2.2-0.5v0.9
			c-0.4,0.2-0.7,0.3-1.1,0.3C650,1013.1,649.6,1013.1,649.1,1013.1z M648.8,1006.8c-0.6,0-1,0.2-1.3,0.5c-0.3,0.4-0.5,0.9-0.6,1.5
			h3.6c0-0.7-0.1-1.2-0.4-1.5S649.4,1006.8,648.8,1006.8z"/>
		<path class="st0" d="M658.2,1013v-4.5c0-0.6-0.1-1-0.4-1.3s-0.7-0.4-1.2-0.4c-0.7,0-1.3,0.2-1.6,0.6s-0.5,1-0.5,1.9v3.7h-1.1v-7
			h0.9l0.2,1h0.1c0.2-0.3,0.5-0.6,0.9-0.8s0.8-0.3,1.3-0.3c0.8,0,1.5,0.2,1.9,0.6s0.6,1,0.6,1.9v4.5H658.2z"/>
		<path class="st0" d="M663.7,1012.3c0.2,0,0.4,0,0.5,0c0.2,0,0.3-0.1,0.4-0.1v0.8c-0.1,0.1-0.3,0.1-0.5,0.1c-0.2,0-0.4,0.1-0.6,0.1
			c-1.3,0-2-0.7-2-2.1v-4.1h-1v-0.5l1-0.4l0.4-1.5h0.6v1.6h2v0.8h-2v4.1c0,0.4,0.1,0.7,0.3,1
			C663.1,1012.1,663.4,1012.3,663.7,1012.3z"/>
		<path class="st0" d="M669,1013.1c-1,0-1.8-0.3-2.4-0.9c-0.6-0.6-0.9-1.5-0.9-2.6c0-1.1,0.3-2,0.8-2.7s1.3-1,2.2-1
			c0.9,0,1.6,0.3,2.1,0.9s0.8,1.3,0.8,2.3v0.7h-4.8c0,0.8,0.2,1.4,0.6,1.9c0.4,0.4,0.9,0.6,1.7,0.6c0.7,0,1.5-0.2,2.2-0.5v0.9
			c-0.4,0.2-0.7,0.3-1.1,0.3C669.9,1013.1,669.5,1013.1,669,1013.1z M668.7,1006.8c-0.6,0-1,0.2-1.3,0.5c-0.3,0.4-0.5,0.9-0.6,1.5
			h3.6c0-0.7-0.1-1.2-0.4-1.5C669.7,1007,669.2,1006.8,668.7,1006.8z"/>
		<path class="st0" d="M678.1,1012.1L678.1,1012.1c-0.5,0.7-1.3,1.1-2.2,1.1c-0.9,0-1.6-0.3-2.1-0.9c-0.5-0.6-0.8-1.5-0.8-2.7
			c0-1.1,0.3-2,0.8-2.7s1.2-1,2.1-1c0.9,0,1.7,0.3,2.2,1h0.1l0-0.5l0-0.5v-2.8h1.1v9.9h-0.9L678.1,1012.1z M676,1012.2
			c0.7,0,1.2-0.2,1.6-0.6c0.3-0.4,0.5-1,0.5-1.9v-0.2c0-1-0.2-1.7-0.5-2.1s-0.9-0.6-1.6-0.6c-0.6,0-1.1,0.2-1.4,0.7s-0.5,1.2-0.5,2
			c0,0.9,0.2,1.6,0.5,2S675.3,1012.2,676,1012.2z"/>
		<path class="st0" d="M687.9,1005.9c0.9,0,1.6,0.3,2.1,0.9s0.8,1.5,0.8,2.7s-0.3,2-0.8,2.7s-1.2,0.9-2.1,0.9
			c-0.5,0-0.9-0.1-1.2-0.3c-0.4-0.2-0.7-0.4-0.9-0.8h-0.1l-0.2,0.9h-0.8v-9.9h1.1v2.4c0,0.5,0,1-0.1,1.4h0.1
			C686.2,1006.3,687,1005.9,687.9,1005.9z M687.8,1006.8c-0.7,0-1.2,0.2-1.6,0.6c-0.3,0.4-0.5,1.1-0.5,2.1c0,1,0.2,1.7,0.5,2.1
			s0.8,0.6,1.6,0.6c0.6,0,1.1-0.2,1.4-0.7c0.3-0.5,0.5-1.2,0.5-2c0-0.9-0.2-1.6-0.5-2C688.9,1007,688.4,1006.8,687.8,1006.8z"/>
		<path class="st0" d="M691.5,1006h1.1l1.5,4c0.3,0.9,0.5,1.6,0.6,2h0.1c0.1-0.2,0.2-0.6,0.3-1.1c0.2-0.5,0.8-2.1,1.7-4.8h1.1
			l-3,7.9c-0.3,0.8-0.6,1.3-1,1.7s-0.9,0.5-1.5,0.5c-0.3,0-0.6,0-1-0.1v-0.8c0.2,0.1,0.5,0.1,0.8,0.1c0.7,0,1.2-0.4,1.5-1.2l0.4-1
			L691.5,1006z"/>
	</g>
</g>
</svg>
