<?xml version="1.0" encoding="utf-8"?>
<!-- Generator: Adobe Illustrator 27.2.0, SVG Export Plug-In . SVG Version: 6.00 Build 0)  -->
<svg version="1.1" id="Layer_1" xmlns="http://www.w3.org/2000/svg" xmlns:xlink="http://www.w3.org/1999/xlink" x="0px" y="0px"
	 viewBox="0 0 1921 601" style="enable-background:new 0 0 1921 601;" xml:space="preserve">
<style type="text/css">
	.st0{fill:#CEFF00;}
</style>
<path id="Intersection_10" class="st0" d="M0.5,610.4V1.5C2.9,4.8,5,8.3,6.7,12c1.3,2.9,71.5,150.6,192.5,294.9
	c69.9,83.3,142.8,149.1,216.6,195.5c88.9,55.9,179.4,83.5,269.2,82.3c91.4-1.3,179-22.4,267.9-64.5c80.2-38,150.7-87.5,218.9-135.4
	c70.5-49.5,137-96.2,207.2-124.8c84.4-34.4,163.6-37.4,242-9.1c114.1,41.2,214.6,154.2,299.5,336.6v23L0.5,610.4z"/>
</svg>
