<svg id="Group_10832" data-name="Group 10832" xmlns="http://www.w3.org/2000/svg" xmlns:xlink="http://www.w3.org/1999/xlink" width="1920" height="364.91" viewBox="0 0 1920 364.91">
  <defs>
    <clipPath id="clip-path">
      <rect id="Rectangle_3051" data-name="Rectangle 3051" width="1920" height="364.91"/>
    </clipPath>
  </defs>
  <g id="Group_10831" data-name="Group 10831" clip-path="url(#clip-path)">
    <path id="Path_35146" data-name="Path 35146" d="M1707.744,75.265C1637.265,25.324,1573.22,0,1517.393,0h-.424c-77.344.174-137.1,9.123-193.747,29-53.305,18.7-101.462,46.09-162.432,80.756C1074.546,158.8,967.209,219.841,793.638,285.671c-63.312,24.014-130.725,36.039-201.531,36.041q-72.228,0-148.955-16.691C345.319,283.7,242.352,241.886,137.1,180.749A1588.47,1588.47,0,0,1,0,91.027V364.91H1920V279.693q-9.727-11.625-19.813-23.274c-66.721-77-131.467-137.949-192.443-181.154"/>
  </g>
</svg>
